<mxfile host="app.diagrams.net" modified="2023-06-14T16:39:18.700Z" agent="Mozilla/5.0 (Windows NT 10.0; Win64; x64) AppleWebKit/537.36 (KHTML, like Gecko) Chrome/114.0.0.0 Safari/537.36" etag="8hhglF6CdfTzKPgfIqFZ" version="21.3.8" type="device">
  <diagram id="R2lEEEUBdFMjLlhIrx00" name="Page-1">
    <mxGraphModel dx="413" dy="821" grid="1" gridSize="10" guides="1" tooltips="1" connect="1" arrows="1" fold="1" page="1" pageScale="1" pageWidth="850" pageHeight="1100" math="0" shadow="0" extFonts="Permanent Marker^https://fonts.googleapis.com/css?family=Permanent+Marker">
      <root>
        <mxCell id="0" />
        <mxCell id="1" parent="0" />
        <mxCell id="V_gkVdRqn64rdCY9KK4O-6" value="Proprietário" style="shape=table;startSize=30;container=1;collapsible=1;childLayout=tableLayout;fixedRows=1;rowLines=0;fontStyle=1;align=center;resizeLast=1;html=1;" parent="1" vertex="1">
          <mxGeometry x="200" y="250" width="180" height="180" as="geometry" />
        </mxCell>
        <mxCell id="V_gkVdRqn64rdCY9KK4O-7" value="" style="shape=tableRow;horizontal=0;startSize=0;swimlaneHead=0;swimlaneBody=0;fillColor=none;collapsible=0;dropTarget=0;points=[[0,0.5],[1,0.5]];portConstraint=eastwest;top=0;left=0;right=0;bottom=1;" parent="V_gkVdRqn64rdCY9KK4O-6" vertex="1">
          <mxGeometry y="30" width="180" height="30" as="geometry" />
        </mxCell>
        <mxCell id="V_gkVdRqn64rdCY9KK4O-8" value="PK" style="shape=partialRectangle;connectable=0;fillColor=none;top=0;left=0;bottom=0;right=0;fontStyle=1;overflow=hidden;whiteSpace=wrap;html=1;" parent="V_gkVdRqn64rdCY9KK4O-7" vertex="1">
          <mxGeometry width="30" height="30" as="geometry">
            <mxRectangle width="30" height="30" as="alternateBounds" />
          </mxGeometry>
        </mxCell>
        <mxCell id="V_gkVdRqn64rdCY9KK4O-9" value="Proprietário-id" style="shape=partialRectangle;connectable=0;fillColor=none;top=0;left=0;bottom=0;right=0;align=left;spacingLeft=6;fontStyle=5;overflow=hidden;whiteSpace=wrap;html=1;" parent="V_gkVdRqn64rdCY9KK4O-7" vertex="1">
          <mxGeometry x="30" width="150" height="30" as="geometry">
            <mxRectangle width="150" height="30" as="alternateBounds" />
          </mxGeometry>
        </mxCell>
        <mxCell id="V_gkVdRqn64rdCY9KK4O-10" value="" style="shape=tableRow;horizontal=0;startSize=0;swimlaneHead=0;swimlaneBody=0;fillColor=none;collapsible=0;dropTarget=0;points=[[0,0.5],[1,0.5]];portConstraint=eastwest;top=0;left=0;right=0;bottom=0;" parent="V_gkVdRqn64rdCY9KK4O-6" vertex="1">
          <mxGeometry y="60" width="180" height="30" as="geometry" />
        </mxCell>
        <mxCell id="V_gkVdRqn64rdCY9KK4O-11" value="" style="shape=partialRectangle;connectable=0;fillColor=none;top=0;left=0;bottom=0;right=0;editable=1;overflow=hidden;whiteSpace=wrap;html=1;" parent="V_gkVdRqn64rdCY9KK4O-10" vertex="1">
          <mxGeometry width="30" height="30" as="geometry">
            <mxRectangle width="30" height="30" as="alternateBounds" />
          </mxGeometry>
        </mxCell>
        <mxCell id="V_gkVdRqn64rdCY9KK4O-12" value="Nome&amp;nbsp;Varchar(50)" style="shape=partialRectangle;connectable=0;fillColor=none;top=0;left=0;bottom=0;right=0;align=left;spacingLeft=6;overflow=hidden;whiteSpace=wrap;html=1;" parent="V_gkVdRqn64rdCY9KK4O-10" vertex="1">
          <mxGeometry x="30" width="150" height="30" as="geometry">
            <mxRectangle width="150" height="30" as="alternateBounds" />
          </mxGeometry>
        </mxCell>
        <mxCell id="V_gkVdRqn64rdCY9KK4O-13" value="" style="shape=tableRow;horizontal=0;startSize=0;swimlaneHead=0;swimlaneBody=0;fillColor=none;collapsible=0;dropTarget=0;points=[[0,0.5],[1,0.5]];portConstraint=eastwest;top=0;left=0;right=0;bottom=0;" parent="V_gkVdRqn64rdCY9KK4O-6" vertex="1">
          <mxGeometry y="90" width="180" height="30" as="geometry" />
        </mxCell>
        <mxCell id="V_gkVdRqn64rdCY9KK4O-14" value="" style="shape=partialRectangle;connectable=0;fillColor=none;top=0;left=0;bottom=0;right=0;editable=1;overflow=hidden;whiteSpace=wrap;html=1;" parent="V_gkVdRqn64rdCY9KK4O-13" vertex="1">
          <mxGeometry width="30" height="30" as="geometry">
            <mxRectangle width="30" height="30" as="alternateBounds" />
          </mxGeometry>
        </mxCell>
        <mxCell id="V_gkVdRqn64rdCY9KK4O-15" value="Morada&amp;nbsp;Varchar(30)" style="shape=partialRectangle;connectable=0;fillColor=none;top=0;left=0;bottom=0;right=0;align=left;spacingLeft=6;overflow=hidden;whiteSpace=wrap;html=1;" parent="V_gkVdRqn64rdCY9KK4O-13" vertex="1">
          <mxGeometry x="30" width="150" height="30" as="geometry">
            <mxRectangle width="150" height="30" as="alternateBounds" />
          </mxGeometry>
        </mxCell>
        <mxCell id="V_gkVdRqn64rdCY9KK4O-16" value="" style="shape=tableRow;horizontal=0;startSize=0;swimlaneHead=0;swimlaneBody=0;fillColor=none;collapsible=0;dropTarget=0;points=[[0,0.5],[1,0.5]];portConstraint=eastwest;top=0;left=0;right=0;bottom=0;" parent="V_gkVdRqn64rdCY9KK4O-6" vertex="1">
          <mxGeometry y="120" width="180" height="30" as="geometry" />
        </mxCell>
        <mxCell id="V_gkVdRqn64rdCY9KK4O-17" value="" style="shape=partialRectangle;connectable=0;fillColor=none;top=0;left=0;bottom=0;right=0;editable=1;overflow=hidden;whiteSpace=wrap;html=1;" parent="V_gkVdRqn64rdCY9KK4O-16" vertex="1">
          <mxGeometry width="30" height="30" as="geometry">
            <mxRectangle width="30" height="30" as="alternateBounds" />
          </mxGeometry>
        </mxCell>
        <mxCell id="V_gkVdRqn64rdCY9KK4O-18" value="Telefone&amp;nbsp;Varchar(9)" style="shape=partialRectangle;connectable=0;fillColor=none;top=0;left=0;bottom=0;right=0;align=left;spacingLeft=6;overflow=hidden;whiteSpace=wrap;html=1;" parent="V_gkVdRqn64rdCY9KK4O-16" vertex="1">
          <mxGeometry x="30" width="150" height="30" as="geometry">
            <mxRectangle width="150" height="30" as="alternateBounds" />
          </mxGeometry>
        </mxCell>
        <mxCell id="V_gkVdRqn64rdCY9KK4O-23" value="" style="shape=tableRow;horizontal=0;startSize=0;swimlaneHead=0;swimlaneBody=0;fillColor=none;collapsible=0;dropTarget=0;points=[[0,0.5],[1,0.5]];portConstraint=eastwest;top=0;left=0;right=0;bottom=0;" parent="V_gkVdRqn64rdCY9KK4O-6" vertex="1">
          <mxGeometry y="150" width="180" height="30" as="geometry" />
        </mxCell>
        <mxCell id="V_gkVdRqn64rdCY9KK4O-24" value="" style="shape=partialRectangle;connectable=0;fillColor=none;top=0;left=0;bottom=0;right=0;editable=1;overflow=hidden;" parent="V_gkVdRqn64rdCY9KK4O-23" vertex="1">
          <mxGeometry width="30" height="30" as="geometry">
            <mxRectangle width="30" height="30" as="alternateBounds" />
          </mxGeometry>
        </mxCell>
        <mxCell id="V_gkVdRqn64rdCY9KK4O-25" value="Email Varchar(50)" style="shape=partialRectangle;connectable=0;fillColor=none;top=0;left=0;bottom=0;right=0;align=left;spacingLeft=6;overflow=hidden;" parent="V_gkVdRqn64rdCY9KK4O-23" vertex="1">
          <mxGeometry x="30" width="150" height="30" as="geometry">
            <mxRectangle width="150" height="30" as="alternateBounds" />
          </mxGeometry>
        </mxCell>
        <mxCell id="V_gkVdRqn64rdCY9KK4O-26" value="Agente Imobiliário" style="shape=table;startSize=30;container=1;collapsible=1;childLayout=tableLayout;fixedRows=1;rowLines=0;fontStyle=1;align=center;resizeLast=1;html=1;" parent="1" vertex="1">
          <mxGeometry x="201" y="10" width="180" height="190" as="geometry" />
        </mxCell>
        <mxCell id="V_gkVdRqn64rdCY9KK4O-27" value="" style="shape=tableRow;horizontal=0;startSize=0;swimlaneHead=0;swimlaneBody=0;fillColor=none;collapsible=0;dropTarget=0;points=[[0,0.5],[1,0.5]];portConstraint=eastwest;top=0;left=0;right=0;bottom=1;" parent="V_gkVdRqn64rdCY9KK4O-26" vertex="1">
          <mxGeometry y="30" width="180" height="30" as="geometry" />
        </mxCell>
        <mxCell id="V_gkVdRqn64rdCY9KK4O-28" value="PK" style="shape=partialRectangle;connectable=0;fillColor=none;top=0;left=0;bottom=0;right=0;fontStyle=1;overflow=hidden;whiteSpace=wrap;html=1;" parent="V_gkVdRqn64rdCY9KK4O-27" vertex="1">
          <mxGeometry width="40" height="30" as="geometry">
            <mxRectangle width="40" height="30" as="alternateBounds" />
          </mxGeometry>
        </mxCell>
        <mxCell id="V_gkVdRqn64rdCY9KK4O-29" value="Agente-id" style="shape=partialRectangle;connectable=0;fillColor=none;top=0;left=0;bottom=0;right=0;align=left;spacingLeft=6;fontStyle=5;overflow=hidden;whiteSpace=wrap;html=1;" parent="V_gkVdRqn64rdCY9KK4O-27" vertex="1">
          <mxGeometry x="40" width="140" height="30" as="geometry">
            <mxRectangle width="140" height="30" as="alternateBounds" />
          </mxGeometry>
        </mxCell>
        <mxCell id="V_gkVdRqn64rdCY9KK4O-30" value="" style="shape=tableRow;horizontal=0;startSize=0;swimlaneHead=0;swimlaneBody=0;fillColor=none;collapsible=0;dropTarget=0;points=[[0,0.5],[1,0.5]];portConstraint=eastwest;top=0;left=0;right=0;bottom=0;" parent="V_gkVdRqn64rdCY9KK4O-26" vertex="1">
          <mxGeometry y="60" width="180" height="30" as="geometry" />
        </mxCell>
        <mxCell id="V_gkVdRqn64rdCY9KK4O-31" value="" style="shape=partialRectangle;connectable=0;fillColor=none;top=0;left=0;bottom=0;right=0;editable=1;overflow=hidden;whiteSpace=wrap;html=1;" parent="V_gkVdRqn64rdCY9KK4O-30" vertex="1">
          <mxGeometry width="40" height="30" as="geometry">
            <mxRectangle width="40" height="30" as="alternateBounds" />
          </mxGeometry>
        </mxCell>
        <mxCell id="V_gkVdRqn64rdCY9KK4O-32" value="Nome&amp;nbsp;Varchar(50)" style="shape=partialRectangle;connectable=0;fillColor=none;top=0;left=0;bottom=0;right=0;align=left;spacingLeft=6;overflow=hidden;whiteSpace=wrap;html=1;" parent="V_gkVdRqn64rdCY9KK4O-30" vertex="1">
          <mxGeometry x="40" width="140" height="30" as="geometry">
            <mxRectangle width="140" height="30" as="alternateBounds" />
          </mxGeometry>
        </mxCell>
        <mxCell id="V_gkVdRqn64rdCY9KK4O-33" value="" style="shape=tableRow;horizontal=0;startSize=0;swimlaneHead=0;swimlaneBody=0;fillColor=none;collapsible=0;dropTarget=0;points=[[0,0.5],[1,0.5]];portConstraint=eastwest;top=0;left=0;right=0;bottom=0;" parent="V_gkVdRqn64rdCY9KK4O-26" vertex="1">
          <mxGeometry y="90" width="180" height="40" as="geometry" />
        </mxCell>
        <mxCell id="V_gkVdRqn64rdCY9KK4O-34" value="" style="shape=partialRectangle;connectable=0;fillColor=none;top=0;left=0;bottom=0;right=0;editable=1;overflow=hidden;whiteSpace=wrap;html=1;" parent="V_gkVdRqn64rdCY9KK4O-33" vertex="1">
          <mxGeometry width="40" height="40" as="geometry">
            <mxRectangle width="40" height="40" as="alternateBounds" />
          </mxGeometry>
        </mxCell>
        <mxCell id="V_gkVdRqn64rdCY9KK4O-35" value="Morada&amp;nbsp;Varchar(30)" style="shape=partialRectangle;connectable=0;fillColor=none;top=0;left=0;bottom=0;right=0;align=left;spacingLeft=6;overflow=hidden;whiteSpace=wrap;html=1;" parent="V_gkVdRqn64rdCY9KK4O-33" vertex="1">
          <mxGeometry x="40" width="140" height="40" as="geometry">
            <mxRectangle width="140" height="40" as="alternateBounds" />
          </mxGeometry>
        </mxCell>
        <mxCell id="V_gkVdRqn64rdCY9KK4O-36" value="" style="shape=tableRow;horizontal=0;startSize=0;swimlaneHead=0;swimlaneBody=0;fillColor=none;collapsible=0;dropTarget=0;points=[[0,0.5],[1,0.5]];portConstraint=eastwest;top=0;left=0;right=0;bottom=0;" parent="V_gkVdRqn64rdCY9KK4O-26" vertex="1">
          <mxGeometry y="130" width="180" height="30" as="geometry" />
        </mxCell>
        <mxCell id="V_gkVdRqn64rdCY9KK4O-37" value="" style="shape=partialRectangle;connectable=0;fillColor=none;top=0;left=0;bottom=0;right=0;editable=1;overflow=hidden;whiteSpace=wrap;html=1;" parent="V_gkVdRqn64rdCY9KK4O-36" vertex="1">
          <mxGeometry width="40" height="30" as="geometry">
            <mxRectangle width="40" height="30" as="alternateBounds" />
          </mxGeometry>
        </mxCell>
        <mxCell id="V_gkVdRqn64rdCY9KK4O-38" value="Telefone&amp;nbsp;Varchar(9)" style="shape=partialRectangle;connectable=0;fillColor=none;top=0;left=0;bottom=0;right=0;align=left;spacingLeft=6;overflow=hidden;whiteSpace=wrap;html=1;" parent="V_gkVdRqn64rdCY9KK4O-36" vertex="1">
          <mxGeometry x="40" width="140" height="30" as="geometry">
            <mxRectangle width="140" height="30" as="alternateBounds" />
          </mxGeometry>
        </mxCell>
        <mxCell id="V_gkVdRqn64rdCY9KK4O-39" value="" style="shape=tableRow;horizontal=0;startSize=0;swimlaneHead=0;swimlaneBody=0;fillColor=none;collapsible=0;dropTarget=0;points=[[0,0.5],[1,0.5]];portConstraint=eastwest;top=0;left=0;right=0;bottom=0;" parent="V_gkVdRqn64rdCY9KK4O-26" vertex="1">
          <mxGeometry y="160" width="180" height="30" as="geometry" />
        </mxCell>
        <mxCell id="V_gkVdRqn64rdCY9KK4O-40" value="" style="shape=partialRectangle;connectable=0;fillColor=none;top=0;left=0;bottom=0;right=0;editable=1;overflow=hidden;" parent="V_gkVdRqn64rdCY9KK4O-39" vertex="1">
          <mxGeometry width="40" height="30" as="geometry">
            <mxRectangle width="40" height="30" as="alternateBounds" />
          </mxGeometry>
        </mxCell>
        <mxCell id="V_gkVdRqn64rdCY9KK4O-41" value="Email Varchar(50)" style="shape=partialRectangle;connectable=0;fillColor=none;top=0;left=0;bottom=0;right=0;align=left;spacingLeft=6;overflow=hidden;" parent="V_gkVdRqn64rdCY9KK4O-39" vertex="1">
          <mxGeometry x="40" width="140" height="30" as="geometry">
            <mxRectangle width="140" height="30" as="alternateBounds" />
          </mxGeometry>
        </mxCell>
        <mxCell id="V_gkVdRqn64rdCY9KK4O-42" value="Cliente" style="shape=table;startSize=30;container=1;collapsible=1;childLayout=tableLayout;fixedRows=1;rowLines=0;fontStyle=1;align=center;resizeLast=1;html=1;" parent="1" vertex="1">
          <mxGeometry x="690" width="180" height="180" as="geometry" />
        </mxCell>
        <mxCell id="V_gkVdRqn64rdCY9KK4O-43" value="" style="shape=tableRow;horizontal=0;startSize=0;swimlaneHead=0;swimlaneBody=0;fillColor=none;collapsible=0;dropTarget=0;points=[[0,0.5],[1,0.5]];portConstraint=eastwest;top=0;left=0;right=0;bottom=1;" parent="V_gkVdRqn64rdCY9KK4O-42" vertex="1">
          <mxGeometry y="30" width="180" height="30" as="geometry" />
        </mxCell>
        <mxCell id="V_gkVdRqn64rdCY9KK4O-44" value="PK" style="shape=partialRectangle;connectable=0;fillColor=none;top=0;left=0;bottom=0;right=0;fontStyle=1;overflow=hidden;whiteSpace=wrap;html=1;" parent="V_gkVdRqn64rdCY9KK4O-43" vertex="1">
          <mxGeometry width="30" height="30" as="geometry">
            <mxRectangle width="30" height="30" as="alternateBounds" />
          </mxGeometry>
        </mxCell>
        <mxCell id="V_gkVdRqn64rdCY9KK4O-45" value="Cliente-id" style="shape=partialRectangle;connectable=0;fillColor=none;top=0;left=0;bottom=0;right=0;align=left;spacingLeft=6;fontStyle=5;overflow=hidden;whiteSpace=wrap;html=1;" parent="V_gkVdRqn64rdCY9KK4O-43" vertex="1">
          <mxGeometry x="30" width="150" height="30" as="geometry">
            <mxRectangle width="150" height="30" as="alternateBounds" />
          </mxGeometry>
        </mxCell>
        <mxCell id="V_gkVdRqn64rdCY9KK4O-46" value="" style="shape=tableRow;horizontal=0;startSize=0;swimlaneHead=0;swimlaneBody=0;fillColor=none;collapsible=0;dropTarget=0;points=[[0,0.5],[1,0.5]];portConstraint=eastwest;top=0;left=0;right=0;bottom=0;" parent="V_gkVdRqn64rdCY9KK4O-42" vertex="1">
          <mxGeometry y="60" width="180" height="30" as="geometry" />
        </mxCell>
        <mxCell id="V_gkVdRqn64rdCY9KK4O-47" value="" style="shape=partialRectangle;connectable=0;fillColor=none;top=0;left=0;bottom=0;right=0;editable=1;overflow=hidden;whiteSpace=wrap;html=1;" parent="V_gkVdRqn64rdCY9KK4O-46" vertex="1">
          <mxGeometry width="30" height="30" as="geometry">
            <mxRectangle width="30" height="30" as="alternateBounds" />
          </mxGeometry>
        </mxCell>
        <mxCell id="V_gkVdRqn64rdCY9KK4O-48" value="Nome&amp;nbsp;Varchar(50)" style="shape=partialRectangle;connectable=0;fillColor=none;top=0;left=0;bottom=0;right=0;align=left;spacingLeft=6;overflow=hidden;whiteSpace=wrap;html=1;" parent="V_gkVdRqn64rdCY9KK4O-46" vertex="1">
          <mxGeometry x="30" width="150" height="30" as="geometry">
            <mxRectangle width="150" height="30" as="alternateBounds" />
          </mxGeometry>
        </mxCell>
        <mxCell id="V_gkVdRqn64rdCY9KK4O-49" value="" style="shape=tableRow;horizontal=0;startSize=0;swimlaneHead=0;swimlaneBody=0;fillColor=none;collapsible=0;dropTarget=0;points=[[0,0.5],[1,0.5]];portConstraint=eastwest;top=0;left=0;right=0;bottom=0;" parent="V_gkVdRqn64rdCY9KK4O-42" vertex="1">
          <mxGeometry y="90" width="180" height="30" as="geometry" />
        </mxCell>
        <mxCell id="V_gkVdRqn64rdCY9KK4O-50" value="" style="shape=partialRectangle;connectable=0;fillColor=none;top=0;left=0;bottom=0;right=0;editable=1;overflow=hidden;whiteSpace=wrap;html=1;" parent="V_gkVdRqn64rdCY9KK4O-49" vertex="1">
          <mxGeometry width="30" height="30" as="geometry">
            <mxRectangle width="30" height="30" as="alternateBounds" />
          </mxGeometry>
        </mxCell>
        <mxCell id="V_gkVdRqn64rdCY9KK4O-51" value="Morada&amp;nbsp;Varchar(30)" style="shape=partialRectangle;connectable=0;fillColor=none;top=0;left=0;bottom=0;right=0;align=left;spacingLeft=6;overflow=hidden;whiteSpace=wrap;html=1;" parent="V_gkVdRqn64rdCY9KK4O-49" vertex="1">
          <mxGeometry x="30" width="150" height="30" as="geometry">
            <mxRectangle width="150" height="30" as="alternateBounds" />
          </mxGeometry>
        </mxCell>
        <mxCell id="V_gkVdRqn64rdCY9KK4O-52" value="" style="shape=tableRow;horizontal=0;startSize=0;swimlaneHead=0;swimlaneBody=0;fillColor=none;collapsible=0;dropTarget=0;points=[[0,0.5],[1,0.5]];portConstraint=eastwest;top=0;left=0;right=0;bottom=0;" parent="V_gkVdRqn64rdCY9KK4O-42" vertex="1">
          <mxGeometry y="120" width="180" height="30" as="geometry" />
        </mxCell>
        <mxCell id="V_gkVdRqn64rdCY9KK4O-53" value="" style="shape=partialRectangle;connectable=0;fillColor=none;top=0;left=0;bottom=0;right=0;editable=1;overflow=hidden;whiteSpace=wrap;html=1;" parent="V_gkVdRqn64rdCY9KK4O-52" vertex="1">
          <mxGeometry width="30" height="30" as="geometry">
            <mxRectangle width="30" height="30" as="alternateBounds" />
          </mxGeometry>
        </mxCell>
        <mxCell id="V_gkVdRqn64rdCY9KK4O-54" value="Telefone&amp;nbsp;Varchar(9)" style="shape=partialRectangle;connectable=0;fillColor=none;top=0;left=0;bottom=0;right=0;align=left;spacingLeft=6;overflow=hidden;whiteSpace=wrap;html=1;" parent="V_gkVdRqn64rdCY9KK4O-52" vertex="1">
          <mxGeometry x="30" width="150" height="30" as="geometry">
            <mxRectangle width="150" height="30" as="alternateBounds" />
          </mxGeometry>
        </mxCell>
        <mxCell id="V_gkVdRqn64rdCY9KK4O-55" value="" style="shape=tableRow;horizontal=0;startSize=0;swimlaneHead=0;swimlaneBody=0;fillColor=none;collapsible=0;dropTarget=0;points=[[0,0.5],[1,0.5]];portConstraint=eastwest;top=0;left=0;right=0;bottom=0;" parent="V_gkVdRqn64rdCY9KK4O-42" vertex="1">
          <mxGeometry y="150" width="180" height="30" as="geometry" />
        </mxCell>
        <mxCell id="V_gkVdRqn64rdCY9KK4O-56" value="" style="shape=partialRectangle;connectable=0;fillColor=none;top=0;left=0;bottom=0;right=0;editable=1;overflow=hidden;" parent="V_gkVdRqn64rdCY9KK4O-55" vertex="1">
          <mxGeometry width="30" height="30" as="geometry">
            <mxRectangle width="30" height="30" as="alternateBounds" />
          </mxGeometry>
        </mxCell>
        <mxCell id="V_gkVdRqn64rdCY9KK4O-57" value="Email Varchar(50)" style="shape=partialRectangle;connectable=0;fillColor=none;top=0;left=0;bottom=0;right=0;align=left;spacingLeft=6;overflow=hidden;" parent="V_gkVdRqn64rdCY9KK4O-55" vertex="1">
          <mxGeometry x="30" width="150" height="30" as="geometry">
            <mxRectangle width="150" height="30" as="alternateBounds" />
          </mxGeometry>
        </mxCell>
        <mxCell id="V_gkVdRqn64rdCY9KK4O-58" value="Imovél" style="shape=table;startSize=30;container=1;collapsible=1;childLayout=tableLayout;fixedRows=1;rowLines=0;fontStyle=1;align=center;resizeLast=1;html=1;" parent="1" vertex="1">
          <mxGeometry x="690" y="240" width="180" height="190" as="geometry" />
        </mxCell>
        <mxCell id="V_gkVdRqn64rdCY9KK4O-59" value="" style="shape=tableRow;horizontal=0;startSize=0;swimlaneHead=0;swimlaneBody=0;fillColor=none;collapsible=0;dropTarget=0;points=[[0,0.5],[1,0.5]];portConstraint=eastwest;top=0;left=0;right=0;bottom=1;" parent="V_gkVdRqn64rdCY9KK4O-58" vertex="1">
          <mxGeometry y="30" width="180" height="30" as="geometry" />
        </mxCell>
        <mxCell id="V_gkVdRqn64rdCY9KK4O-60" value="PK" style="shape=partialRectangle;connectable=0;fillColor=none;top=0;left=0;bottom=0;right=0;fontStyle=1;overflow=hidden;whiteSpace=wrap;html=1;" parent="V_gkVdRqn64rdCY9KK4O-59" vertex="1">
          <mxGeometry width="30" height="30" as="geometry">
            <mxRectangle width="30" height="30" as="alternateBounds" />
          </mxGeometry>
        </mxCell>
        <mxCell id="V_gkVdRqn64rdCY9KK4O-61" value="Imovél-id" style="shape=partialRectangle;connectable=0;fillColor=none;top=0;left=0;bottom=0;right=0;align=left;spacingLeft=6;fontStyle=5;overflow=hidden;whiteSpace=wrap;html=1;" parent="V_gkVdRqn64rdCY9KK4O-59" vertex="1">
          <mxGeometry x="30" width="150" height="30" as="geometry">
            <mxRectangle width="150" height="30" as="alternateBounds" />
          </mxGeometry>
        </mxCell>
        <mxCell id="V_gkVdRqn64rdCY9KK4O-62" value="" style="shape=tableRow;horizontal=0;startSize=0;swimlaneHead=0;swimlaneBody=0;fillColor=none;collapsible=0;dropTarget=0;points=[[0,0.5],[1,0.5]];portConstraint=eastwest;top=0;left=0;right=0;bottom=0;" parent="V_gkVdRqn64rdCY9KK4O-58" vertex="1">
          <mxGeometry y="60" width="180" height="30" as="geometry" />
        </mxCell>
        <mxCell id="V_gkVdRqn64rdCY9KK4O-63" value="" style="shape=partialRectangle;connectable=0;fillColor=none;top=0;left=0;bottom=0;right=0;editable=1;overflow=hidden;whiteSpace=wrap;html=1;" parent="V_gkVdRqn64rdCY9KK4O-62" vertex="1">
          <mxGeometry width="30" height="30" as="geometry">
            <mxRectangle width="30" height="30" as="alternateBounds" />
          </mxGeometry>
        </mxCell>
        <mxCell id="V_gkVdRqn64rdCY9KK4O-64" value="Descrição Varchar(100)" style="shape=partialRectangle;connectable=0;fillColor=none;top=0;left=0;bottom=0;right=0;align=left;spacingLeft=6;overflow=hidden;whiteSpace=wrap;html=1;" parent="V_gkVdRqn64rdCY9KK4O-62" vertex="1">
          <mxGeometry x="30" width="150" height="30" as="geometry">
            <mxRectangle width="150" height="30" as="alternateBounds" />
          </mxGeometry>
        </mxCell>
        <mxCell id="V_gkVdRqn64rdCY9KK4O-65" value="" style="shape=tableRow;horizontal=0;startSize=0;swimlaneHead=0;swimlaneBody=0;fillColor=none;collapsible=0;dropTarget=0;points=[[0,0.5],[1,0.5]];portConstraint=eastwest;top=0;left=0;right=0;bottom=0;" parent="V_gkVdRqn64rdCY9KK4O-58" vertex="1">
          <mxGeometry y="90" width="180" height="30" as="geometry" />
        </mxCell>
        <mxCell id="V_gkVdRqn64rdCY9KK4O-66" value="" style="shape=partialRectangle;connectable=0;fillColor=none;top=0;left=0;bottom=0;right=0;editable=1;overflow=hidden;whiteSpace=wrap;html=1;" parent="V_gkVdRqn64rdCY9KK4O-65" vertex="1">
          <mxGeometry width="30" height="30" as="geometry">
            <mxRectangle width="30" height="30" as="alternateBounds" />
          </mxGeometry>
        </mxCell>
        <mxCell id="V_gkVdRqn64rdCY9KK4O-67" value="Valor int" style="shape=partialRectangle;connectable=0;fillColor=none;top=0;left=0;bottom=0;right=0;align=left;spacingLeft=6;overflow=hidden;whiteSpace=wrap;html=1;" parent="V_gkVdRqn64rdCY9KK4O-65" vertex="1">
          <mxGeometry x="30" width="150" height="30" as="geometry">
            <mxRectangle width="150" height="30" as="alternateBounds" />
          </mxGeometry>
        </mxCell>
        <mxCell id="V_gkVdRqn64rdCY9KK4O-68" value="" style="shape=tableRow;horizontal=0;startSize=0;swimlaneHead=0;swimlaneBody=0;fillColor=none;collapsible=0;dropTarget=0;points=[[0,0.5],[1,0.5]];portConstraint=eastwest;top=0;left=0;right=0;bottom=0;" parent="V_gkVdRqn64rdCY9KK4O-58" vertex="1">
          <mxGeometry y="120" width="180" height="20" as="geometry" />
        </mxCell>
        <mxCell id="V_gkVdRqn64rdCY9KK4O-69" value="" style="shape=partialRectangle;connectable=0;fillColor=none;top=0;left=0;bottom=0;right=0;editable=1;overflow=hidden;whiteSpace=wrap;html=1;" parent="V_gkVdRqn64rdCY9KK4O-68" vertex="1">
          <mxGeometry width="30" height="20" as="geometry">
            <mxRectangle width="30" height="20" as="alternateBounds" />
          </mxGeometry>
        </mxCell>
        <mxCell id="V_gkVdRqn64rdCY9KK4O-70" value="Morada Varchar(30)" style="shape=partialRectangle;connectable=0;fillColor=none;top=0;left=0;bottom=0;right=0;align=left;spacingLeft=6;overflow=hidden;whiteSpace=wrap;html=1;" parent="V_gkVdRqn64rdCY9KK4O-68" vertex="1">
          <mxGeometry x="30" width="150" height="20" as="geometry">
            <mxRectangle width="150" height="20" as="alternateBounds" />
          </mxGeometry>
        </mxCell>
        <mxCell id="V_gkVdRqn64rdCY9KK4O-79" value="" style="shape=tableRow;horizontal=0;startSize=0;swimlaneHead=0;swimlaneBody=0;fillColor=none;collapsible=0;dropTarget=0;points=[[0,0.5],[1,0.5]];portConstraint=eastwest;top=0;left=0;right=0;bottom=0;" parent="V_gkVdRqn64rdCY9KK4O-58" vertex="1">
          <mxGeometry y="140" width="180" height="20" as="geometry" />
        </mxCell>
        <mxCell id="V_gkVdRqn64rdCY9KK4O-80" value="" style="shape=partialRectangle;connectable=0;fillColor=none;top=0;left=0;bottom=0;right=0;editable=1;overflow=hidden;" parent="V_gkVdRqn64rdCY9KK4O-79" vertex="1">
          <mxGeometry width="30" height="20" as="geometry">
            <mxRectangle width="30" height="20" as="alternateBounds" />
          </mxGeometry>
        </mxCell>
        <mxCell id="V_gkVdRqn64rdCY9KK4O-81" value="Situação Varchar(10)" style="shape=partialRectangle;connectable=0;fillColor=none;top=0;left=0;bottom=0;right=0;align=left;spacingLeft=6;overflow=hidden;" parent="V_gkVdRqn64rdCY9KK4O-79" vertex="1">
          <mxGeometry x="30" width="150" height="20" as="geometry">
            <mxRectangle width="150" height="20" as="alternateBounds" />
          </mxGeometry>
        </mxCell>
        <mxCell id="V_gkVdRqn64rdCY9KK4O-71" value="" style="shape=tableRow;horizontal=0;startSize=0;swimlaneHead=0;swimlaneBody=0;fillColor=none;collapsible=0;dropTarget=0;points=[[0,0.5],[1,0.5]];portConstraint=eastwest;top=0;left=0;right=0;bottom=0;" parent="V_gkVdRqn64rdCY9KK4O-58" vertex="1">
          <mxGeometry y="160" width="180" height="30" as="geometry" />
        </mxCell>
        <mxCell id="V_gkVdRqn64rdCY9KK4O-72" value="" style="shape=partialRectangle;connectable=0;fillColor=none;top=0;left=0;bottom=0;right=0;editable=1;overflow=hidden;" parent="V_gkVdRqn64rdCY9KK4O-71" vertex="1">
          <mxGeometry width="30" height="30" as="geometry">
            <mxRectangle width="30" height="30" as="alternateBounds" />
          </mxGeometry>
        </mxCell>
        <mxCell id="V_gkVdRqn64rdCY9KK4O-73" value="Zona Varchar(15)" style="shape=partialRectangle;connectable=0;fillColor=none;top=0;left=0;bottom=0;right=0;align=left;spacingLeft=6;overflow=hidden;" parent="V_gkVdRqn64rdCY9KK4O-71" vertex="1">
          <mxGeometry x="30" width="150" height="30" as="geometry">
            <mxRectangle width="150" height="30" as="alternateBounds" />
          </mxGeometry>
        </mxCell>
        <mxCell id="V_gkVdRqn64rdCY9KK4O-82" value="Contrato" style="shape=table;startSize=30;container=1;collapsible=1;childLayout=tableLayout;fixedRows=1;rowLines=0;fontStyle=1;align=center;resizeLast=1;html=1;" parent="1" vertex="1">
          <mxGeometry x="470" y="50" width="180" height="270" as="geometry" />
        </mxCell>
        <mxCell id="V_gkVdRqn64rdCY9KK4O-83" value="" style="shape=tableRow;horizontal=0;startSize=0;swimlaneHead=0;swimlaneBody=0;fillColor=none;collapsible=0;dropTarget=0;points=[[0,0.5],[1,0.5]];portConstraint=eastwest;top=0;left=0;right=0;bottom=1;" parent="V_gkVdRqn64rdCY9KK4O-82" vertex="1">
          <mxGeometry y="30" width="180" height="30" as="geometry" />
        </mxCell>
        <mxCell id="V_gkVdRqn64rdCY9KK4O-84" value="PK" style="shape=partialRectangle;connectable=0;fillColor=none;top=0;left=0;bottom=0;right=0;fontStyle=1;overflow=hidden;whiteSpace=wrap;html=1;" parent="V_gkVdRqn64rdCY9KK4O-83" vertex="1">
          <mxGeometry width="30" height="30" as="geometry">
            <mxRectangle width="30" height="30" as="alternateBounds" />
          </mxGeometry>
        </mxCell>
        <mxCell id="V_gkVdRqn64rdCY9KK4O-85" value="Contrato-id" style="shape=partialRectangle;connectable=0;fillColor=none;top=0;left=0;bottom=0;right=0;align=left;spacingLeft=6;fontStyle=5;overflow=hidden;whiteSpace=wrap;html=1;" parent="V_gkVdRqn64rdCY9KK4O-83" vertex="1">
          <mxGeometry x="30" width="150" height="30" as="geometry">
            <mxRectangle width="150" height="30" as="alternateBounds" />
          </mxGeometry>
        </mxCell>
        <mxCell id="V_gkVdRqn64rdCY9KK4O-86" value="" style="shape=tableRow;horizontal=0;startSize=0;swimlaneHead=0;swimlaneBody=0;fillColor=none;collapsible=0;dropTarget=0;points=[[0,0.5],[1,0.5]];portConstraint=eastwest;top=0;left=0;right=0;bottom=0;" parent="V_gkVdRqn64rdCY9KK4O-82" vertex="1">
          <mxGeometry y="60" width="180" height="30" as="geometry" />
        </mxCell>
        <mxCell id="V_gkVdRqn64rdCY9KK4O-87" value="" style="shape=partialRectangle;connectable=0;fillColor=none;top=0;left=0;bottom=0;right=0;editable=1;overflow=hidden;whiteSpace=wrap;html=1;" parent="V_gkVdRqn64rdCY9KK4O-86" vertex="1">
          <mxGeometry width="30" height="30" as="geometry">
            <mxRectangle width="30" height="30" as="alternateBounds" />
          </mxGeometry>
        </mxCell>
        <mxCell id="V_gkVdRqn64rdCY9KK4O-88" value="data-inicio Date" style="shape=partialRectangle;connectable=0;fillColor=none;top=0;left=0;bottom=0;right=0;align=left;spacingLeft=6;overflow=hidden;whiteSpace=wrap;html=1;" parent="V_gkVdRqn64rdCY9KK4O-86" vertex="1">
          <mxGeometry x="30" width="150" height="30" as="geometry">
            <mxRectangle width="150" height="30" as="alternateBounds" />
          </mxGeometry>
        </mxCell>
        <mxCell id="V_gkVdRqn64rdCY9KK4O-89" value="" style="shape=tableRow;horizontal=0;startSize=0;swimlaneHead=0;swimlaneBody=0;fillColor=none;collapsible=0;dropTarget=0;points=[[0,0.5],[1,0.5]];portConstraint=eastwest;top=0;left=0;right=0;bottom=0;" parent="V_gkVdRqn64rdCY9KK4O-82" vertex="1">
          <mxGeometry y="90" width="180" height="30" as="geometry" />
        </mxCell>
        <mxCell id="V_gkVdRqn64rdCY9KK4O-90" value="" style="shape=partialRectangle;connectable=0;fillColor=none;top=0;left=0;bottom=0;right=0;editable=1;overflow=hidden;whiteSpace=wrap;html=1;" parent="V_gkVdRqn64rdCY9KK4O-89" vertex="1">
          <mxGeometry width="30" height="30" as="geometry">
            <mxRectangle width="30" height="30" as="alternateBounds" />
          </mxGeometry>
        </mxCell>
        <mxCell id="V_gkVdRqn64rdCY9KK4O-91" value="periodo varchar(20)" style="shape=partialRectangle;connectable=0;fillColor=none;top=0;left=0;bottom=0;right=0;align=left;spacingLeft=6;overflow=hidden;whiteSpace=wrap;html=1;" parent="V_gkVdRqn64rdCY9KK4O-89" vertex="1">
          <mxGeometry x="30" width="150" height="30" as="geometry">
            <mxRectangle width="150" height="30" as="alternateBounds" />
          </mxGeometry>
        </mxCell>
        <mxCell id="V_gkVdRqn64rdCY9KK4O-92" value="" style="shape=tableRow;horizontal=0;startSize=0;swimlaneHead=0;swimlaneBody=0;fillColor=none;collapsible=0;dropTarget=0;points=[[0,0.5],[1,0.5]];portConstraint=eastwest;top=0;left=0;right=0;bottom=0;" parent="V_gkVdRqn64rdCY9KK4O-82" vertex="1">
          <mxGeometry y="120" width="180" height="30" as="geometry" />
        </mxCell>
        <mxCell id="V_gkVdRqn64rdCY9KK4O-93" value="" style="shape=partialRectangle;connectable=0;fillColor=none;top=0;left=0;bottom=0;right=0;editable=1;overflow=hidden;whiteSpace=wrap;html=1;" parent="V_gkVdRqn64rdCY9KK4O-92" vertex="1">
          <mxGeometry width="30" height="30" as="geometry">
            <mxRectangle width="30" height="30" as="alternateBounds" />
          </mxGeometry>
        </mxCell>
        <mxCell id="V_gkVdRqn64rdCY9KK4O-94" value="tipo Varchar(15)" style="shape=partialRectangle;connectable=0;fillColor=none;top=0;left=0;bottom=0;right=0;align=left;spacingLeft=6;overflow=hidden;whiteSpace=wrap;html=1;" parent="V_gkVdRqn64rdCY9KK4O-92" vertex="1">
          <mxGeometry x="30" width="150" height="30" as="geometry">
            <mxRectangle width="150" height="30" as="alternateBounds" />
          </mxGeometry>
        </mxCell>
        <mxCell id="V_gkVdRqn64rdCY9KK4O-104" value="" style="shape=tableRow;horizontal=0;startSize=0;swimlaneHead=0;swimlaneBody=0;fillColor=none;collapsible=0;dropTarget=0;points=[[0,0.5],[1,0.5]];portConstraint=eastwest;top=0;left=0;right=0;bottom=0;" parent="V_gkVdRqn64rdCY9KK4O-82" vertex="1">
          <mxGeometry y="150" width="180" height="30" as="geometry" />
        </mxCell>
        <mxCell id="V_gkVdRqn64rdCY9KK4O-105" value="FK" style="shape=partialRectangle;connectable=0;fillColor=none;top=0;left=0;bottom=0;right=0;fontStyle=0;overflow=hidden;whiteSpace=wrap;html=1;" parent="V_gkVdRqn64rdCY9KK4O-104" vertex="1">
          <mxGeometry width="30" height="30" as="geometry">
            <mxRectangle width="30" height="30" as="alternateBounds" />
          </mxGeometry>
        </mxCell>
        <mxCell id="V_gkVdRqn64rdCY9KK4O-106" value="Cliente-id" style="shape=partialRectangle;connectable=0;fillColor=none;top=0;left=0;bottom=0;right=0;align=left;spacingLeft=6;fontStyle=0;overflow=hidden;whiteSpace=wrap;html=1;" parent="V_gkVdRqn64rdCY9KK4O-104" vertex="1">
          <mxGeometry x="30" width="150" height="30" as="geometry">
            <mxRectangle width="150" height="30" as="alternateBounds" />
          </mxGeometry>
        </mxCell>
        <mxCell id="V_gkVdRqn64rdCY9KK4O-101" value="" style="shape=tableRow;horizontal=0;startSize=0;swimlaneHead=0;swimlaneBody=0;fillColor=none;collapsible=0;dropTarget=0;points=[[0,0.5],[1,0.5]];portConstraint=eastwest;top=0;left=0;right=0;bottom=0;" parent="V_gkVdRqn64rdCY9KK4O-82" vertex="1">
          <mxGeometry y="180" width="180" height="30" as="geometry" />
        </mxCell>
        <mxCell id="V_gkVdRqn64rdCY9KK4O-102" value="FK" style="shape=partialRectangle;connectable=0;fillColor=none;top=0;left=0;bottom=0;right=0;fontStyle=0;overflow=hidden;whiteSpace=wrap;html=1;" parent="V_gkVdRqn64rdCY9KK4O-101" vertex="1">
          <mxGeometry width="30" height="30" as="geometry">
            <mxRectangle width="30" height="30" as="alternateBounds" />
          </mxGeometry>
        </mxCell>
        <mxCell id="V_gkVdRqn64rdCY9KK4O-103" value="Imovél-id" style="shape=partialRectangle;connectable=0;fillColor=none;top=0;left=0;bottom=0;right=0;align=left;spacingLeft=6;fontStyle=0;overflow=hidden;whiteSpace=wrap;html=1;" parent="V_gkVdRqn64rdCY9KK4O-101" vertex="1">
          <mxGeometry x="30" width="150" height="30" as="geometry">
            <mxRectangle width="150" height="30" as="alternateBounds" />
          </mxGeometry>
        </mxCell>
        <mxCell id="V_gkVdRqn64rdCY9KK4O-107" value="" style="shape=tableRow;horizontal=0;startSize=0;swimlaneHead=0;swimlaneBody=0;fillColor=none;collapsible=0;dropTarget=0;points=[[0,0.5],[1,0.5]];portConstraint=eastwest;top=0;left=0;right=0;bottom=0;" parent="V_gkVdRqn64rdCY9KK4O-82" vertex="1">
          <mxGeometry y="210" width="180" height="30" as="geometry" />
        </mxCell>
        <mxCell id="V_gkVdRqn64rdCY9KK4O-108" value="FK" style="shape=partialRectangle;connectable=0;fillColor=none;top=0;left=0;bottom=0;right=0;fontStyle=0;overflow=hidden;whiteSpace=wrap;html=1;" parent="V_gkVdRqn64rdCY9KK4O-107" vertex="1">
          <mxGeometry width="30" height="30" as="geometry">
            <mxRectangle width="30" height="30" as="alternateBounds" />
          </mxGeometry>
        </mxCell>
        <mxCell id="V_gkVdRqn64rdCY9KK4O-109" value="Agente-id" style="shape=partialRectangle;connectable=0;fillColor=none;top=0;left=0;bottom=0;right=0;align=left;spacingLeft=6;fontStyle=0;overflow=hidden;whiteSpace=wrap;html=1;" parent="V_gkVdRqn64rdCY9KK4O-107" vertex="1">
          <mxGeometry x="30" width="150" height="30" as="geometry">
            <mxRectangle width="150" height="30" as="alternateBounds" />
          </mxGeometry>
        </mxCell>
        <mxCell id="V_gkVdRqn64rdCY9KK4O-98" value="" style="shape=tableRow;horizontal=0;startSize=0;swimlaneHead=0;swimlaneBody=0;fillColor=none;collapsible=0;dropTarget=0;points=[[0,0.5],[1,0.5]];portConstraint=eastwest;top=0;left=0;right=0;bottom=0;" parent="V_gkVdRqn64rdCY9KK4O-82" vertex="1">
          <mxGeometry y="240" width="180" height="30" as="geometry" />
        </mxCell>
        <mxCell id="V_gkVdRqn64rdCY9KK4O-99" value="FK" style="shape=partialRectangle;connectable=0;fillColor=none;top=0;left=0;bottom=0;right=0;fontStyle=0;overflow=hidden;whiteSpace=wrap;html=1;" parent="V_gkVdRqn64rdCY9KK4O-98" vertex="1">
          <mxGeometry width="30" height="30" as="geometry">
            <mxRectangle width="30" height="30" as="alternateBounds" />
          </mxGeometry>
        </mxCell>
        <mxCell id="V_gkVdRqn64rdCY9KK4O-100" value="Proprietário-id" style="shape=partialRectangle;connectable=0;fillColor=none;top=0;left=0;bottom=0;right=0;align=left;spacingLeft=6;fontStyle=0;overflow=hidden;whiteSpace=wrap;html=1;" parent="V_gkVdRqn64rdCY9KK4O-98" vertex="1">
          <mxGeometry x="30" width="150" height="30" as="geometry">
            <mxRectangle width="150" height="30" as="alternateBounds" />
          </mxGeometry>
        </mxCell>
        <mxCell id="V_gkVdRqn64rdCY9KK4O-112" style="edgeStyle=orthogonalEdgeStyle;rounded=0;orthogonalLoop=1;jettySize=auto;html=1;entryX=0;entryY=0.5;entryDx=0;entryDy=0;" parent="1" source="V_gkVdRqn64rdCY9KK4O-27" target="V_gkVdRqn64rdCY9KK4O-107" edge="1">
          <mxGeometry relative="1" as="geometry" />
        </mxCell>
        <mxCell id="V_gkVdRqn64rdCY9KK4O-113" style="edgeStyle=orthogonalEdgeStyle;rounded=0;orthogonalLoop=1;jettySize=auto;html=1;entryX=0;entryY=0.5;entryDx=0;entryDy=0;" parent="1" source="V_gkVdRqn64rdCY9KK4O-7" target="V_gkVdRqn64rdCY9KK4O-98" edge="1">
          <mxGeometry relative="1" as="geometry" />
        </mxCell>
        <mxCell id="V_gkVdRqn64rdCY9KK4O-115" style="edgeStyle=orthogonalEdgeStyle;rounded=0;orthogonalLoop=1;jettySize=auto;html=1;entryX=1;entryY=0.5;entryDx=0;entryDy=0;" parent="1" source="V_gkVdRqn64rdCY9KK4O-59" target="V_gkVdRqn64rdCY9KK4O-101" edge="1">
          <mxGeometry relative="1" as="geometry" />
        </mxCell>
        <mxCell id="V_gkVdRqn64rdCY9KK4O-116" style="edgeStyle=orthogonalEdgeStyle;rounded=0;orthogonalLoop=1;jettySize=auto;html=1;entryX=1;entryY=0.5;entryDx=0;entryDy=0;" parent="1" source="V_gkVdRqn64rdCY9KK4O-43" target="V_gkVdRqn64rdCY9KK4O-104" edge="1">
          <mxGeometry relative="1" as="geometry" />
        </mxCell>
        <mxCell id="V_gkVdRqn64rdCY9KK4O-123" value="Proprietário-id" style="swimlane;fontStyle=0;childLayout=stackLayout;horizontal=1;startSize=26;horizontalStack=0;resizeParent=1;resizeParentMax=0;resizeLast=0;collapsible=1;marginBottom=0;align=center;fontSize=14;" parent="1" vertex="1">
          <mxGeometry x="150" y="920" width="120" height="322" as="geometry" />
        </mxCell>
        <mxCell id="V_gkVdRqn64rdCY9KK4O-124" value="1" style="text;strokeColor=none;fillColor=none;spacingLeft=4;spacingRight=4;overflow=hidden;rotatable=0;points=[[0,0.5],[1,0.5]];portConstraint=eastwest;fontSize=12;whiteSpace=wrap;html=1;" parent="V_gkVdRqn64rdCY9KK4O-123" vertex="1">
          <mxGeometry y="26" width="120" height="30" as="geometry" />
        </mxCell>
        <mxCell id="V_gkVdRqn64rdCY9KK4O-125" value="2" style="text;strokeColor=none;fillColor=none;spacingLeft=4;spacingRight=4;overflow=hidden;rotatable=0;points=[[0,0.5],[1,0.5]];portConstraint=eastwest;fontSize=12;whiteSpace=wrap;html=1;" parent="V_gkVdRqn64rdCY9KK4O-123" vertex="1">
          <mxGeometry y="56" width="120" height="26" as="geometry" />
        </mxCell>
        <mxCell id="V_gkVdRqn64rdCY9KK4O-126" value="3" style="text;strokeColor=none;fillColor=none;spacingLeft=4;spacingRight=4;overflow=hidden;rotatable=0;points=[[0,0.5],[1,0.5]];portConstraint=eastwest;fontSize=12;whiteSpace=wrap;html=1;" parent="V_gkVdRqn64rdCY9KK4O-123" vertex="1">
          <mxGeometry y="82" width="120" height="30" as="geometry" />
        </mxCell>
        <mxCell id="V_gkVdRqn64rdCY9KK4O-129" value="4" style="text;strokeColor=none;fillColor=none;spacingLeft=4;spacingRight=4;overflow=hidden;rotatable=0;points=[[0,0.5],[1,0.5]];portConstraint=eastwest;fontSize=12;whiteSpace=wrap;html=1;" parent="V_gkVdRqn64rdCY9KK4O-123" vertex="1">
          <mxGeometry y="112" width="120" height="30" as="geometry" />
        </mxCell>
        <mxCell id="V_gkVdRqn64rdCY9KK4O-130" value="5" style="text;strokeColor=none;fillColor=none;spacingLeft=4;spacingRight=4;overflow=hidden;rotatable=0;points=[[0,0.5],[1,0.5]];portConstraint=eastwest;fontSize=12;whiteSpace=wrap;html=1;" parent="V_gkVdRqn64rdCY9KK4O-123" vertex="1">
          <mxGeometry y="142" width="120" height="30" as="geometry" />
        </mxCell>
        <mxCell id="V_gkVdRqn64rdCY9KK4O-131" value="6" style="text;strokeColor=none;fillColor=none;spacingLeft=4;spacingRight=4;overflow=hidden;rotatable=0;points=[[0,0.5],[1,0.5]];portConstraint=eastwest;fontSize=12;whiteSpace=wrap;html=1;" parent="V_gkVdRqn64rdCY9KK4O-123" vertex="1">
          <mxGeometry y="172" width="120" height="30" as="geometry" />
        </mxCell>
        <mxCell id="V_gkVdRqn64rdCY9KK4O-132" value="7" style="text;strokeColor=none;fillColor=none;spacingLeft=4;spacingRight=4;overflow=hidden;rotatable=0;points=[[0,0.5],[1,0.5]];portConstraint=eastwest;fontSize=12;whiteSpace=wrap;html=1;" parent="V_gkVdRqn64rdCY9KK4O-123" vertex="1">
          <mxGeometry y="202" width="120" height="30" as="geometry" />
        </mxCell>
        <mxCell id="V_gkVdRqn64rdCY9KK4O-133" value="8" style="text;strokeColor=none;fillColor=none;spacingLeft=4;spacingRight=4;overflow=hidden;rotatable=0;points=[[0,0.5],[1,0.5]];portConstraint=eastwest;fontSize=12;whiteSpace=wrap;html=1;" parent="V_gkVdRqn64rdCY9KK4O-123" vertex="1">
          <mxGeometry y="232" width="120" height="30" as="geometry" />
        </mxCell>
        <mxCell id="V_gkVdRqn64rdCY9KK4O-134" value="9" style="text;strokeColor=none;fillColor=none;spacingLeft=4;spacingRight=4;overflow=hidden;rotatable=0;points=[[0,0.5],[1,0.5]];portConstraint=eastwest;fontSize=12;whiteSpace=wrap;html=1;" parent="V_gkVdRqn64rdCY9KK4O-123" vertex="1">
          <mxGeometry y="262" width="120" height="30" as="geometry" />
        </mxCell>
        <mxCell id="V_gkVdRqn64rdCY9KK4O-135" value="10" style="text;strokeColor=none;fillColor=none;spacingLeft=4;spacingRight=4;overflow=hidden;rotatable=0;points=[[0,0.5],[1,0.5]];portConstraint=eastwest;fontSize=12;whiteSpace=wrap;html=1;" parent="V_gkVdRqn64rdCY9KK4O-123" vertex="1">
          <mxGeometry y="292" width="120" height="30" as="geometry" />
        </mxCell>
        <mxCell id="V_gkVdRqn64rdCY9KK4O-142" value="Nome" style="swimlane;fontStyle=0;childLayout=stackLayout;horizontal=1;startSize=26;horizontalStack=0;resizeParent=1;resizeParentMax=0;resizeLast=0;collapsible=1;marginBottom=0;align=center;fontSize=14;" parent="1" vertex="1">
          <mxGeometry x="270" y="920" width="120" height="322" as="geometry" />
        </mxCell>
        <mxCell id="V_gkVdRqn64rdCY9KK4O-143" value="Roberto H." style="text;strokeColor=none;fillColor=none;spacingLeft=4;spacingRight=4;overflow=hidden;rotatable=0;points=[[0,0.5],[1,0.5]];portConstraint=eastwest;fontSize=12;whiteSpace=wrap;html=1;" parent="V_gkVdRqn64rdCY9KK4O-142" vertex="1">
          <mxGeometry y="26" width="120" height="30" as="geometry" />
        </mxCell>
        <mxCell id="V_gkVdRqn64rdCY9KK4O-144" value="Irineu V." style="text;strokeColor=none;fillColor=none;spacingLeft=4;spacingRight=4;overflow=hidden;rotatable=0;points=[[0,0.5],[1,0.5]];portConstraint=eastwest;fontSize=12;whiteSpace=wrap;html=1;" parent="V_gkVdRqn64rdCY9KK4O-142" vertex="1">
          <mxGeometry y="56" width="120" height="26" as="geometry" />
        </mxCell>
        <mxCell id="V_gkVdRqn64rdCY9KK4O-145" value="Rodrigo A." style="text;strokeColor=none;fillColor=none;spacingLeft=4;spacingRight=4;overflow=hidden;rotatable=0;points=[[0,0.5],[1,0.5]];portConstraint=eastwest;fontSize=12;whiteSpace=wrap;html=1;" parent="V_gkVdRqn64rdCY9KK4O-142" vertex="1">
          <mxGeometry y="82" width="120" height="30" as="geometry" />
        </mxCell>
        <mxCell id="V_gkVdRqn64rdCY9KK4O-146" value="Rui T." style="text;strokeColor=none;fillColor=none;spacingLeft=4;spacingRight=4;overflow=hidden;rotatable=0;points=[[0,0.5],[1,0.5]];portConstraint=eastwest;fontSize=12;whiteSpace=wrap;html=1;" parent="V_gkVdRqn64rdCY9KK4O-142" vertex="1">
          <mxGeometry y="112" width="120" height="30" as="geometry" />
        </mxCell>
        <mxCell id="V_gkVdRqn64rdCY9KK4O-147" value="Gonçalo G." style="text;strokeColor=none;fillColor=none;spacingLeft=4;spacingRight=4;overflow=hidden;rotatable=0;points=[[0,0.5],[1,0.5]];portConstraint=eastwest;fontSize=12;whiteSpace=wrap;html=1;" parent="V_gkVdRqn64rdCY9KK4O-142" vertex="1">
          <mxGeometry y="142" width="120" height="30" as="geometry" />
        </mxCell>
        <mxCell id="V_gkVdRqn64rdCY9KK4O-148" value="Maria R." style="text;strokeColor=none;fillColor=none;spacingLeft=4;spacingRight=4;overflow=hidden;rotatable=0;points=[[0,0.5],[1,0.5]];portConstraint=eastwest;fontSize=12;whiteSpace=wrap;html=1;" parent="V_gkVdRqn64rdCY9KK4O-142" vertex="1">
          <mxGeometry y="172" width="120" height="30" as="geometry" />
        </mxCell>
        <mxCell id="V_gkVdRqn64rdCY9KK4O-149" value="Ana G." style="text;strokeColor=none;fillColor=none;spacingLeft=4;spacingRight=4;overflow=hidden;rotatable=0;points=[[0,0.5],[1,0.5]];portConstraint=eastwest;fontSize=12;whiteSpace=wrap;html=1;" parent="V_gkVdRqn64rdCY9KK4O-142" vertex="1">
          <mxGeometry y="202" width="120" height="30" as="geometry" />
        </mxCell>
        <mxCell id="V_gkVdRqn64rdCY9KK4O-150" value="Leonor S." style="text;strokeColor=none;fillColor=none;spacingLeft=4;spacingRight=4;overflow=hidden;rotatable=0;points=[[0,0.5],[1,0.5]];portConstraint=eastwest;fontSize=12;whiteSpace=wrap;html=1;" parent="V_gkVdRqn64rdCY9KK4O-142" vertex="1">
          <mxGeometry y="232" width="120" height="30" as="geometry" />
        </mxCell>
        <mxCell id="V_gkVdRqn64rdCY9KK4O-151" value="Carolina A." style="text;strokeColor=none;fillColor=none;spacingLeft=4;spacingRight=4;overflow=hidden;rotatable=0;points=[[0,0.5],[1,0.5]];portConstraint=eastwest;fontSize=12;whiteSpace=wrap;html=1;" parent="V_gkVdRqn64rdCY9KK4O-142" vertex="1">
          <mxGeometry y="262" width="120" height="30" as="geometry" />
        </mxCell>
        <mxCell id="V_gkVdRqn64rdCY9KK4O-152" value="Rosa M." style="text;strokeColor=none;fillColor=none;spacingLeft=4;spacingRight=4;overflow=hidden;rotatable=0;points=[[0,0.5],[1,0.5]];portConstraint=eastwest;fontSize=12;whiteSpace=wrap;html=1;" parent="V_gkVdRqn64rdCY9KK4O-142" vertex="1">
          <mxGeometry y="292" width="120" height="30" as="geometry" />
        </mxCell>
        <mxCell id="V_gkVdRqn64rdCY9KK4O-153" value="Morada" style="swimlane;fontStyle=0;childLayout=stackLayout;horizontal=1;startSize=26;horizontalStack=0;resizeParent=1;resizeParentMax=0;resizeLast=0;collapsible=1;marginBottom=0;align=center;fontSize=14;" parent="1" vertex="1">
          <mxGeometry x="390" y="920" width="120" height="322" as="geometry" />
        </mxCell>
        <mxCell id="V_gkVdRqn64rdCY9KK4O-154" value="Praça da Tristeza" style="text;strokeColor=none;fillColor=none;spacingLeft=4;spacingRight=4;overflow=hidden;rotatable=0;points=[[0,0.5],[1,0.5]];portConstraint=eastwest;fontSize=12;whiteSpace=wrap;html=1;" parent="V_gkVdRqn64rdCY9KK4O-153" vertex="1">
          <mxGeometry y="26" width="120" height="30" as="geometry" />
        </mxCell>
        <mxCell id="V_gkVdRqn64rdCY9KK4O-155" value="Rua dos doces" style="text;strokeColor=none;fillColor=none;spacingLeft=4;spacingRight=4;overflow=hidden;rotatable=0;points=[[0,0.5],[1,0.5]];portConstraint=eastwest;fontSize=12;whiteSpace=wrap;html=1;" parent="V_gkVdRqn64rdCY9KK4O-153" vertex="1">
          <mxGeometry y="56" width="120" height="26" as="geometry" />
        </mxCell>
        <mxCell id="V_gkVdRqn64rdCY9KK4O-156" value="Rua&amp;nbsp; das festas" style="text;strokeColor=none;fillColor=none;spacingLeft=4;spacingRight=4;overflow=hidden;rotatable=0;points=[[0,0.5],[1,0.5]];portConstraint=eastwest;fontSize=12;whiteSpace=wrap;html=1;" parent="V_gkVdRqn64rdCY9KK4O-153" vertex="1">
          <mxGeometry y="82" width="120" height="30" as="geometry" />
        </mxCell>
        <mxCell id="V_gkVdRqn64rdCY9KK4O-157" value="Praça da Alegria" style="text;strokeColor=none;fillColor=none;spacingLeft=4;spacingRight=4;overflow=hidden;rotatable=0;points=[[0,0.5],[1,0.5]];portConstraint=eastwest;fontSize=12;whiteSpace=wrap;html=1;" parent="V_gkVdRqn64rdCY9KK4O-153" vertex="1">
          <mxGeometry y="112" width="120" height="30" as="geometry" />
        </mxCell>
        <mxCell id="V_gkVdRqn64rdCY9KK4O-158" value="Rua Da Diverção" style="text;strokeColor=none;fillColor=none;spacingLeft=4;spacingRight=4;overflow=hidden;rotatable=0;points=[[0,0.5],[1,0.5]];portConstraint=eastwest;fontSize=12;whiteSpace=wrap;html=1;" parent="V_gkVdRqn64rdCY9KK4O-153" vertex="1">
          <mxGeometry y="142" width="120" height="30" as="geometry" />
        </mxCell>
        <mxCell id="V_gkVdRqn64rdCY9KK4O-159" value="Rua Da Musica" style="text;strokeColor=none;fillColor=none;spacingLeft=4;spacingRight=4;overflow=hidden;rotatable=0;points=[[0,0.5],[1,0.5]];portConstraint=eastwest;fontSize=12;whiteSpace=wrap;html=1;" parent="V_gkVdRqn64rdCY9KK4O-153" vertex="1">
          <mxGeometry y="172" width="120" height="30" as="geometry" />
        </mxCell>
        <mxCell id="V_gkVdRqn64rdCY9KK4O-160" value="Rua Da Criatividade" style="text;strokeColor=none;fillColor=none;spacingLeft=4;spacingRight=4;overflow=hidden;rotatable=0;points=[[0,0.5],[1,0.5]];portConstraint=eastwest;fontSize=12;whiteSpace=wrap;html=1;" parent="V_gkVdRqn64rdCY9KK4O-153" vertex="1">
          <mxGeometry y="202" width="120" height="30" as="geometry" />
        </mxCell>
        <mxCell id="V_gkVdRqn64rdCY9KK4O-161" value="Rua Da Imaginação" style="text;strokeColor=none;fillColor=none;spacingLeft=4;spacingRight=4;overflow=hidden;rotatable=0;points=[[0,0.5],[1,0.5]];portConstraint=eastwest;fontSize=12;whiteSpace=wrap;html=1;" parent="V_gkVdRqn64rdCY9KK4O-153" vertex="1">
          <mxGeometry y="232" width="120" height="30" as="geometry" />
        </mxCell>
        <mxCell id="V_gkVdRqn64rdCY9KK4O-162" value="Rua dos Deuses" style="text;strokeColor=none;fillColor=none;spacingLeft=4;spacingRight=4;overflow=hidden;rotatable=0;points=[[0,0.5],[1,0.5]];portConstraint=eastwest;fontSize=12;whiteSpace=wrap;html=1;" parent="V_gkVdRqn64rdCY9KK4O-153" vertex="1">
          <mxGeometry y="262" width="120" height="30" as="geometry" />
        </mxCell>
        <mxCell id="V_gkVdRqn64rdCY9KK4O-163" value="Rua dos ricos" style="text;strokeColor=none;fillColor=none;spacingLeft=4;spacingRight=4;overflow=hidden;rotatable=0;points=[[0,0.5],[1,0.5]];portConstraint=eastwest;fontSize=12;whiteSpace=wrap;html=1;" parent="V_gkVdRqn64rdCY9KK4O-153" vertex="1">
          <mxGeometry y="292" width="120" height="30" as="geometry" />
        </mxCell>
        <mxCell id="V_gkVdRqn64rdCY9KK4O-164" value="Telefone" style="swimlane;fontStyle=0;childLayout=stackLayout;horizontal=1;startSize=26;horizontalStack=0;resizeParent=1;resizeParentMax=0;resizeLast=0;collapsible=1;marginBottom=0;align=center;fontSize=14;" parent="1" vertex="1">
          <mxGeometry x="510" y="920" width="120" height="322" as="geometry" />
        </mxCell>
        <mxCell id="V_gkVdRqn64rdCY9KK4O-165" value="123456789" style="text;strokeColor=none;fillColor=none;spacingLeft=4;spacingRight=4;overflow=hidden;rotatable=0;points=[[0,0.5],[1,0.5]];portConstraint=eastwest;fontSize=12;whiteSpace=wrap;html=1;" parent="V_gkVdRqn64rdCY9KK4O-164" vertex="1">
          <mxGeometry y="26" width="120" height="30" as="geometry" />
        </mxCell>
        <mxCell id="V_gkVdRqn64rdCY9KK4O-166" value="234567891" style="text;strokeColor=none;fillColor=none;spacingLeft=4;spacingRight=4;overflow=hidden;rotatable=0;points=[[0,0.5],[1,0.5]];portConstraint=eastwest;fontSize=12;whiteSpace=wrap;html=1;" parent="V_gkVdRqn64rdCY9KK4O-164" vertex="1">
          <mxGeometry y="56" width="120" height="26" as="geometry" />
        </mxCell>
        <mxCell id="V_gkVdRqn64rdCY9KK4O-167" value="345678912" style="text;strokeColor=none;fillColor=none;spacingLeft=4;spacingRight=4;overflow=hidden;rotatable=0;points=[[0,0.5],[1,0.5]];portConstraint=eastwest;fontSize=12;whiteSpace=wrap;html=1;" parent="V_gkVdRqn64rdCY9KK4O-164" vertex="1">
          <mxGeometry y="82" width="120" height="30" as="geometry" />
        </mxCell>
        <mxCell id="V_gkVdRqn64rdCY9KK4O-168" value="456789123" style="text;strokeColor=none;fillColor=none;spacingLeft=4;spacingRight=4;overflow=hidden;rotatable=0;points=[[0,0.5],[1,0.5]];portConstraint=eastwest;fontSize=12;whiteSpace=wrap;html=1;" parent="V_gkVdRqn64rdCY9KK4O-164" vertex="1">
          <mxGeometry y="112" width="120" height="30" as="geometry" />
        </mxCell>
        <mxCell id="V_gkVdRqn64rdCY9KK4O-169" value="567891234" style="text;strokeColor=none;fillColor=none;spacingLeft=4;spacingRight=4;overflow=hidden;rotatable=0;points=[[0,0.5],[1,0.5]];portConstraint=eastwest;fontSize=12;whiteSpace=wrap;html=1;" parent="V_gkVdRqn64rdCY9KK4O-164" vertex="1">
          <mxGeometry y="142" width="120" height="30" as="geometry" />
        </mxCell>
        <mxCell id="V_gkVdRqn64rdCY9KK4O-170" value="111222333" style="text;strokeColor=none;fillColor=none;spacingLeft=4;spacingRight=4;overflow=hidden;rotatable=0;points=[[0,0.5],[1,0.5]];portConstraint=eastwest;fontSize=12;whiteSpace=wrap;html=1;" parent="V_gkVdRqn64rdCY9KK4O-164" vertex="1">
          <mxGeometry y="172" width="120" height="30" as="geometry" />
        </mxCell>
        <mxCell id="V_gkVdRqn64rdCY9KK4O-171" value="965148965" style="text;strokeColor=none;fillColor=none;spacingLeft=4;spacingRight=4;overflow=hidden;rotatable=0;points=[[0,0.5],[1,0.5]];portConstraint=eastwest;fontSize=12;whiteSpace=wrap;html=1;" parent="V_gkVdRqn64rdCY9KK4O-164" vertex="1">
          <mxGeometry y="202" width="120" height="30" as="geometry" />
        </mxCell>
        <mxCell id="V_gkVdRqn64rdCY9KK4O-172" value="935288280" style="text;strokeColor=none;fillColor=none;spacingLeft=4;spacingRight=4;overflow=hidden;rotatable=0;points=[[0,0.5],[1,0.5]];portConstraint=eastwest;fontSize=12;whiteSpace=wrap;html=1;" parent="V_gkVdRqn64rdCY9KK4O-164" vertex="1">
          <mxGeometry y="232" width="120" height="30" as="geometry" />
        </mxCell>
        <mxCell id="V_gkVdRqn64rdCY9KK4O-173" value="778532114" style="text;strokeColor=none;fillColor=none;spacingLeft=4;spacingRight=4;overflow=hidden;rotatable=0;points=[[0,0.5],[1,0.5]];portConstraint=eastwest;fontSize=12;whiteSpace=wrap;html=1;" parent="V_gkVdRqn64rdCY9KK4O-164" vertex="1">
          <mxGeometry y="262" width="120" height="30" as="geometry" />
        </mxCell>
        <mxCell id="V_gkVdRqn64rdCY9KK4O-174" value="136661321" style="text;strokeColor=none;fillColor=none;spacingLeft=4;spacingRight=4;overflow=hidden;rotatable=0;points=[[0,0.5],[1,0.5]];portConstraint=eastwest;fontSize=12;whiteSpace=wrap;html=1;" parent="V_gkVdRqn64rdCY9KK4O-164" vertex="1">
          <mxGeometry y="292" width="120" height="30" as="geometry" />
        </mxCell>
        <mxCell id="V_gkVdRqn64rdCY9KK4O-175" value="Email" style="swimlane;fontStyle=0;childLayout=stackLayout;horizontal=1;startSize=26;horizontalStack=0;resizeParent=1;resizeParentMax=0;resizeLast=0;collapsible=1;marginBottom=0;align=center;fontSize=14;" parent="1" vertex="1">
          <mxGeometry x="630" y="920" width="180" height="322" as="geometry" />
        </mxCell>
        <mxCell id="V_gkVdRqn64rdCY9KK4O-176" value="Roberto.Helder@gmail.com" style="text;strokeColor=none;fillColor=none;spacingLeft=4;spacingRight=4;overflow=hidden;rotatable=0;points=[[0,0.5],[1,0.5]];portConstraint=eastwest;fontSize=12;whiteSpace=wrap;html=1;" parent="V_gkVdRqn64rdCY9KK4O-175" vertex="1">
          <mxGeometry y="26" width="180" height="30" as="geometry" />
        </mxCell>
        <mxCell id="V_gkVdRqn64rdCY9KK4O-177" value="Irineu-Velez@hotmail.com" style="text;strokeColor=none;fillColor=none;spacingLeft=4;spacingRight=4;overflow=hidden;rotatable=0;points=[[0,0.5],[1,0.5]];portConstraint=eastwest;fontSize=12;whiteSpace=wrap;html=1;" parent="V_gkVdRqn64rdCY9KK4O-175" vertex="1">
          <mxGeometry y="56" width="180" height="26" as="geometry" />
        </mxCell>
        <mxCell id="V_gkVdRqn64rdCY9KK4O-178" value="Digo.Amador@gmail.com" style="text;strokeColor=none;fillColor=none;spacingLeft=4;spacingRight=4;overflow=hidden;rotatable=0;points=[[0,0.5],[1,0.5]];portConstraint=eastwest;fontSize=12;whiteSpace=wrap;html=1;" parent="V_gkVdRqn64rdCY9KK4O-175" vertex="1">
          <mxGeometry y="82" width="180" height="30" as="geometry" />
        </mxCell>
        <mxCell id="V_gkVdRqn64rdCY9KK4O-179" value="Ruiii.Tectec@gmail.com" style="text;strokeColor=none;fillColor=none;spacingLeft=4;spacingRight=4;overflow=hidden;rotatable=0;points=[[0,0.5],[1,0.5]];portConstraint=eastwest;fontSize=12;whiteSpace=wrap;html=1;" parent="V_gkVdRqn64rdCY9KK4O-175" vertex="1">
          <mxGeometry y="112" width="180" height="30" as="geometry" />
        </mxCell>
        <mxCell id="V_gkVdRqn64rdCY9KK4O-180" value="Grao.Gonçalo@hotmail.com" style="text;strokeColor=none;fillColor=none;spacingLeft=4;spacingRight=4;overflow=hidden;rotatable=0;points=[[0,0.5],[1,0.5]];portConstraint=eastwest;fontSize=12;whiteSpace=wrap;html=1;" parent="V_gkVdRqn64rdCY9KK4O-175" vertex="1">
          <mxGeometry y="142" width="180" height="30" as="geometry" />
        </mxCell>
        <mxCell id="V_gkVdRqn64rdCY9KK4O-181" value="Roberta.mariia@gmail.com" style="text;strokeColor=none;fillColor=none;spacingLeft=4;spacingRight=4;overflow=hidden;rotatable=0;points=[[0,0.5],[1,0.5]];portConstraint=eastwest;fontSize=12;whiteSpace=wrap;html=1;" parent="V_gkVdRqn64rdCY9KK4O-175" vertex="1">
          <mxGeometry y="172" width="180" height="30" as="geometry" />
        </mxCell>
        <mxCell id="V_gkVdRqn64rdCY9KK4O-182" value="Gonçales.Anna31@gmail.com" style="text;strokeColor=none;fillColor=none;spacingLeft=4;spacingRight=4;overflow=hidden;rotatable=0;points=[[0,0.5],[1,0.5]];portConstraint=eastwest;fontSize=12;whiteSpace=wrap;html=1;" parent="V_gkVdRqn64rdCY9KK4O-175" vertex="1">
          <mxGeometry y="202" width="180" height="30" as="geometry" />
        </mxCell>
        <mxCell id="V_gkVdRqn64rdCY9KK4O-183" value="Sofia312.Leonor@hotmail.com" style="text;strokeColor=none;fillColor=none;spacingLeft=4;spacingRight=4;overflow=hidden;rotatable=0;points=[[0,0.5],[1,0.5]];portConstraint=eastwest;fontSize=12;whiteSpace=wrap;html=1;" parent="V_gkVdRqn64rdCY9KK4O-175" vertex="1">
          <mxGeometry y="232" width="180" height="30" as="geometry" />
        </mxCell>
        <mxCell id="V_gkVdRqn64rdCY9KK4O-184" value="Abrantes-Sofia18@gmail.com" style="text;strokeColor=none;fillColor=none;spacingLeft=4;spacingRight=4;overflow=hidden;rotatable=0;points=[[0,0.5],[1,0.5]];portConstraint=eastwest;fontSize=12;whiteSpace=wrap;html=1;" parent="V_gkVdRqn64rdCY9KK4O-175" vertex="1">
          <mxGeometry y="262" width="180" height="30" as="geometry" />
        </mxCell>
        <mxCell id="V_gkVdRqn64rdCY9KK4O-185" value="Maria.Rosa98@hotmail.com" style="text;strokeColor=none;fillColor=none;spacingLeft=4;spacingRight=4;overflow=hidden;rotatable=0;points=[[0,0.5],[1,0.5]];portConstraint=eastwest;fontSize=12;whiteSpace=wrap;html=1;" parent="V_gkVdRqn64rdCY9KK4O-175" vertex="1">
          <mxGeometry y="292" width="180" height="30" as="geometry" />
        </mxCell>
        <mxCell id="V_gkVdRqn64rdCY9KK4O-186" value="Cliente-id" style="swimlane;fontStyle=0;childLayout=stackLayout;horizontal=1;startSize=26;horizontalStack=0;resizeParent=1;resizeParentMax=0;resizeLast=0;collapsible=1;marginBottom=0;align=center;fontSize=14;" parent="1" vertex="1">
          <mxGeometry x="150" y="1270" width="120" height="322" as="geometry" />
        </mxCell>
        <mxCell id="V_gkVdRqn64rdCY9KK4O-187" value="1" style="text;strokeColor=none;fillColor=none;spacingLeft=4;spacingRight=4;overflow=hidden;rotatable=0;points=[[0,0.5],[1,0.5]];portConstraint=eastwest;fontSize=12;whiteSpace=wrap;html=1;" parent="V_gkVdRqn64rdCY9KK4O-186" vertex="1">
          <mxGeometry y="26" width="120" height="30" as="geometry" />
        </mxCell>
        <mxCell id="V_gkVdRqn64rdCY9KK4O-188" value="2" style="text;strokeColor=none;fillColor=none;spacingLeft=4;spacingRight=4;overflow=hidden;rotatable=0;points=[[0,0.5],[1,0.5]];portConstraint=eastwest;fontSize=12;whiteSpace=wrap;html=1;" parent="V_gkVdRqn64rdCY9KK4O-186" vertex="1">
          <mxGeometry y="56" width="120" height="26" as="geometry" />
        </mxCell>
        <mxCell id="V_gkVdRqn64rdCY9KK4O-189" value="3" style="text;strokeColor=none;fillColor=none;spacingLeft=4;spacingRight=4;overflow=hidden;rotatable=0;points=[[0,0.5],[1,0.5]];portConstraint=eastwest;fontSize=12;whiteSpace=wrap;html=1;" parent="V_gkVdRqn64rdCY9KK4O-186" vertex="1">
          <mxGeometry y="82" width="120" height="30" as="geometry" />
        </mxCell>
        <mxCell id="V_gkVdRqn64rdCY9KK4O-190" value="4" style="text;strokeColor=none;fillColor=none;spacingLeft=4;spacingRight=4;overflow=hidden;rotatable=0;points=[[0,0.5],[1,0.5]];portConstraint=eastwest;fontSize=12;whiteSpace=wrap;html=1;" parent="V_gkVdRqn64rdCY9KK4O-186" vertex="1">
          <mxGeometry y="112" width="120" height="30" as="geometry" />
        </mxCell>
        <mxCell id="V_gkVdRqn64rdCY9KK4O-191" value="5" style="text;strokeColor=none;fillColor=none;spacingLeft=4;spacingRight=4;overflow=hidden;rotatable=0;points=[[0,0.5],[1,0.5]];portConstraint=eastwest;fontSize=12;whiteSpace=wrap;html=1;" parent="V_gkVdRqn64rdCY9KK4O-186" vertex="1">
          <mxGeometry y="142" width="120" height="30" as="geometry" />
        </mxCell>
        <mxCell id="V_gkVdRqn64rdCY9KK4O-192" value="6" style="text;strokeColor=none;fillColor=none;spacingLeft=4;spacingRight=4;overflow=hidden;rotatable=0;points=[[0,0.5],[1,0.5]];portConstraint=eastwest;fontSize=12;whiteSpace=wrap;html=1;" parent="V_gkVdRqn64rdCY9KK4O-186" vertex="1">
          <mxGeometry y="172" width="120" height="30" as="geometry" />
        </mxCell>
        <mxCell id="V_gkVdRqn64rdCY9KK4O-193" value="7" style="text;strokeColor=none;fillColor=none;spacingLeft=4;spacingRight=4;overflow=hidden;rotatable=0;points=[[0,0.5],[1,0.5]];portConstraint=eastwest;fontSize=12;whiteSpace=wrap;html=1;" parent="V_gkVdRqn64rdCY9KK4O-186" vertex="1">
          <mxGeometry y="202" width="120" height="30" as="geometry" />
        </mxCell>
        <mxCell id="V_gkVdRqn64rdCY9KK4O-194" value="8" style="text;strokeColor=none;fillColor=none;spacingLeft=4;spacingRight=4;overflow=hidden;rotatable=0;points=[[0,0.5],[1,0.5]];portConstraint=eastwest;fontSize=12;whiteSpace=wrap;html=1;" parent="V_gkVdRqn64rdCY9KK4O-186" vertex="1">
          <mxGeometry y="232" width="120" height="30" as="geometry" />
        </mxCell>
        <mxCell id="V_gkVdRqn64rdCY9KK4O-195" value="9" style="text;strokeColor=none;fillColor=none;spacingLeft=4;spacingRight=4;overflow=hidden;rotatable=0;points=[[0,0.5],[1,0.5]];portConstraint=eastwest;fontSize=12;whiteSpace=wrap;html=1;" parent="V_gkVdRqn64rdCY9KK4O-186" vertex="1">
          <mxGeometry y="262" width="120" height="30" as="geometry" />
        </mxCell>
        <mxCell id="V_gkVdRqn64rdCY9KK4O-196" value="10" style="text;strokeColor=none;fillColor=none;spacingLeft=4;spacingRight=4;overflow=hidden;rotatable=0;points=[[0,0.5],[1,0.5]];portConstraint=eastwest;fontSize=12;whiteSpace=wrap;html=1;" parent="V_gkVdRqn64rdCY9KK4O-186" vertex="1">
          <mxGeometry y="292" width="120" height="30" as="geometry" />
        </mxCell>
        <mxCell id="V_gkVdRqn64rdCY9KK4O-197" value="Nome" style="swimlane;fontStyle=0;childLayout=stackLayout;horizontal=1;startSize=26;horizontalStack=0;resizeParent=1;resizeParentMax=0;resizeLast=0;collapsible=1;marginBottom=0;align=center;fontSize=14;" parent="1" vertex="1">
          <mxGeometry x="270" y="1270" width="120" height="322" as="geometry" />
        </mxCell>
        <mxCell id="V_gkVdRqn64rdCY9KK4O-198" value="Almeida" style="text;strokeColor=none;fillColor=none;spacingLeft=4;spacingRight=4;overflow=hidden;rotatable=0;points=[[0,0.5],[1,0.5]];portConstraint=eastwest;fontSize=12;whiteSpace=wrap;html=1;" parent="V_gkVdRqn64rdCY9KK4O-197" vertex="1">
          <mxGeometry y="26" width="120" height="30" as="geometry" />
        </mxCell>
        <mxCell id="V_gkVdRqn64rdCY9KK4O-199" value="Gutto" style="text;strokeColor=none;fillColor=none;spacingLeft=4;spacingRight=4;overflow=hidden;rotatable=0;points=[[0,0.5],[1,0.5]];portConstraint=eastwest;fontSize=12;whiteSpace=wrap;html=1;" parent="V_gkVdRqn64rdCY9KK4O-197" vertex="1">
          <mxGeometry y="56" width="120" height="26" as="geometry" />
        </mxCell>
        <mxCell id="V_gkVdRqn64rdCY9KK4O-200" value="Bernardo" style="text;strokeColor=none;fillColor=none;spacingLeft=4;spacingRight=4;overflow=hidden;rotatable=0;points=[[0,0.5],[1,0.5]];portConstraint=eastwest;fontSize=12;whiteSpace=wrap;html=1;" parent="V_gkVdRqn64rdCY9KK4O-197" vertex="1">
          <mxGeometry y="82" width="120" height="30" as="geometry" />
        </mxCell>
        <mxCell id="V_gkVdRqn64rdCY9KK4O-201" value="Maria" style="text;strokeColor=none;fillColor=none;spacingLeft=4;spacingRight=4;overflow=hidden;rotatable=0;points=[[0,0.5],[1,0.5]];portConstraint=eastwest;fontSize=12;whiteSpace=wrap;html=1;" parent="V_gkVdRqn64rdCY9KK4O-197" vertex="1">
          <mxGeometry y="112" width="120" height="30" as="geometry" />
        </mxCell>
        <mxCell id="V_gkVdRqn64rdCY9KK4O-202" value="Destroyer" style="text;strokeColor=none;fillColor=none;spacingLeft=4;spacingRight=4;overflow=hidden;rotatable=0;points=[[0,0.5],[1,0.5]];portConstraint=eastwest;fontSize=12;whiteSpace=wrap;html=1;" parent="V_gkVdRqn64rdCY9KK4O-197" vertex="1">
          <mxGeometry y="142" width="120" height="30" as="geometry" />
        </mxCell>
        <mxCell id="V_gkVdRqn64rdCY9KK4O-203" value="Rosete" style="text;strokeColor=none;fillColor=none;spacingLeft=4;spacingRight=4;overflow=hidden;rotatable=0;points=[[0,0.5],[1,0.5]];portConstraint=eastwest;fontSize=12;whiteSpace=wrap;html=1;" parent="V_gkVdRqn64rdCY9KK4O-197" vertex="1">
          <mxGeometry y="172" width="120" height="30" as="geometry" />
        </mxCell>
        <mxCell id="V_gkVdRqn64rdCY9KK4O-204" value="Ânia" style="text;strokeColor=none;fillColor=none;spacingLeft=4;spacingRight=4;overflow=hidden;rotatable=0;points=[[0,0.5],[1,0.5]];portConstraint=eastwest;fontSize=12;whiteSpace=wrap;html=1;" parent="V_gkVdRqn64rdCY9KK4O-197" vertex="1">
          <mxGeometry y="202" width="120" height="30" as="geometry" />
        </mxCell>
        <mxCell id="V_gkVdRqn64rdCY9KK4O-205" value="Tristezete" style="text;strokeColor=none;fillColor=none;spacingLeft=4;spacingRight=4;overflow=hidden;rotatable=0;points=[[0,0.5],[1,0.5]];portConstraint=eastwest;fontSize=12;whiteSpace=wrap;html=1;" parent="V_gkVdRqn64rdCY9KK4O-197" vertex="1">
          <mxGeometry y="232" width="120" height="30" as="geometry" />
        </mxCell>
        <mxCell id="V_gkVdRqn64rdCY9KK4O-206" value="Karol" style="text;strokeColor=none;fillColor=none;spacingLeft=4;spacingRight=4;overflow=hidden;rotatable=0;points=[[0,0.5],[1,0.5]];portConstraint=eastwest;fontSize=12;whiteSpace=wrap;html=1;" parent="V_gkVdRqn64rdCY9KK4O-197" vertex="1">
          <mxGeometry y="262" width="120" height="30" as="geometry" />
        </mxCell>
        <mxCell id="V_gkVdRqn64rdCY9KK4O-207" value="André" style="text;strokeColor=none;fillColor=none;spacingLeft=4;spacingRight=4;overflow=hidden;rotatable=0;points=[[0,0.5],[1,0.5]];portConstraint=eastwest;fontSize=12;whiteSpace=wrap;html=1;" parent="V_gkVdRqn64rdCY9KK4O-197" vertex="1">
          <mxGeometry y="292" width="120" height="30" as="geometry" />
        </mxCell>
        <mxCell id="V_gkVdRqn64rdCY9KK4O-208" value="Morada" style="swimlane;fontStyle=0;childLayout=stackLayout;horizontal=1;startSize=26;horizontalStack=0;resizeParent=1;resizeParentMax=0;resizeLast=0;collapsible=1;marginBottom=0;align=center;fontSize=14;" parent="1" vertex="1">
          <mxGeometry x="390" y="1270" width="120" height="320" as="geometry" />
        </mxCell>
        <mxCell id="V_gkVdRqn64rdCY9KK4O-209" value="Rua dos solteiros" style="text;strokeColor=none;fillColor=none;spacingLeft=4;spacingRight=4;overflow=hidden;rotatable=0;points=[[0,0.5],[1,0.5]];portConstraint=eastwest;fontSize=12;whiteSpace=wrap;html=1;" parent="V_gkVdRqn64rdCY9KK4O-208" vertex="1">
          <mxGeometry y="26" width="120" height="30" as="geometry" />
        </mxCell>
        <mxCell id="V_gkVdRqn64rdCY9KK4O-210" value="Rua da riqueza" style="text;strokeColor=none;fillColor=none;spacingLeft=4;spacingRight=4;overflow=hidden;rotatable=0;points=[[0,0.5],[1,0.5]];portConstraint=eastwest;fontSize=12;whiteSpace=wrap;html=1;" parent="V_gkVdRqn64rdCY9KK4O-208" vertex="1">
          <mxGeometry y="56" width="120" height="26" as="geometry" />
        </mxCell>
        <mxCell id="V_gkVdRqn64rdCY9KK4O-211" value="Praça do comercio" style="text;strokeColor=none;fillColor=none;spacingLeft=4;spacingRight=4;overflow=hidden;rotatable=0;points=[[0,0.5],[1,0.5]];portConstraint=eastwest;fontSize=12;whiteSpace=wrap;html=1;" parent="V_gkVdRqn64rdCY9KK4O-208" vertex="1">
          <mxGeometry y="82" width="120" height="30" as="geometry" />
        </mxCell>
        <mxCell id="V_gkVdRqn64rdCY9KK4O-212" value="Rua de D. Gutto" style="text;strokeColor=none;fillColor=none;spacingLeft=4;spacingRight=4;overflow=hidden;rotatable=0;points=[[0,0.5],[1,0.5]];portConstraint=eastwest;fontSize=12;whiteSpace=wrap;html=1;" parent="V_gkVdRqn64rdCY9KK4O-208" vertex="1">
          <mxGeometry y="112" width="120" height="30" as="geometry" />
        </mxCell>
        <mxCell id="V_gkVdRqn64rdCY9KK4O-213" value="Rua da destruiçao" style="text;strokeColor=none;fillColor=none;spacingLeft=4;spacingRight=4;overflow=hidden;rotatable=0;points=[[0,0.5],[1,0.5]];portConstraint=eastwest;fontSize=12;whiteSpace=wrap;html=1;" parent="V_gkVdRqn64rdCY9KK4O-208" vertex="1">
          <mxGeometry y="142" width="120" height="30" as="geometry" />
        </mxCell>
        <mxCell id="V_gkVdRqn64rdCY9KK4O-214" value="Rua das Rosas" style="text;strokeColor=none;fillColor=none;spacingLeft=4;spacingRight=4;overflow=hidden;rotatable=0;points=[[0,0.5],[1,0.5]];portConstraint=eastwest;fontSize=12;whiteSpace=wrap;html=1;" parent="V_gkVdRqn64rdCY9KK4O-208" vertex="1">
          <mxGeometry y="172" width="120" height="30" as="geometry" />
        </mxCell>
        <mxCell id="V_gkVdRqn64rdCY9KK4O-215" value="Rua da Beleza" style="text;strokeColor=none;fillColor=none;spacingLeft=4;spacingRight=4;overflow=hidden;rotatable=0;points=[[0,0.5],[1,0.5]];portConstraint=eastwest;fontSize=12;whiteSpace=wrap;html=1;" parent="V_gkVdRqn64rdCY9KK4O-208" vertex="1">
          <mxGeometry y="202" width="120" height="30" as="geometry" />
        </mxCell>
        <mxCell id="V_gkVdRqn64rdCY9KK4O-216" value="Rua da Tristeza" style="text;strokeColor=none;fillColor=none;spacingLeft=4;spacingRight=4;overflow=hidden;rotatable=0;points=[[0,0.5],[1,0.5]];portConstraint=eastwest;fontSize=12;whiteSpace=wrap;html=1;" parent="V_gkVdRqn64rdCY9KK4O-208" vertex="1">
          <mxGeometry y="232" width="120" height="28" as="geometry" />
        </mxCell>
        <mxCell id="V_gkVdRqn64rdCY9KK4O-217" value="Rua dos Deuses" style="text;strokeColor=none;fillColor=none;spacingLeft=4;spacingRight=4;overflow=hidden;rotatable=0;points=[[0,0.5],[1,0.5]];portConstraint=eastwest;fontSize=12;whiteSpace=wrap;html=1;" parent="V_gkVdRqn64rdCY9KK4O-208" vertex="1">
          <mxGeometry y="260" width="120" height="30" as="geometry" />
        </mxCell>
        <mxCell id="V_gkVdRqn64rdCY9KK4O-218" value="Praça da solidao" style="text;strokeColor=none;fillColor=none;spacingLeft=4;spacingRight=4;overflow=hidden;rotatable=0;points=[[0,0.5],[1,0.5]];portConstraint=eastwest;fontSize=12;whiteSpace=wrap;html=1;" parent="V_gkVdRqn64rdCY9KK4O-208" vertex="1">
          <mxGeometry y="290" width="120" height="30" as="geometry" />
        </mxCell>
        <mxCell id="V_gkVdRqn64rdCY9KK4O-219" value="Telefone" style="swimlane;fontStyle=0;childLayout=stackLayout;horizontal=1;startSize=26;horizontalStack=0;resizeParent=1;resizeParentMax=0;resizeLast=0;collapsible=1;marginBottom=0;align=center;fontSize=14;" parent="1" vertex="1">
          <mxGeometry x="510" y="1270" width="120" height="322" as="geometry" />
        </mxCell>
        <mxCell id="V_gkVdRqn64rdCY9KK4O-220" value="541987236" style="text;strokeColor=none;fillColor=none;spacingLeft=4;spacingRight=4;overflow=hidden;rotatable=0;points=[[0,0.5],[1,0.5]];portConstraint=eastwest;fontSize=12;whiteSpace=wrap;html=1;" parent="V_gkVdRqn64rdCY9KK4O-219" vertex="1">
          <mxGeometry y="26" width="120" height="30" as="geometry" />
        </mxCell>
        <mxCell id="V_gkVdRqn64rdCY9KK4O-221" value="147258369" style="text;strokeColor=none;fillColor=none;spacingLeft=4;spacingRight=4;overflow=hidden;rotatable=0;points=[[0,0.5],[1,0.5]];portConstraint=eastwest;fontSize=12;whiteSpace=wrap;html=1;" parent="V_gkVdRqn64rdCY9KK4O-219" vertex="1">
          <mxGeometry y="56" width="120" height="26" as="geometry" />
        </mxCell>
        <mxCell id="V_gkVdRqn64rdCY9KK4O-222" value="986753421" style="text;strokeColor=none;fillColor=none;spacingLeft=4;spacingRight=4;overflow=hidden;rotatable=0;points=[[0,0.5],[1,0.5]];portConstraint=eastwest;fontSize=12;whiteSpace=wrap;html=1;" parent="V_gkVdRqn64rdCY9KK4O-219" vertex="1">
          <mxGeometry y="82" width="120" height="30" as="geometry" />
        </mxCell>
        <mxCell id="V_gkVdRqn64rdCY9KK4O-223" value="145236789" style="text;strokeColor=none;fillColor=none;spacingLeft=4;spacingRight=4;overflow=hidden;rotatable=0;points=[[0,0.5],[1,0.5]];portConstraint=eastwest;fontSize=12;whiteSpace=wrap;html=1;" parent="V_gkVdRqn64rdCY9KK4O-219" vertex="1">
          <mxGeometry y="112" width="120" height="30" as="geometry" />
        </mxCell>
        <mxCell id="V_gkVdRqn64rdCY9KK4O-224" value="753198426" style="text;strokeColor=none;fillColor=none;spacingLeft=4;spacingRight=4;overflow=hidden;rotatable=0;points=[[0,0.5],[1,0.5]];portConstraint=eastwest;fontSize=12;whiteSpace=wrap;html=1;" parent="V_gkVdRqn64rdCY9KK4O-219" vertex="1">
          <mxGeometry y="142" width="120" height="30" as="geometry" />
        </mxCell>
        <mxCell id="V_gkVdRqn64rdCY9KK4O-225" value="778899445" style="text;strokeColor=none;fillColor=none;spacingLeft=4;spacingRight=4;overflow=hidden;rotatable=0;points=[[0,0.5],[1,0.5]];portConstraint=eastwest;fontSize=12;whiteSpace=wrap;html=1;" parent="V_gkVdRqn64rdCY9KK4O-219" vertex="1">
          <mxGeometry y="172" width="120" height="30" as="geometry" />
        </mxCell>
        <mxCell id="V_gkVdRqn64rdCY9KK4O-226" value="566112233" style="text;strokeColor=none;fillColor=none;spacingLeft=4;spacingRight=4;overflow=hidden;rotatable=0;points=[[0,0.5],[1,0.5]];portConstraint=eastwest;fontSize=12;whiteSpace=wrap;html=1;" parent="V_gkVdRqn64rdCY9KK4O-219" vertex="1">
          <mxGeometry y="202" width="120" height="30" as="geometry" />
        </mxCell>
        <mxCell id="V_gkVdRqn64rdCY9KK4O-227" value="145214521" style="text;strokeColor=none;fillColor=none;spacingLeft=4;spacingRight=4;overflow=hidden;rotatable=0;points=[[0,0.5],[1,0.5]];portConstraint=eastwest;fontSize=12;whiteSpace=wrap;html=1;" parent="V_gkVdRqn64rdCY9KK4O-219" vertex="1">
          <mxGeometry y="232" width="120" height="30" as="geometry" />
        </mxCell>
        <mxCell id="V_gkVdRqn64rdCY9KK4O-228" value="789789789" style="text;strokeColor=none;fillColor=none;spacingLeft=4;spacingRight=4;overflow=hidden;rotatable=0;points=[[0,0.5],[1,0.5]];portConstraint=eastwest;fontSize=12;whiteSpace=wrap;html=1;" parent="V_gkVdRqn64rdCY9KK4O-219" vertex="1">
          <mxGeometry y="262" width="120" height="30" as="geometry" />
        </mxCell>
        <mxCell id="V_gkVdRqn64rdCY9KK4O-229" value="745745745" style="text;strokeColor=none;fillColor=none;spacingLeft=4;spacingRight=4;overflow=hidden;rotatable=0;points=[[0,0.5],[1,0.5]];portConstraint=eastwest;fontSize=12;whiteSpace=wrap;html=1;" parent="V_gkVdRqn64rdCY9KK4O-219" vertex="1">
          <mxGeometry y="292" width="120" height="30" as="geometry" />
        </mxCell>
        <mxCell id="V_gkVdRqn64rdCY9KK4O-230" value="Email" style="swimlane;fontStyle=0;childLayout=stackLayout;horizontal=1;startSize=26;horizontalStack=0;resizeParent=1;resizeParentMax=0;resizeLast=0;collapsible=1;marginBottom=0;align=center;fontSize=14;" parent="1" vertex="1">
          <mxGeometry x="630" y="1270" width="190" height="322" as="geometry" />
        </mxCell>
        <mxCell id="V_gkVdRqn64rdCY9KK4O-231" value="Almeidinha@gmail.com" style="text;strokeColor=none;fillColor=none;spacingLeft=4;spacingRight=4;overflow=hidden;rotatable=0;points=[[0,0.5],[1,0.5]];portConstraint=eastwest;fontSize=12;whiteSpace=wrap;html=1;" parent="V_gkVdRqn64rdCY9KK4O-230" vertex="1">
          <mxGeometry y="26" width="190" height="30" as="geometry" />
        </mxCell>
        <mxCell id="V_gkVdRqn64rdCY9KK4O-232" value="GuttojssTFG@hotmail.com" style="text;strokeColor=none;fillColor=none;spacingLeft=4;spacingRight=4;overflow=hidden;rotatable=0;points=[[0,0.5],[1,0.5]];portConstraint=eastwest;fontSize=12;whiteSpace=wrap;html=1;" parent="V_gkVdRqn64rdCY9KK4O-230" vertex="1">
          <mxGeometry y="56" width="190" height="26" as="geometry" />
        </mxCell>
        <mxCell id="V_gkVdRqn64rdCY9KK4O-233" value="Bernas.rico@gmail.com" style="text;strokeColor=none;fillColor=none;spacingLeft=4;spacingRight=4;overflow=hidden;rotatable=0;points=[[0,0.5],[1,0.5]];portConstraint=eastwest;fontSize=12;whiteSpace=wrap;html=1;" parent="V_gkVdRqn64rdCY9KK4O-230" vertex="1">
          <mxGeometry y="82" width="190" height="30" as="geometry" />
        </mxCell>
        <mxCell id="V_gkVdRqn64rdCY9KK4O-234" value="Mariii20@gmail.com" style="text;strokeColor=none;fillColor=none;spacingLeft=4;spacingRight=4;overflow=hidden;rotatable=0;points=[[0,0.5],[1,0.5]];portConstraint=eastwest;fontSize=12;whiteSpace=wrap;html=1;" parent="V_gkVdRqn64rdCY9KK4O-230" vertex="1">
          <mxGeometry y="112" width="190" height="30" as="geometry" />
        </mxCell>
        <mxCell id="V_gkVdRqn64rdCY9KK4O-235" value="World.Destroyer@hotmail.com" style="text;strokeColor=none;fillColor=none;spacingLeft=4;spacingRight=4;overflow=hidden;rotatable=0;points=[[0,0.5],[1,0.5]];portConstraint=eastwest;fontSize=12;whiteSpace=wrap;html=1;" parent="V_gkVdRqn64rdCY9KK4O-230" vertex="1">
          <mxGeometry y="142" width="190" height="30" as="geometry" />
        </mxCell>
        <mxCell id="V_gkVdRqn64rdCY9KK4O-236" value="Rosete.Rosa@gmail.com" style="text;strokeColor=none;fillColor=none;spacingLeft=4;spacingRight=4;overflow=hidden;rotatable=0;points=[[0,0.5],[1,0.5]];portConstraint=eastwest;fontSize=12;whiteSpace=wrap;html=1;" parent="V_gkVdRqn64rdCY9KK4O-230" vertex="1">
          <mxGeometry y="172" width="190" height="30" as="geometry" />
        </mxCell>
        <mxCell id="V_gkVdRqn64rdCY9KK4O-237" value="Miss.Ânia@gmail.com" style="text;strokeColor=none;fillColor=none;spacingLeft=4;spacingRight=4;overflow=hidden;rotatable=0;points=[[0,0.5],[1,0.5]];portConstraint=eastwest;fontSize=12;whiteSpace=wrap;html=1;" parent="V_gkVdRqn64rdCY9KK4O-230" vertex="1">
          <mxGeometry y="202" width="190" height="30" as="geometry" />
        </mxCell>
        <mxCell id="V_gkVdRqn64rdCY9KK4O-238" value="Triste34@hotmail.com" style="text;strokeColor=none;fillColor=none;spacingLeft=4;spacingRight=4;overflow=hidden;rotatable=0;points=[[0,0.5],[1,0.5]];portConstraint=eastwest;fontSize=12;whiteSpace=wrap;html=1;" parent="V_gkVdRqn64rdCY9KK4O-230" vertex="1">
          <mxGeometry y="232" width="190" height="30" as="geometry" />
        </mxCell>
        <mxCell id="V_gkVdRqn64rdCY9KK4O-239" value="Karol.fofoqueira@gmail.com" style="text;strokeColor=none;fillColor=none;spacingLeft=4;spacingRight=4;overflow=hidden;rotatable=0;points=[[0,0.5],[1,0.5]];portConstraint=eastwest;fontSize=12;whiteSpace=wrap;html=1;" parent="V_gkVdRqn64rdCY9KK4O-230" vertex="1">
          <mxGeometry y="262" width="190" height="30" as="geometry" />
        </mxCell>
        <mxCell id="V_gkVdRqn64rdCY9KK4O-240" value="André.Aventureiro@hotmail.com" style="text;strokeColor=none;fillColor=none;spacingLeft=4;spacingRight=4;overflow=hidden;rotatable=0;points=[[0,0.5],[1,0.5]];portConstraint=eastwest;fontSize=12;whiteSpace=wrap;html=1;" parent="V_gkVdRqn64rdCY9KK4O-230" vertex="1">
          <mxGeometry y="292" width="190" height="30" as="geometry" />
        </mxCell>
        <mxCell id="DJH5B1Bn1w-6sPg1LVB8-1" value="Agente-id" style="swimlane;fontStyle=0;childLayout=stackLayout;horizontal=1;startSize=26;horizontalStack=0;resizeParent=1;resizeParentMax=0;resizeLast=0;collapsible=1;marginBottom=0;align=center;fontSize=14;" parent="1" vertex="1">
          <mxGeometry x="150" y="1630" width="120" height="322" as="geometry" />
        </mxCell>
        <mxCell id="DJH5B1Bn1w-6sPg1LVB8-2" value="1" style="text;strokeColor=none;fillColor=none;spacingLeft=4;spacingRight=4;overflow=hidden;rotatable=0;points=[[0,0.5],[1,0.5]];portConstraint=eastwest;fontSize=12;whiteSpace=wrap;html=1;" parent="DJH5B1Bn1w-6sPg1LVB8-1" vertex="1">
          <mxGeometry y="26" width="120" height="30" as="geometry" />
        </mxCell>
        <mxCell id="DJH5B1Bn1w-6sPg1LVB8-3" value="2" style="text;strokeColor=none;fillColor=none;spacingLeft=4;spacingRight=4;overflow=hidden;rotatable=0;points=[[0,0.5],[1,0.5]];portConstraint=eastwest;fontSize=12;whiteSpace=wrap;html=1;" parent="DJH5B1Bn1w-6sPg1LVB8-1" vertex="1">
          <mxGeometry y="56" width="120" height="26" as="geometry" />
        </mxCell>
        <mxCell id="DJH5B1Bn1w-6sPg1LVB8-4" value="3" style="text;strokeColor=none;fillColor=none;spacingLeft=4;spacingRight=4;overflow=hidden;rotatable=0;points=[[0,0.5],[1,0.5]];portConstraint=eastwest;fontSize=12;whiteSpace=wrap;html=1;" parent="DJH5B1Bn1w-6sPg1LVB8-1" vertex="1">
          <mxGeometry y="82" width="120" height="30" as="geometry" />
        </mxCell>
        <mxCell id="DJH5B1Bn1w-6sPg1LVB8-5" value="4" style="text;strokeColor=none;fillColor=none;spacingLeft=4;spacingRight=4;overflow=hidden;rotatable=0;points=[[0,0.5],[1,0.5]];portConstraint=eastwest;fontSize=12;whiteSpace=wrap;html=1;" parent="DJH5B1Bn1w-6sPg1LVB8-1" vertex="1">
          <mxGeometry y="112" width="120" height="30" as="geometry" />
        </mxCell>
        <mxCell id="DJH5B1Bn1w-6sPg1LVB8-6" value="5" style="text;strokeColor=none;fillColor=none;spacingLeft=4;spacingRight=4;overflow=hidden;rotatable=0;points=[[0,0.5],[1,0.5]];portConstraint=eastwest;fontSize=12;whiteSpace=wrap;html=1;" parent="DJH5B1Bn1w-6sPg1LVB8-1" vertex="1">
          <mxGeometry y="142" width="120" height="30" as="geometry" />
        </mxCell>
        <mxCell id="DJH5B1Bn1w-6sPg1LVB8-7" value="6" style="text;strokeColor=none;fillColor=none;spacingLeft=4;spacingRight=4;overflow=hidden;rotatable=0;points=[[0,0.5],[1,0.5]];portConstraint=eastwest;fontSize=12;whiteSpace=wrap;html=1;" parent="DJH5B1Bn1w-6sPg1LVB8-1" vertex="1">
          <mxGeometry y="172" width="120" height="30" as="geometry" />
        </mxCell>
        <mxCell id="DJH5B1Bn1w-6sPg1LVB8-8" value="7" style="text;strokeColor=none;fillColor=none;spacingLeft=4;spacingRight=4;overflow=hidden;rotatable=0;points=[[0,0.5],[1,0.5]];portConstraint=eastwest;fontSize=12;whiteSpace=wrap;html=1;" parent="DJH5B1Bn1w-6sPg1LVB8-1" vertex="1">
          <mxGeometry y="202" width="120" height="30" as="geometry" />
        </mxCell>
        <mxCell id="DJH5B1Bn1w-6sPg1LVB8-9" value="8" style="text;strokeColor=none;fillColor=none;spacingLeft=4;spacingRight=4;overflow=hidden;rotatable=0;points=[[0,0.5],[1,0.5]];portConstraint=eastwest;fontSize=12;whiteSpace=wrap;html=1;" parent="DJH5B1Bn1w-6sPg1LVB8-1" vertex="1">
          <mxGeometry y="232" width="120" height="30" as="geometry" />
        </mxCell>
        <mxCell id="DJH5B1Bn1w-6sPg1LVB8-10" value="9" style="text;strokeColor=none;fillColor=none;spacingLeft=4;spacingRight=4;overflow=hidden;rotatable=0;points=[[0,0.5],[1,0.5]];portConstraint=eastwest;fontSize=12;whiteSpace=wrap;html=1;" parent="DJH5B1Bn1w-6sPg1LVB8-1" vertex="1">
          <mxGeometry y="262" width="120" height="30" as="geometry" />
        </mxCell>
        <mxCell id="DJH5B1Bn1w-6sPg1LVB8-11" value="10" style="text;strokeColor=none;fillColor=none;spacingLeft=4;spacingRight=4;overflow=hidden;rotatable=0;points=[[0,0.5],[1,0.5]];portConstraint=eastwest;fontSize=12;whiteSpace=wrap;html=1;" parent="DJH5B1Bn1w-6sPg1LVB8-1" vertex="1">
          <mxGeometry y="292" width="120" height="30" as="geometry" />
        </mxCell>
        <mxCell id="DJH5B1Bn1w-6sPg1LVB8-12" value="Nome" style="swimlane;fontStyle=0;childLayout=stackLayout;horizontal=1;startSize=26;horizontalStack=0;resizeParent=1;resizeParentMax=0;resizeLast=0;collapsible=1;marginBottom=0;align=center;fontSize=14;" parent="1" vertex="1">
          <mxGeometry x="270" y="1630" width="120" height="322" as="geometry" />
        </mxCell>
        <mxCell id="DJH5B1Bn1w-6sPg1LVB8-13" value="Young" style="text;strokeColor=none;fillColor=none;spacingLeft=4;spacingRight=4;overflow=hidden;rotatable=0;points=[[0,0.5],[1,0.5]];portConstraint=eastwest;fontSize=12;whiteSpace=wrap;html=1;" parent="DJH5B1Bn1w-6sPg1LVB8-12" vertex="1">
          <mxGeometry y="26" width="120" height="30" as="geometry" />
        </mxCell>
        <mxCell id="DJH5B1Bn1w-6sPg1LVB8-14" value="Huy" style="text;strokeColor=none;fillColor=none;spacingLeft=4;spacingRight=4;overflow=hidden;rotatable=0;points=[[0,0.5],[1,0.5]];portConstraint=eastwest;fontSize=12;whiteSpace=wrap;html=1;" parent="DJH5B1Bn1w-6sPg1LVB8-12" vertex="1">
          <mxGeometry y="56" width="120" height="26" as="geometry" />
        </mxCell>
        <mxCell id="DJH5B1Bn1w-6sPg1LVB8-15" value="Claudio" style="text;strokeColor=none;fillColor=none;spacingLeft=4;spacingRight=4;overflow=hidden;rotatable=0;points=[[0,0.5],[1,0.5]];portConstraint=eastwest;fontSize=12;whiteSpace=wrap;html=1;" parent="DJH5B1Bn1w-6sPg1LVB8-12" vertex="1">
          <mxGeometry y="82" width="120" height="30" as="geometry" />
        </mxCell>
        <mxCell id="DJH5B1Bn1w-6sPg1LVB8-16" value="Mariana" style="text;strokeColor=none;fillColor=none;spacingLeft=4;spacingRight=4;overflow=hidden;rotatable=0;points=[[0,0.5],[1,0.5]];portConstraint=eastwest;fontSize=12;whiteSpace=wrap;html=1;" parent="DJH5B1Bn1w-6sPg1LVB8-12" vertex="1">
          <mxGeometry y="112" width="120" height="30" as="geometry" />
        </mxCell>
        <mxCell id="DJH5B1Bn1w-6sPg1LVB8-17" value="World" style="text;strokeColor=none;fillColor=none;spacingLeft=4;spacingRight=4;overflow=hidden;rotatable=0;points=[[0,0.5],[1,0.5]];portConstraint=eastwest;fontSize=12;whiteSpace=wrap;html=1;" parent="DJH5B1Bn1w-6sPg1LVB8-12" vertex="1">
          <mxGeometry y="142" width="120" height="30" as="geometry" />
        </mxCell>
        <mxCell id="DJH5B1Bn1w-6sPg1LVB8-18" value="Julia" style="text;strokeColor=none;fillColor=none;spacingLeft=4;spacingRight=4;overflow=hidden;rotatable=0;points=[[0,0.5],[1,0.5]];portConstraint=eastwest;fontSize=12;whiteSpace=wrap;html=1;" parent="DJH5B1Bn1w-6sPg1LVB8-12" vertex="1">
          <mxGeometry y="172" width="120" height="30" as="geometry" />
        </mxCell>
        <mxCell id="DJH5B1Bn1w-6sPg1LVB8-19" value="Catarina" style="text;strokeColor=none;fillColor=none;spacingLeft=4;spacingRight=4;overflow=hidden;rotatable=0;points=[[0,0.5],[1,0.5]];portConstraint=eastwest;fontSize=12;whiteSpace=wrap;html=1;" parent="DJH5B1Bn1w-6sPg1LVB8-12" vertex="1">
          <mxGeometry y="202" width="120" height="30" as="geometry" />
        </mxCell>
        <mxCell id="DJH5B1Bn1w-6sPg1LVB8-20" value="Alegrete" style="text;strokeColor=none;fillColor=none;spacingLeft=4;spacingRight=4;overflow=hidden;rotatable=0;points=[[0,0.5],[1,0.5]];portConstraint=eastwest;fontSize=12;whiteSpace=wrap;html=1;" parent="DJH5B1Bn1w-6sPg1LVB8-12" vertex="1">
          <mxGeometry y="232" width="120" height="30" as="geometry" />
        </mxCell>
        <mxCell id="DJH5B1Bn1w-6sPg1LVB8-21" value="Josefina" style="text;strokeColor=none;fillColor=none;spacingLeft=4;spacingRight=4;overflow=hidden;rotatable=0;points=[[0,0.5],[1,0.5]];portConstraint=eastwest;fontSize=12;whiteSpace=wrap;html=1;" parent="DJH5B1Bn1w-6sPg1LVB8-12" vertex="1">
          <mxGeometry y="262" width="120" height="30" as="geometry" />
        </mxCell>
        <mxCell id="DJH5B1Bn1w-6sPg1LVB8-22" value="José" style="text;strokeColor=none;fillColor=none;spacingLeft=4;spacingRight=4;overflow=hidden;rotatable=0;points=[[0,0.5],[1,0.5]];portConstraint=eastwest;fontSize=12;whiteSpace=wrap;html=1;" parent="DJH5B1Bn1w-6sPg1LVB8-12" vertex="1">
          <mxGeometry y="292" width="120" height="30" as="geometry" />
        </mxCell>
        <mxCell id="DJH5B1Bn1w-6sPg1LVB8-23" value="Morada" style="swimlane;fontStyle=0;childLayout=stackLayout;horizontal=1;startSize=26;horizontalStack=0;resizeParent=1;resizeParentMax=0;resizeLast=0;collapsible=1;marginBottom=0;align=center;fontSize=14;" parent="1" vertex="1">
          <mxGeometry x="390" y="1630" width="120" height="322" as="geometry" />
        </mxCell>
        <mxCell id="DJH5B1Bn1w-6sPg1LVB8-24" value="Rua da Velhice" style="text;strokeColor=none;fillColor=none;spacingLeft=4;spacingRight=4;overflow=hidden;rotatable=0;points=[[0,0.5],[1,0.5]];portConstraint=eastwest;fontSize=12;whiteSpace=wrap;html=1;" parent="DJH5B1Bn1w-6sPg1LVB8-23" vertex="1">
          <mxGeometry y="26" width="120" height="30" as="geometry" />
        </mxCell>
        <mxCell id="DJH5B1Bn1w-6sPg1LVB8-25" value="Rua dos Iphones" style="text;strokeColor=none;fillColor=none;spacingLeft=4;spacingRight=4;overflow=hidden;rotatable=0;points=[[0,0.5],[1,0.5]];portConstraint=eastwest;fontSize=12;whiteSpace=wrap;html=1;" parent="DJH5B1Bn1w-6sPg1LVB8-23" vertex="1">
          <mxGeometry y="56" width="120" height="26" as="geometry" />
        </mxCell>
        <mxCell id="DJH5B1Bn1w-6sPg1LVB8-26" value="Praça da liberdade" style="text;strokeColor=none;fillColor=none;spacingLeft=4;spacingRight=4;overflow=hidden;rotatable=0;points=[[0,0.5],[1,0.5]];portConstraint=eastwest;fontSize=12;whiteSpace=wrap;html=1;" parent="DJH5B1Bn1w-6sPg1LVB8-23" vertex="1">
          <mxGeometry y="82" width="120" height="30" as="geometry" />
        </mxCell>
        <mxCell id="DJH5B1Bn1w-6sPg1LVB8-27" value="Rua de D. Gutto" style="text;strokeColor=none;fillColor=none;spacingLeft=4;spacingRight=4;overflow=hidden;rotatable=0;points=[[0,0.5],[1,0.5]];portConstraint=eastwest;fontSize=12;whiteSpace=wrap;html=1;" parent="DJH5B1Bn1w-6sPg1LVB8-23" vertex="1">
          <mxGeometry y="112" width="120" height="30" as="geometry" />
        </mxCell>
        <mxCell id="DJH5B1Bn1w-6sPg1LVB8-28" value="Rua do Demonio" style="text;strokeColor=none;fillColor=none;spacingLeft=4;spacingRight=4;overflow=hidden;rotatable=0;points=[[0,0.5],[1,0.5]];portConstraint=eastwest;fontSize=12;whiteSpace=wrap;html=1;" parent="DJH5B1Bn1w-6sPg1LVB8-23" vertex="1">
          <mxGeometry y="142" width="120" height="30" as="geometry" />
        </mxCell>
        <mxCell id="DJH5B1Bn1w-6sPg1LVB8-29" value="Rua das Rosas" style="text;strokeColor=none;fillColor=none;spacingLeft=4;spacingRight=4;overflow=hidden;rotatable=0;points=[[0,0.5],[1,0.5]];portConstraint=eastwest;fontSize=12;whiteSpace=wrap;html=1;" parent="DJH5B1Bn1w-6sPg1LVB8-23" vertex="1">
          <mxGeometry y="172" width="120" height="30" as="geometry" />
        </mxCell>
        <mxCell id="DJH5B1Bn1w-6sPg1LVB8-30" value="Rua da Beleza" style="text;strokeColor=none;fillColor=none;spacingLeft=4;spacingRight=4;overflow=hidden;rotatable=0;points=[[0,0.5],[1,0.5]];portConstraint=eastwest;fontSize=12;whiteSpace=wrap;html=1;" parent="DJH5B1Bn1w-6sPg1LVB8-23" vertex="1">
          <mxGeometry y="202" width="120" height="30" as="geometry" />
        </mxCell>
        <mxCell id="DJH5B1Bn1w-6sPg1LVB8-31" value="Praça da Alegria" style="text;strokeColor=none;fillColor=none;spacingLeft=4;spacingRight=4;overflow=hidden;rotatable=0;points=[[0,0.5],[1,0.5]];portConstraint=eastwest;fontSize=12;whiteSpace=wrap;html=1;" parent="DJH5B1Bn1w-6sPg1LVB8-23" vertex="1">
          <mxGeometry y="232" width="120" height="30" as="geometry" />
        </mxCell>
        <mxCell id="DJH5B1Bn1w-6sPg1LVB8-32" value="Rua de S. Bento" style="text;strokeColor=none;fillColor=none;spacingLeft=4;spacingRight=4;overflow=hidden;rotatable=0;points=[[0,0.5],[1,0.5]];portConstraint=eastwest;fontSize=12;whiteSpace=wrap;html=1;" parent="DJH5B1Bn1w-6sPg1LVB8-23" vertex="1">
          <mxGeometry y="262" width="120" height="30" as="geometry" />
        </mxCell>
        <mxCell id="DJH5B1Bn1w-6sPg1LVB8-33" value="Praça da solidao" style="text;strokeColor=none;fillColor=none;spacingLeft=4;spacingRight=4;overflow=hidden;rotatable=0;points=[[0,0.5],[1,0.5]];portConstraint=eastwest;fontSize=12;whiteSpace=wrap;html=1;" parent="DJH5B1Bn1w-6sPg1LVB8-23" vertex="1">
          <mxGeometry y="292" width="120" height="30" as="geometry" />
        </mxCell>
        <mxCell id="DJH5B1Bn1w-6sPg1LVB8-34" value="Telefone" style="swimlane;fontStyle=0;childLayout=stackLayout;horizontal=1;startSize=26;horizontalStack=0;resizeParent=1;resizeParentMax=0;resizeLast=0;collapsible=1;marginBottom=0;align=center;fontSize=14;" parent="1" vertex="1">
          <mxGeometry x="510" y="1630" width="120" height="322" as="geometry" />
        </mxCell>
        <mxCell id="DJH5B1Bn1w-6sPg1LVB8-35" value="159159159" style="text;strokeColor=none;fillColor=none;spacingLeft=4;spacingRight=4;overflow=hidden;rotatable=0;points=[[0,0.5],[1,0.5]];portConstraint=eastwest;fontSize=12;whiteSpace=wrap;html=1;" parent="DJH5B1Bn1w-6sPg1LVB8-34" vertex="1">
          <mxGeometry y="26" width="120" height="30" as="geometry" />
        </mxCell>
        <mxCell id="DJH5B1Bn1w-6sPg1LVB8-36" value="753753753" style="text;strokeColor=none;fillColor=none;spacingLeft=4;spacingRight=4;overflow=hidden;rotatable=0;points=[[0,0.5],[1,0.5]];portConstraint=eastwest;fontSize=12;whiteSpace=wrap;html=1;" parent="DJH5B1Bn1w-6sPg1LVB8-34" vertex="1">
          <mxGeometry y="56" width="120" height="26" as="geometry" />
        </mxCell>
        <mxCell id="DJH5B1Bn1w-6sPg1LVB8-37" value="126126126" style="text;strokeColor=none;fillColor=none;spacingLeft=4;spacingRight=4;overflow=hidden;rotatable=0;points=[[0,0.5],[1,0.5]];portConstraint=eastwest;fontSize=12;whiteSpace=wrap;html=1;" parent="DJH5B1Bn1w-6sPg1LVB8-34" vertex="1">
          <mxGeometry y="82" width="120" height="30" as="geometry" />
        </mxCell>
        <mxCell id="DJH5B1Bn1w-6sPg1LVB8-38" value="757485236" style="text;strokeColor=none;fillColor=none;spacingLeft=4;spacingRight=4;overflow=hidden;rotatable=0;points=[[0,0.5],[1,0.5]];portConstraint=eastwest;fontSize=12;whiteSpace=wrap;html=1;" parent="DJH5B1Bn1w-6sPg1LVB8-34" vertex="1">
          <mxGeometry y="112" width="120" height="30" as="geometry" />
        </mxCell>
        <mxCell id="DJH5B1Bn1w-6sPg1LVB8-39" value="123549417" style="text;strokeColor=none;fillColor=none;spacingLeft=4;spacingRight=4;overflow=hidden;rotatable=0;points=[[0,0.5],[1,0.5]];portConstraint=eastwest;fontSize=12;whiteSpace=wrap;html=1;" parent="DJH5B1Bn1w-6sPg1LVB8-34" vertex="1">
          <mxGeometry y="142" width="120" height="30" as="geometry" />
        </mxCell>
        <mxCell id="DJH5B1Bn1w-6sPg1LVB8-40" value="254357567" style="text;strokeColor=none;fillColor=none;spacingLeft=4;spacingRight=4;overflow=hidden;rotatable=0;points=[[0,0.5],[1,0.5]];portConstraint=eastwest;fontSize=12;whiteSpace=wrap;html=1;" parent="DJH5B1Bn1w-6sPg1LVB8-34" vertex="1">
          <mxGeometry y="172" width="120" height="30" as="geometry" />
        </mxCell>
        <mxCell id="DJH5B1Bn1w-6sPg1LVB8-41" value="326514562" style="text;strokeColor=none;fillColor=none;spacingLeft=4;spacingRight=4;overflow=hidden;rotatable=0;points=[[0,0.5],[1,0.5]];portConstraint=eastwest;fontSize=12;whiteSpace=wrap;html=1;" parent="DJH5B1Bn1w-6sPg1LVB8-34" vertex="1">
          <mxGeometry y="202" width="120" height="30" as="geometry" />
        </mxCell>
        <mxCell id="DJH5B1Bn1w-6sPg1LVB8-42" value="684321234" style="text;strokeColor=none;fillColor=none;spacingLeft=4;spacingRight=4;overflow=hidden;rotatable=0;points=[[0,0.5],[1,0.5]];portConstraint=eastwest;fontSize=12;whiteSpace=wrap;html=1;" parent="DJH5B1Bn1w-6sPg1LVB8-34" vertex="1">
          <mxGeometry y="232" width="120" height="30" as="geometry" />
        </mxCell>
        <mxCell id="DJH5B1Bn1w-6sPg1LVB8-43" value="145325587" style="text;strokeColor=none;fillColor=none;spacingLeft=4;spacingRight=4;overflow=hidden;rotatable=0;points=[[0,0.5],[1,0.5]];portConstraint=eastwest;fontSize=12;whiteSpace=wrap;html=1;" parent="DJH5B1Bn1w-6sPg1LVB8-34" vertex="1">
          <mxGeometry y="262" width="120" height="30" as="geometry" />
        </mxCell>
        <mxCell id="DJH5B1Bn1w-6sPg1LVB8-44" value="134523578" style="text;strokeColor=none;fillColor=none;spacingLeft=4;spacingRight=4;overflow=hidden;rotatable=0;points=[[0,0.5],[1,0.5]];portConstraint=eastwest;fontSize=12;whiteSpace=wrap;html=1;" parent="DJH5B1Bn1w-6sPg1LVB8-34" vertex="1">
          <mxGeometry y="292" width="120" height="30" as="geometry" />
        </mxCell>
        <mxCell id="DJH5B1Bn1w-6sPg1LVB8-45" value="Email" style="swimlane;fontStyle=0;childLayout=stackLayout;horizontal=1;startSize=26;horizontalStack=0;resizeParent=1;resizeParentMax=0;resizeLast=0;collapsible=1;marginBottom=0;align=center;fontSize=14;" parent="1" vertex="1">
          <mxGeometry x="630" y="1630" width="190" height="322" as="geometry" />
        </mxCell>
        <mxCell id="DJH5B1Bn1w-6sPg1LVB8-46" value="Sr.Young@gmail.com" style="text;strokeColor=none;fillColor=none;spacingLeft=4;spacingRight=4;overflow=hidden;rotatable=0;points=[[0,0.5],[1,0.5]];portConstraint=eastwest;fontSize=12;whiteSpace=wrap;html=1;" parent="DJH5B1Bn1w-6sPg1LVB8-45" vertex="1">
          <mxGeometry y="26" width="190" height="30" as="geometry" />
        </mxCell>
        <mxCell id="DJH5B1Bn1w-6sPg1LVB8-47" value="Rui.com.H@hotmail.com" style="text;strokeColor=none;fillColor=none;spacingLeft=4;spacingRight=4;overflow=hidden;rotatable=0;points=[[0,0.5],[1,0.5]];portConstraint=eastwest;fontSize=12;whiteSpace=wrap;html=1;" parent="DJH5B1Bn1w-6sPg1LVB8-45" vertex="1">
          <mxGeometry y="56" width="190" height="26" as="geometry" />
        </mxCell>
        <mxCell id="DJH5B1Bn1w-6sPg1LVB8-48" value="Claudioo23@gmail.com" style="text;strokeColor=none;fillColor=none;spacingLeft=4;spacingRight=4;overflow=hidden;rotatable=0;points=[[0,0.5],[1,0.5]];portConstraint=eastwest;fontSize=12;whiteSpace=wrap;html=1;" parent="DJH5B1Bn1w-6sPg1LVB8-45" vertex="1">
          <mxGeometry y="82" width="190" height="30" as="geometry" />
        </mxCell>
        <mxCell id="DJH5B1Bn1w-6sPg1LVB8-49" value="Mariiiana24@gmail.com" style="text;strokeColor=none;fillColor=none;spacingLeft=4;spacingRight=4;overflow=hidden;rotatable=0;points=[[0,0.5],[1,0.5]];portConstraint=eastwest;fontSize=12;whiteSpace=wrap;html=1;" parent="DJH5B1Bn1w-6sPg1LVB8-45" vertex="1">
          <mxGeometry y="112" width="190" height="30" as="geometry" />
        </mxCell>
        <mxCell id="DJH5B1Bn1w-6sPg1LVB8-50" value="World.Creater@hotmail.com" style="text;strokeColor=none;fillColor=none;spacingLeft=4;spacingRight=4;overflow=hidden;rotatable=0;points=[[0,0.5],[1,0.5]];portConstraint=eastwest;fontSize=12;whiteSpace=wrap;html=1;" parent="DJH5B1Bn1w-6sPg1LVB8-45" vertex="1">
          <mxGeometry y="142" width="190" height="30" as="geometry" />
        </mxCell>
        <mxCell id="DJH5B1Bn1w-6sPg1LVB8-51" value="Juliaaa.56@gmail.com" style="text;strokeColor=none;fillColor=none;spacingLeft=4;spacingRight=4;overflow=hidden;rotatable=0;points=[[0,0.5],[1,0.5]];portConstraint=eastwest;fontSize=12;whiteSpace=wrap;html=1;" parent="DJH5B1Bn1w-6sPg1LVB8-45" vertex="1">
          <mxGeometry y="172" width="190" height="30" as="geometry" />
        </mxCell>
        <mxCell id="DJH5B1Bn1w-6sPg1LVB8-52" value="Catarina.juliana@gmail.com" style="text;strokeColor=none;fillColor=none;spacingLeft=4;spacingRight=4;overflow=hidden;rotatable=0;points=[[0,0.5],[1,0.5]];portConstraint=eastwest;fontSize=12;whiteSpace=wrap;html=1;" parent="DJH5B1Bn1w-6sPg1LVB8-45" vertex="1">
          <mxGeometry y="202" width="190" height="30" as="geometry" />
        </mxCell>
        <mxCell id="DJH5B1Bn1w-6sPg1LVB8-53" value="Alegria90@hotmail.com" style="text;strokeColor=none;fillColor=none;spacingLeft=4;spacingRight=4;overflow=hidden;rotatable=0;points=[[0,0.5],[1,0.5]];portConstraint=eastwest;fontSize=12;whiteSpace=wrap;html=1;" parent="DJH5B1Bn1w-6sPg1LVB8-45" vertex="1">
          <mxGeometry y="232" width="190" height="30" as="geometry" />
        </mxCell>
        <mxCell id="DJH5B1Bn1w-6sPg1LVB8-54" value="josefinna39@gmail.com" style="text;strokeColor=none;fillColor=none;spacingLeft=4;spacingRight=4;overflow=hidden;rotatable=0;points=[[0,0.5],[1,0.5]];portConstraint=eastwest;fontSize=12;whiteSpace=wrap;html=1;" parent="DJH5B1Bn1w-6sPg1LVB8-45" vertex="1">
          <mxGeometry y="262" width="190" height="30" as="geometry" />
        </mxCell>
        <mxCell id="DJH5B1Bn1w-6sPg1LVB8-55" value="José.explorador@hotmail.com" style="text;strokeColor=none;fillColor=none;spacingLeft=4;spacingRight=4;overflow=hidden;rotatable=0;points=[[0,0.5],[1,0.5]];portConstraint=eastwest;fontSize=12;whiteSpace=wrap;html=1;" parent="DJH5B1Bn1w-6sPg1LVB8-45" vertex="1">
          <mxGeometry y="292" width="190" height="30" as="geometry" />
        </mxCell>
        <mxCell id="DJH5B1Bn1w-6sPg1LVB8-56" value="Imovél-id" style="swimlane;fontStyle=0;childLayout=stackLayout;horizontal=1;startSize=26;horizontalStack=0;resizeParent=1;resizeParentMax=0;resizeLast=0;collapsible=1;marginBottom=0;align=center;fontSize=14;" parent="1" vertex="1">
          <mxGeometry x="850" y="920" width="120" height="322" as="geometry" />
        </mxCell>
        <mxCell id="DJH5B1Bn1w-6sPg1LVB8-57" value="1" style="text;strokeColor=none;fillColor=none;spacingLeft=4;spacingRight=4;overflow=hidden;rotatable=0;points=[[0,0.5],[1,0.5]];portConstraint=eastwest;fontSize=12;whiteSpace=wrap;html=1;" parent="DJH5B1Bn1w-6sPg1LVB8-56" vertex="1">
          <mxGeometry y="26" width="120" height="30" as="geometry" />
        </mxCell>
        <mxCell id="DJH5B1Bn1w-6sPg1LVB8-58" value="2" style="text;strokeColor=none;fillColor=none;spacingLeft=4;spacingRight=4;overflow=hidden;rotatable=0;points=[[0,0.5],[1,0.5]];portConstraint=eastwest;fontSize=12;whiteSpace=wrap;html=1;" parent="DJH5B1Bn1w-6sPg1LVB8-56" vertex="1">
          <mxGeometry y="56" width="120" height="26" as="geometry" />
        </mxCell>
        <mxCell id="DJH5B1Bn1w-6sPg1LVB8-59" value="3" style="text;strokeColor=none;fillColor=none;spacingLeft=4;spacingRight=4;overflow=hidden;rotatable=0;points=[[0,0.5],[1,0.5]];portConstraint=eastwest;fontSize=12;whiteSpace=wrap;html=1;" parent="DJH5B1Bn1w-6sPg1LVB8-56" vertex="1">
          <mxGeometry y="82" width="120" height="30" as="geometry" />
        </mxCell>
        <mxCell id="DJH5B1Bn1w-6sPg1LVB8-60" value="4" style="text;strokeColor=none;fillColor=none;spacingLeft=4;spacingRight=4;overflow=hidden;rotatable=0;points=[[0,0.5],[1,0.5]];portConstraint=eastwest;fontSize=12;whiteSpace=wrap;html=1;" parent="DJH5B1Bn1w-6sPg1LVB8-56" vertex="1">
          <mxGeometry y="112" width="120" height="30" as="geometry" />
        </mxCell>
        <mxCell id="DJH5B1Bn1w-6sPg1LVB8-61" value="5" style="text;strokeColor=none;fillColor=none;spacingLeft=4;spacingRight=4;overflow=hidden;rotatable=0;points=[[0,0.5],[1,0.5]];portConstraint=eastwest;fontSize=12;whiteSpace=wrap;html=1;" parent="DJH5B1Bn1w-6sPg1LVB8-56" vertex="1">
          <mxGeometry y="142" width="120" height="30" as="geometry" />
        </mxCell>
        <mxCell id="DJH5B1Bn1w-6sPg1LVB8-62" value="6" style="text;strokeColor=none;fillColor=none;spacingLeft=4;spacingRight=4;overflow=hidden;rotatable=0;points=[[0,0.5],[1,0.5]];portConstraint=eastwest;fontSize=12;whiteSpace=wrap;html=1;" parent="DJH5B1Bn1w-6sPg1LVB8-56" vertex="1">
          <mxGeometry y="172" width="120" height="30" as="geometry" />
        </mxCell>
        <mxCell id="DJH5B1Bn1w-6sPg1LVB8-63" value="7" style="text;strokeColor=none;fillColor=none;spacingLeft=4;spacingRight=4;overflow=hidden;rotatable=0;points=[[0,0.5],[1,0.5]];portConstraint=eastwest;fontSize=12;whiteSpace=wrap;html=1;" parent="DJH5B1Bn1w-6sPg1LVB8-56" vertex="1">
          <mxGeometry y="202" width="120" height="30" as="geometry" />
        </mxCell>
        <mxCell id="DJH5B1Bn1w-6sPg1LVB8-64" value="8" style="text;strokeColor=none;fillColor=none;spacingLeft=4;spacingRight=4;overflow=hidden;rotatable=0;points=[[0,0.5],[1,0.5]];portConstraint=eastwest;fontSize=12;whiteSpace=wrap;html=1;" parent="DJH5B1Bn1w-6sPg1LVB8-56" vertex="1">
          <mxGeometry y="232" width="120" height="30" as="geometry" />
        </mxCell>
        <mxCell id="DJH5B1Bn1w-6sPg1LVB8-65" value="9" style="text;strokeColor=none;fillColor=none;spacingLeft=4;spacingRight=4;overflow=hidden;rotatable=0;points=[[0,0.5],[1,0.5]];portConstraint=eastwest;fontSize=12;whiteSpace=wrap;html=1;" parent="DJH5B1Bn1w-6sPg1LVB8-56" vertex="1">
          <mxGeometry y="262" width="120" height="30" as="geometry" />
        </mxCell>
        <mxCell id="DJH5B1Bn1w-6sPg1LVB8-66" value="10" style="text;strokeColor=none;fillColor=none;spacingLeft=4;spacingRight=4;overflow=hidden;rotatable=0;points=[[0,0.5],[1,0.5]];portConstraint=eastwest;fontSize=12;whiteSpace=wrap;html=1;" parent="DJH5B1Bn1w-6sPg1LVB8-56" vertex="1">
          <mxGeometry y="292" width="120" height="30" as="geometry" />
        </mxCell>
        <mxCell id="DJH5B1Bn1w-6sPg1LVB8-67" value="Descrição" style="swimlane;fontStyle=0;childLayout=stackLayout;horizontal=1;startSize=26;horizontalStack=0;resizeParent=1;resizeParentMax=0;resizeLast=0;collapsible=1;marginBottom=0;align=center;fontSize=14;" parent="1" vertex="1">
          <mxGeometry x="970" y="920" width="120" height="322" as="geometry" />
        </mxCell>
        <mxCell id="DJH5B1Bn1w-6sPg1LVB8-68" value="Apartamento T4" style="text;strokeColor=none;fillColor=none;spacingLeft=4;spacingRight=4;overflow=hidden;rotatable=0;points=[[0,0.5],[1,0.5]];portConstraint=eastwest;fontSize=12;whiteSpace=wrap;html=1;" parent="DJH5B1Bn1w-6sPg1LVB8-67" vertex="1">
          <mxGeometry y="26" width="120" height="30" as="geometry" />
        </mxCell>
        <mxCell id="DJH5B1Bn1w-6sPg1LVB8-69" value="T8,3 Suites , Preta" style="text;strokeColor=none;fillColor=none;spacingLeft=4;spacingRight=4;overflow=hidden;rotatable=0;points=[[0,0.5],[1,0.5]];portConstraint=eastwest;fontSize=12;whiteSpace=wrap;html=1;" parent="DJH5B1Bn1w-6sPg1LVB8-67" vertex="1">
          <mxGeometry y="56" width="120" height="26" as="geometry" />
        </mxCell>
        <mxCell id="DJH5B1Bn1w-6sPg1LVB8-70" value="Apartamento , T3" style="text;strokeColor=none;fillColor=none;spacingLeft=4;spacingRight=4;overflow=hidden;rotatable=0;points=[[0,0.5],[1,0.5]];portConstraint=eastwest;fontSize=12;whiteSpace=wrap;html=1;" parent="DJH5B1Bn1w-6sPg1LVB8-67" vertex="1">
          <mxGeometry y="82" width="120" height="30" as="geometry" />
        </mxCell>
        <mxCell id="DJH5B1Bn1w-6sPg1LVB8-71" value="Vivenda 2 andares T4" style="text;strokeColor=none;fillColor=none;spacingLeft=4;spacingRight=4;overflow=hidden;rotatable=0;points=[[0,0.5],[1,0.5]];portConstraint=eastwest;fontSize=12;whiteSpace=wrap;html=1;" parent="DJH5B1Bn1w-6sPg1LVB8-67" vertex="1">
          <mxGeometry y="112" width="120" height="30" as="geometry" />
        </mxCell>
        <mxCell id="DJH5B1Bn1w-6sPg1LVB8-72" value="T3 , com uma sala grande" style="text;strokeColor=none;fillColor=none;spacingLeft=4;spacingRight=4;overflow=hidden;rotatable=0;points=[[0,0.5],[1,0.5]];portConstraint=eastwest;fontSize=12;whiteSpace=wrap;html=1;" parent="DJH5B1Bn1w-6sPg1LVB8-67" vertex="1">
          <mxGeometry y="142" width="120" height="30" as="geometry" />
        </mxCell>
        <mxCell id="DJH5B1Bn1w-6sPg1LVB8-73" value="T2 3º Andar" style="text;strokeColor=none;fillColor=none;spacingLeft=4;spacingRight=4;overflow=hidden;rotatable=0;points=[[0,0.5],[1,0.5]];portConstraint=eastwest;fontSize=12;whiteSpace=wrap;html=1;" parent="DJH5B1Bn1w-6sPg1LVB8-67" vertex="1">
          <mxGeometry y="172" width="120" height="30" as="geometry" />
        </mxCell>
        <mxCell id="DJH5B1Bn1w-6sPg1LVB8-74" value="T1 com 2 andres" style="text;strokeColor=none;fillColor=none;spacingLeft=4;spacingRight=4;overflow=hidden;rotatable=0;points=[[0,0.5],[1,0.5]];portConstraint=eastwest;fontSize=12;whiteSpace=wrap;html=1;" parent="DJH5B1Bn1w-6sPg1LVB8-67" vertex="1">
          <mxGeometry y="202" width="120" height="30" as="geometry" />
        </mxCell>
        <mxCell id="DJH5B1Bn1w-6sPg1LVB8-75" value="Open Space" style="text;strokeColor=none;fillColor=none;spacingLeft=4;spacingRight=4;overflow=hidden;rotatable=0;points=[[0,0.5],[1,0.5]];portConstraint=eastwest;fontSize=12;whiteSpace=wrap;html=1;" parent="DJH5B1Bn1w-6sPg1LVB8-67" vertex="1">
          <mxGeometry y="232" width="120" height="30" as="geometry" />
        </mxCell>
        <mxCell id="DJH5B1Bn1w-6sPg1LVB8-76" value="T2 1º andar" style="text;strokeColor=none;fillColor=none;spacingLeft=4;spacingRight=4;overflow=hidden;rotatable=0;points=[[0,0.5],[1,0.5]];portConstraint=eastwest;fontSize=12;whiteSpace=wrap;html=1;" parent="DJH5B1Bn1w-6sPg1LVB8-67" vertex="1">
          <mxGeometry y="262" width="120" height="30" as="geometry" />
        </mxCell>
        <mxCell id="DJH5B1Bn1w-6sPg1LVB8-77" value="T3 , apartamento 2º andar" style="text;strokeColor=none;fillColor=none;spacingLeft=4;spacingRight=4;overflow=hidden;rotatable=0;points=[[0,0.5],[1,0.5]];portConstraint=eastwest;fontSize=12;whiteSpace=wrap;html=1;" parent="DJH5B1Bn1w-6sPg1LVB8-67" vertex="1">
          <mxGeometry y="292" width="120" height="30" as="geometry" />
        </mxCell>
        <mxCell id="DJH5B1Bn1w-6sPg1LVB8-78" value="Morada" style="swimlane;fontStyle=0;childLayout=stackLayout;horizontal=1;startSize=26;horizontalStack=0;resizeParent=1;resizeParentMax=0;resizeLast=0;collapsible=1;marginBottom=0;align=center;fontSize=14;" parent="1" vertex="1">
          <mxGeometry x="1090" y="920" width="120" height="322" as="geometry" />
        </mxCell>
        <mxCell id="DJH5B1Bn1w-6sPg1LVB8-79" value="Rua da Velhice" style="text;strokeColor=none;fillColor=none;spacingLeft=4;spacingRight=4;overflow=hidden;rotatable=0;points=[[0,0.5],[1,0.5]];portConstraint=eastwest;fontSize=12;whiteSpace=wrap;html=1;" parent="DJH5B1Bn1w-6sPg1LVB8-78" vertex="1">
          <mxGeometry y="26" width="120" height="30" as="geometry" />
        </mxCell>
        <mxCell id="DJH5B1Bn1w-6sPg1LVB8-80" value="Rua Dos Deuses" style="text;strokeColor=none;fillColor=none;spacingLeft=4;spacingRight=4;overflow=hidden;rotatable=0;points=[[0,0.5],[1,0.5]];portConstraint=eastwest;fontSize=12;whiteSpace=wrap;html=1;" parent="DJH5B1Bn1w-6sPg1LVB8-78" vertex="1">
          <mxGeometry y="56" width="120" height="26" as="geometry" />
        </mxCell>
        <mxCell id="DJH5B1Bn1w-6sPg1LVB8-81" value="Praça da liberdade" style="text;strokeColor=none;fillColor=none;spacingLeft=4;spacingRight=4;overflow=hidden;rotatable=0;points=[[0,0.5],[1,0.5]];portConstraint=eastwest;fontSize=12;whiteSpace=wrap;html=1;" parent="DJH5B1Bn1w-6sPg1LVB8-78" vertex="1">
          <mxGeometry y="82" width="120" height="30" as="geometry" />
        </mxCell>
        <mxCell id="DJH5B1Bn1w-6sPg1LVB8-82" value="Rua de D. Gutto" style="text;strokeColor=none;fillColor=none;spacingLeft=4;spacingRight=4;overflow=hidden;rotatable=0;points=[[0,0.5],[1,0.5]];portConstraint=eastwest;fontSize=12;whiteSpace=wrap;html=1;" parent="DJH5B1Bn1w-6sPg1LVB8-78" vertex="1">
          <mxGeometry y="112" width="120" height="30" as="geometry" />
        </mxCell>
        <mxCell id="DJH5B1Bn1w-6sPg1LVB8-83" value="Rua do Demonio" style="text;strokeColor=none;fillColor=none;spacingLeft=4;spacingRight=4;overflow=hidden;rotatable=0;points=[[0,0.5],[1,0.5]];portConstraint=eastwest;fontSize=12;whiteSpace=wrap;html=1;" parent="DJH5B1Bn1w-6sPg1LVB8-78" vertex="1">
          <mxGeometry y="142" width="120" height="30" as="geometry" />
        </mxCell>
        <mxCell id="DJH5B1Bn1w-6sPg1LVB8-84" value="Rua das Rosas" style="text;strokeColor=none;fillColor=none;spacingLeft=4;spacingRight=4;overflow=hidden;rotatable=0;points=[[0,0.5],[1,0.5]];portConstraint=eastwest;fontSize=12;whiteSpace=wrap;html=1;" parent="DJH5B1Bn1w-6sPg1LVB8-78" vertex="1">
          <mxGeometry y="172" width="120" height="30" as="geometry" />
        </mxCell>
        <mxCell id="DJH5B1Bn1w-6sPg1LVB8-85" value="Rua da Beleza" style="text;strokeColor=none;fillColor=none;spacingLeft=4;spacingRight=4;overflow=hidden;rotatable=0;points=[[0,0.5],[1,0.5]];portConstraint=eastwest;fontSize=12;whiteSpace=wrap;html=1;" parent="DJH5B1Bn1w-6sPg1LVB8-78" vertex="1">
          <mxGeometry y="202" width="120" height="30" as="geometry" />
        </mxCell>
        <mxCell id="DJH5B1Bn1w-6sPg1LVB8-86" value="Praça da Alegria" style="text;strokeColor=none;fillColor=none;spacingLeft=4;spacingRight=4;overflow=hidden;rotatable=0;points=[[0,0.5],[1,0.5]];portConstraint=eastwest;fontSize=12;whiteSpace=wrap;html=1;" parent="DJH5B1Bn1w-6sPg1LVB8-78" vertex="1">
          <mxGeometry y="232" width="120" height="30" as="geometry" />
        </mxCell>
        <mxCell id="DJH5B1Bn1w-6sPg1LVB8-87" value="Rua de S. Bento" style="text;strokeColor=none;fillColor=none;spacingLeft=4;spacingRight=4;overflow=hidden;rotatable=0;points=[[0,0.5],[1,0.5]];portConstraint=eastwest;fontSize=12;whiteSpace=wrap;html=1;" parent="DJH5B1Bn1w-6sPg1LVB8-78" vertex="1">
          <mxGeometry y="262" width="120" height="30" as="geometry" />
        </mxCell>
        <mxCell id="DJH5B1Bn1w-6sPg1LVB8-88" value="Rua de D. Gutto" style="text;strokeColor=none;fillColor=none;spacingLeft=4;spacingRight=4;overflow=hidden;rotatable=0;points=[[0,0.5],[1,0.5]];portConstraint=eastwest;fontSize=12;whiteSpace=wrap;html=1;" parent="DJH5B1Bn1w-6sPg1LVB8-78" vertex="1">
          <mxGeometry y="292" width="120" height="30" as="geometry" />
        </mxCell>
        <mxCell id="DJH5B1Bn1w-6sPg1LVB8-89" value="Valor" style="swimlane;fontStyle=0;childLayout=stackLayout;horizontal=1;startSize=26;horizontalStack=0;resizeParent=1;resizeParentMax=0;resizeLast=0;collapsible=1;marginBottom=0;align=center;fontSize=14;" parent="1" vertex="1">
          <mxGeometry x="1210" y="920" width="120" height="322" as="geometry" />
        </mxCell>
        <mxCell id="DJH5B1Bn1w-6sPg1LVB8-90" value="5200" style="text;strokeColor=none;fillColor=none;spacingLeft=4;spacingRight=4;overflow=hidden;rotatable=0;points=[[0,0.5],[1,0.5]];portConstraint=eastwest;fontSize=12;whiteSpace=wrap;html=1;" parent="DJH5B1Bn1w-6sPg1LVB8-89" vertex="1">
          <mxGeometry y="26" width="120" height="30" as="geometry" />
        </mxCell>
        <mxCell id="DJH5B1Bn1w-6sPg1LVB8-91" value="70000" style="text;strokeColor=none;fillColor=none;spacingLeft=4;spacingRight=4;overflow=hidden;rotatable=0;points=[[0,0.5],[1,0.5]];portConstraint=eastwest;fontSize=12;whiteSpace=wrap;html=1;" parent="DJH5B1Bn1w-6sPg1LVB8-89" vertex="1">
          <mxGeometry y="56" width="120" height="26" as="geometry" />
        </mxCell>
        <mxCell id="DJH5B1Bn1w-6sPg1LVB8-92" value="4500" style="text;strokeColor=none;fillColor=none;spacingLeft=4;spacingRight=4;overflow=hidden;rotatable=0;points=[[0,0.5],[1,0.5]];portConstraint=eastwest;fontSize=12;whiteSpace=wrap;html=1;" parent="DJH5B1Bn1w-6sPg1LVB8-89" vertex="1">
          <mxGeometry y="82" width="120" height="30" as="geometry" />
        </mxCell>
        <mxCell id="DJH5B1Bn1w-6sPg1LVB8-93" value="8000" style="text;strokeColor=none;fillColor=none;spacingLeft=4;spacingRight=4;overflow=hidden;rotatable=0;points=[[0,0.5],[1,0.5]];portConstraint=eastwest;fontSize=12;whiteSpace=wrap;html=1;" parent="DJH5B1Bn1w-6sPg1LVB8-89" vertex="1">
          <mxGeometry y="112" width="120" height="30" as="geometry" />
        </mxCell>
        <mxCell id="DJH5B1Bn1w-6sPg1LVB8-94" value="1000" style="text;strokeColor=none;fillColor=none;spacingLeft=4;spacingRight=4;overflow=hidden;rotatable=0;points=[[0,0.5],[1,0.5]];portConstraint=eastwest;fontSize=12;whiteSpace=wrap;html=1;" parent="DJH5B1Bn1w-6sPg1LVB8-89" vertex="1">
          <mxGeometry y="142" width="120" height="30" as="geometry" />
        </mxCell>
        <mxCell id="DJH5B1Bn1w-6sPg1LVB8-95" value="3500" style="text;strokeColor=none;fillColor=none;spacingLeft=4;spacingRight=4;overflow=hidden;rotatable=0;points=[[0,0.5],[1,0.5]];portConstraint=eastwest;fontSize=12;whiteSpace=wrap;html=1;" parent="DJH5B1Bn1w-6sPg1LVB8-89" vertex="1">
          <mxGeometry y="172" width="120" height="30" as="geometry" />
        </mxCell>
        <mxCell id="DJH5B1Bn1w-6sPg1LVB8-96" value="4058" style="text;strokeColor=none;fillColor=none;spacingLeft=4;spacingRight=4;overflow=hidden;rotatable=0;points=[[0,0.5],[1,0.5]];portConstraint=eastwest;fontSize=12;whiteSpace=wrap;html=1;" parent="DJH5B1Bn1w-6sPg1LVB8-89" vertex="1">
          <mxGeometry y="202" width="120" height="30" as="geometry" />
        </mxCell>
        <mxCell id="DJH5B1Bn1w-6sPg1LVB8-97" value="5516" style="text;strokeColor=none;fillColor=none;spacingLeft=4;spacingRight=4;overflow=hidden;rotatable=0;points=[[0,0.5],[1,0.5]];portConstraint=eastwest;fontSize=12;whiteSpace=wrap;html=1;" parent="DJH5B1Bn1w-6sPg1LVB8-89" vertex="1">
          <mxGeometry y="232" width="120" height="30" as="geometry" />
        </mxCell>
        <mxCell id="DJH5B1Bn1w-6sPg1LVB8-98" value="1257" style="text;strokeColor=none;fillColor=none;spacingLeft=4;spacingRight=4;overflow=hidden;rotatable=0;points=[[0,0.5],[1,0.5]];portConstraint=eastwest;fontSize=12;whiteSpace=wrap;html=1;" parent="DJH5B1Bn1w-6sPg1LVB8-89" vertex="1">
          <mxGeometry y="262" width="120" height="30" as="geometry" />
        </mxCell>
        <mxCell id="DJH5B1Bn1w-6sPg1LVB8-99" value="8525" style="text;strokeColor=none;fillColor=none;spacingLeft=4;spacingRight=4;overflow=hidden;rotatable=0;points=[[0,0.5],[1,0.5]];portConstraint=eastwest;fontSize=12;whiteSpace=wrap;html=1;" parent="DJH5B1Bn1w-6sPg1LVB8-89" vertex="1">
          <mxGeometry y="292" width="120" height="30" as="geometry" />
        </mxCell>
        <mxCell id="DJH5B1Bn1w-6sPg1LVB8-100" value="Situaçao" style="swimlane;fontStyle=0;childLayout=stackLayout;horizontal=1;startSize=26;horizontalStack=0;resizeParent=1;resizeParentMax=0;resizeLast=0;collapsible=1;marginBottom=0;align=center;fontSize=14;" parent="1" vertex="1">
          <mxGeometry x="1330" y="920" width="190" height="322" as="geometry" />
        </mxCell>
        <mxCell id="DJH5B1Bn1w-6sPg1LVB8-101" value="aluguel" style="text;strokeColor=none;fillColor=none;spacingLeft=4;spacingRight=4;overflow=hidden;rotatable=0;points=[[0,0.5],[1,0.5]];portConstraint=eastwest;fontSize=12;whiteSpace=wrap;html=1;" parent="DJH5B1Bn1w-6sPg1LVB8-100" vertex="1">
          <mxGeometry y="26" width="190" height="30" as="geometry" />
        </mxCell>
        <mxCell id="DJH5B1Bn1w-6sPg1LVB8-102" value="aluguel" style="text;strokeColor=none;fillColor=none;spacingLeft=4;spacingRight=4;overflow=hidden;rotatable=0;points=[[0,0.5],[1,0.5]];portConstraint=eastwest;fontSize=12;whiteSpace=wrap;html=1;" parent="DJH5B1Bn1w-6sPg1LVB8-100" vertex="1">
          <mxGeometry y="56" width="190" height="26" as="geometry" />
        </mxCell>
        <mxCell id="DJH5B1Bn1w-6sPg1LVB8-103" value="aluguel" style="text;strokeColor=none;fillColor=none;spacingLeft=4;spacingRight=4;overflow=hidden;rotatable=0;points=[[0,0.5],[1,0.5]];portConstraint=eastwest;fontSize=12;whiteSpace=wrap;html=1;" parent="DJH5B1Bn1w-6sPg1LVB8-100" vertex="1">
          <mxGeometry y="82" width="190" height="30" as="geometry" />
        </mxCell>
        <mxCell id="DJH5B1Bn1w-6sPg1LVB8-104" value="aluguel" style="text;strokeColor=none;fillColor=none;spacingLeft=4;spacingRight=4;overflow=hidden;rotatable=0;points=[[0,0.5],[1,0.5]];portConstraint=eastwest;fontSize=12;whiteSpace=wrap;html=1;" parent="DJH5B1Bn1w-6sPg1LVB8-100" vertex="1">
          <mxGeometry y="112" width="190" height="30" as="geometry" />
        </mxCell>
        <mxCell id="DJH5B1Bn1w-6sPg1LVB8-105" value="aluguel" style="text;strokeColor=none;fillColor=none;spacingLeft=4;spacingRight=4;overflow=hidden;rotatable=0;points=[[0,0.5],[1,0.5]];portConstraint=eastwest;fontSize=12;whiteSpace=wrap;html=1;" parent="DJH5B1Bn1w-6sPg1LVB8-100" vertex="1">
          <mxGeometry y="142" width="190" height="30" as="geometry" />
        </mxCell>
        <mxCell id="DJH5B1Bn1w-6sPg1LVB8-106" value="aluguel" style="text;strokeColor=none;fillColor=none;spacingLeft=4;spacingRight=4;overflow=hidden;rotatable=0;points=[[0,0.5],[1,0.5]];portConstraint=eastwest;fontSize=12;whiteSpace=wrap;html=1;" parent="DJH5B1Bn1w-6sPg1LVB8-100" vertex="1">
          <mxGeometry y="172" width="190" height="30" as="geometry" />
        </mxCell>
        <mxCell id="DJH5B1Bn1w-6sPg1LVB8-107" value="aluguel" style="text;strokeColor=none;fillColor=none;spacingLeft=4;spacingRight=4;overflow=hidden;rotatable=0;points=[[0,0.5],[1,0.5]];portConstraint=eastwest;fontSize=12;whiteSpace=wrap;html=1;" parent="DJH5B1Bn1w-6sPg1LVB8-100" vertex="1">
          <mxGeometry y="202" width="190" height="30" as="geometry" />
        </mxCell>
        <mxCell id="DJH5B1Bn1w-6sPg1LVB8-108" value="aluguel" style="text;strokeColor=none;fillColor=none;spacingLeft=4;spacingRight=4;overflow=hidden;rotatable=0;points=[[0,0.5],[1,0.5]];portConstraint=eastwest;fontSize=12;whiteSpace=wrap;html=1;" parent="DJH5B1Bn1w-6sPg1LVB8-100" vertex="1">
          <mxGeometry y="232" width="190" height="30" as="geometry" />
        </mxCell>
        <mxCell id="DJH5B1Bn1w-6sPg1LVB8-109" value="aluguel" style="text;strokeColor=none;fillColor=none;spacingLeft=4;spacingRight=4;overflow=hidden;rotatable=0;points=[[0,0.5],[1,0.5]];portConstraint=eastwest;fontSize=12;whiteSpace=wrap;html=1;" parent="DJH5B1Bn1w-6sPg1LVB8-100" vertex="1">
          <mxGeometry y="262" width="190" height="30" as="geometry" />
        </mxCell>
        <mxCell id="DJH5B1Bn1w-6sPg1LVB8-110" value="aluguel" style="text;strokeColor=none;fillColor=none;spacingLeft=4;spacingRight=4;overflow=hidden;rotatable=0;points=[[0,0.5],[1,0.5]];portConstraint=eastwest;fontSize=12;whiteSpace=wrap;html=1;" parent="DJH5B1Bn1w-6sPg1LVB8-100" vertex="1">
          <mxGeometry y="292" width="190" height="30" as="geometry" />
        </mxCell>
        <mxCell id="DJH5B1Bn1w-6sPg1LVB8-111" value="Zona" style="swimlane;fontStyle=0;childLayout=stackLayout;horizontal=1;startSize=26;horizontalStack=0;resizeParent=1;resizeParentMax=0;resizeLast=0;collapsible=1;marginBottom=0;align=center;fontSize=14;" parent="1" vertex="1">
          <mxGeometry x="1520" y="920" width="120" height="322" as="geometry" />
        </mxCell>
        <mxCell id="DJH5B1Bn1w-6sPg1LVB8-112" value="Velha" style="text;strokeColor=none;fillColor=none;spacingLeft=4;spacingRight=4;overflow=hidden;rotatable=0;points=[[0,0.5],[1,0.5]];portConstraint=eastwest;fontSize=12;whiteSpace=wrap;html=1;" parent="DJH5B1Bn1w-6sPg1LVB8-111" vertex="1">
          <mxGeometry y="26" width="120" height="30" as="geometry" />
        </mxCell>
        <mxCell id="DJH5B1Bn1w-6sPg1LVB8-113" value="Mitologica" style="text;strokeColor=none;fillColor=none;spacingLeft=4;spacingRight=4;overflow=hidden;rotatable=0;points=[[0,0.5],[1,0.5]];portConstraint=eastwest;fontSize=12;whiteSpace=wrap;html=1;" parent="DJH5B1Bn1w-6sPg1LVB8-111" vertex="1">
          <mxGeometry y="56" width="120" height="26" as="geometry" />
        </mxCell>
        <mxCell id="DJH5B1Bn1w-6sPg1LVB8-114" value="Covilhã" style="text;strokeColor=none;fillColor=none;spacingLeft=4;spacingRight=4;overflow=hidden;rotatable=0;points=[[0,0.5],[1,0.5]];portConstraint=eastwest;fontSize=12;whiteSpace=wrap;html=1;" parent="DJH5B1Bn1w-6sPg1LVB8-111" vertex="1">
          <mxGeometry y="82" width="120" height="30" as="geometry" />
        </mxCell>
        <mxCell id="DJH5B1Bn1w-6sPg1LVB8-115" value="Riqueza" style="text;strokeColor=none;fillColor=none;spacingLeft=4;spacingRight=4;overflow=hidden;rotatable=0;points=[[0,0.5],[1,0.5]];portConstraint=eastwest;fontSize=12;whiteSpace=wrap;html=1;" parent="DJH5B1Bn1w-6sPg1LVB8-111" vertex="1">
          <mxGeometry y="112" width="120" height="30" as="geometry" />
        </mxCell>
        <mxCell id="DJH5B1Bn1w-6sPg1LVB8-116" value="Mitologica" style="text;strokeColor=none;fillColor=none;spacingLeft=4;spacingRight=4;overflow=hidden;rotatable=0;points=[[0,0.5],[1,0.5]];portConstraint=eastwest;fontSize=12;whiteSpace=wrap;html=1;" parent="DJH5B1Bn1w-6sPg1LVB8-111" vertex="1">
          <mxGeometry y="142" width="120" height="30" as="geometry" />
        </mxCell>
        <mxCell id="DJH5B1Bn1w-6sPg1LVB8-117" value="Flores" style="text;strokeColor=none;fillColor=none;spacingLeft=4;spacingRight=4;overflow=hidden;rotatable=0;points=[[0,0.5],[1,0.5]];portConstraint=eastwest;fontSize=12;whiteSpace=wrap;html=1;" parent="DJH5B1Bn1w-6sPg1LVB8-111" vertex="1">
          <mxGeometry y="172" width="120" height="30" as="geometry" />
        </mxCell>
        <mxCell id="DJH5B1Bn1w-6sPg1LVB8-118" value="Adjetivos" style="text;strokeColor=none;fillColor=none;spacingLeft=4;spacingRight=4;overflow=hidden;rotatable=0;points=[[0,0.5],[1,0.5]];portConstraint=eastwest;fontSize=12;whiteSpace=wrap;html=1;" parent="DJH5B1Bn1w-6sPg1LVB8-111" vertex="1">
          <mxGeometry y="202" width="120" height="30" as="geometry" />
        </mxCell>
        <mxCell id="DJH5B1Bn1w-6sPg1LVB8-119" value="Sentimentos" style="text;strokeColor=none;fillColor=none;spacingLeft=4;spacingRight=4;overflow=hidden;rotatable=0;points=[[0,0.5],[1,0.5]];portConstraint=eastwest;fontSize=12;whiteSpace=wrap;html=1;" parent="DJH5B1Bn1w-6sPg1LVB8-111" vertex="1">
          <mxGeometry y="232" width="120" height="30" as="geometry" />
        </mxCell>
        <mxCell id="DJH5B1Bn1w-6sPg1LVB8-120" value="Mitologica" style="text;strokeColor=none;fillColor=none;spacingLeft=4;spacingRight=4;overflow=hidden;rotatable=0;points=[[0,0.5],[1,0.5]];portConstraint=eastwest;fontSize=12;whiteSpace=wrap;html=1;" parent="DJH5B1Bn1w-6sPg1LVB8-111" vertex="1">
          <mxGeometry y="262" width="120" height="30" as="geometry" />
        </mxCell>
        <mxCell id="DJH5B1Bn1w-6sPg1LVB8-121" value="Sentimentos" style="text;strokeColor=none;fillColor=none;spacingLeft=4;spacingRight=4;overflow=hidden;rotatable=0;points=[[0,0.5],[1,0.5]];portConstraint=eastwest;fontSize=12;whiteSpace=wrap;html=1;" parent="DJH5B1Bn1w-6sPg1LVB8-111" vertex="1">
          <mxGeometry y="292" width="120" height="30" as="geometry" />
        </mxCell>
        <mxCell id="3RQgu8nnzrXRBblZjSvK-1" value="Contrato-id" style="swimlane;fontStyle=0;childLayout=stackLayout;horizontal=1;startSize=26;horizontalStack=0;resizeParent=1;resizeParentMax=0;resizeLast=0;collapsible=1;marginBottom=0;align=center;fontSize=14;" parent="1" vertex="1">
          <mxGeometry x="850" y="1280" width="120" height="322" as="geometry" />
        </mxCell>
        <mxCell id="3RQgu8nnzrXRBblZjSvK-2" value="1" style="text;strokeColor=none;fillColor=none;spacingLeft=4;spacingRight=4;overflow=hidden;rotatable=0;points=[[0,0.5],[1,0.5]];portConstraint=eastwest;fontSize=12;whiteSpace=wrap;html=1;" parent="3RQgu8nnzrXRBblZjSvK-1" vertex="1">
          <mxGeometry y="26" width="120" height="30" as="geometry" />
        </mxCell>
        <mxCell id="3RQgu8nnzrXRBblZjSvK-3" value="2" style="text;strokeColor=none;fillColor=none;spacingLeft=4;spacingRight=4;overflow=hidden;rotatable=0;points=[[0,0.5],[1,0.5]];portConstraint=eastwest;fontSize=12;whiteSpace=wrap;html=1;" parent="3RQgu8nnzrXRBblZjSvK-1" vertex="1">
          <mxGeometry y="56" width="120" height="26" as="geometry" />
        </mxCell>
        <mxCell id="3RQgu8nnzrXRBblZjSvK-4" value="3" style="text;strokeColor=none;fillColor=none;spacingLeft=4;spacingRight=4;overflow=hidden;rotatable=0;points=[[0,0.5],[1,0.5]];portConstraint=eastwest;fontSize=12;whiteSpace=wrap;html=1;" parent="3RQgu8nnzrXRBblZjSvK-1" vertex="1">
          <mxGeometry y="82" width="120" height="30" as="geometry" />
        </mxCell>
        <mxCell id="3RQgu8nnzrXRBblZjSvK-5" value="4" style="text;strokeColor=none;fillColor=none;spacingLeft=4;spacingRight=4;overflow=hidden;rotatable=0;points=[[0,0.5],[1,0.5]];portConstraint=eastwest;fontSize=12;whiteSpace=wrap;html=1;" parent="3RQgu8nnzrXRBblZjSvK-1" vertex="1">
          <mxGeometry y="112" width="120" height="30" as="geometry" />
        </mxCell>
        <mxCell id="3RQgu8nnzrXRBblZjSvK-6" value="5" style="text;strokeColor=none;fillColor=none;spacingLeft=4;spacingRight=4;overflow=hidden;rotatable=0;points=[[0,0.5],[1,0.5]];portConstraint=eastwest;fontSize=12;whiteSpace=wrap;html=1;" parent="3RQgu8nnzrXRBblZjSvK-1" vertex="1">
          <mxGeometry y="142" width="120" height="30" as="geometry" />
        </mxCell>
        <mxCell id="3RQgu8nnzrXRBblZjSvK-7" value="6" style="text;strokeColor=none;fillColor=none;spacingLeft=4;spacingRight=4;overflow=hidden;rotatable=0;points=[[0,0.5],[1,0.5]];portConstraint=eastwest;fontSize=12;whiteSpace=wrap;html=1;" parent="3RQgu8nnzrXRBblZjSvK-1" vertex="1">
          <mxGeometry y="172" width="120" height="30" as="geometry" />
        </mxCell>
        <mxCell id="3RQgu8nnzrXRBblZjSvK-8" value="7" style="text;strokeColor=none;fillColor=none;spacingLeft=4;spacingRight=4;overflow=hidden;rotatable=0;points=[[0,0.5],[1,0.5]];portConstraint=eastwest;fontSize=12;whiteSpace=wrap;html=1;" parent="3RQgu8nnzrXRBblZjSvK-1" vertex="1">
          <mxGeometry y="202" width="120" height="30" as="geometry" />
        </mxCell>
        <mxCell id="3RQgu8nnzrXRBblZjSvK-9" value="8" style="text;strokeColor=none;fillColor=none;spacingLeft=4;spacingRight=4;overflow=hidden;rotatable=0;points=[[0,0.5],[1,0.5]];portConstraint=eastwest;fontSize=12;whiteSpace=wrap;html=1;" parent="3RQgu8nnzrXRBblZjSvK-1" vertex="1">
          <mxGeometry y="232" width="120" height="30" as="geometry" />
        </mxCell>
        <mxCell id="3RQgu8nnzrXRBblZjSvK-10" value="9" style="text;strokeColor=none;fillColor=none;spacingLeft=4;spacingRight=4;overflow=hidden;rotatable=0;points=[[0,0.5],[1,0.5]];portConstraint=eastwest;fontSize=12;whiteSpace=wrap;html=1;" parent="3RQgu8nnzrXRBblZjSvK-1" vertex="1">
          <mxGeometry y="262" width="120" height="30" as="geometry" />
        </mxCell>
        <mxCell id="3RQgu8nnzrXRBblZjSvK-11" value="10" style="text;strokeColor=none;fillColor=none;spacingLeft=4;spacingRight=4;overflow=hidden;rotatable=0;points=[[0,0.5],[1,0.5]];portConstraint=eastwest;fontSize=12;whiteSpace=wrap;html=1;" parent="3RQgu8nnzrXRBblZjSvK-1" vertex="1">
          <mxGeometry y="292" width="120" height="30" as="geometry" />
        </mxCell>
        <mxCell id="3RQgu8nnzrXRBblZjSvK-12" value="tipo" style="swimlane;fontStyle=0;childLayout=stackLayout;horizontal=1;startSize=26;horizontalStack=0;resizeParent=1;resizeParentMax=0;resizeLast=0;collapsible=1;marginBottom=0;align=center;fontSize=14;" parent="1" vertex="1">
          <mxGeometry x="970" y="1280" width="120" height="322" as="geometry" />
        </mxCell>
        <mxCell id="3RQgu8nnzrXRBblZjSvK-13" value="aluguel" style="text;strokeColor=none;fillColor=none;spacingLeft=4;spacingRight=4;overflow=hidden;rotatable=0;points=[[0,0.5],[1,0.5]];portConstraint=eastwest;fontSize=12;whiteSpace=wrap;html=1;" parent="3RQgu8nnzrXRBblZjSvK-12" vertex="1">
          <mxGeometry y="26" width="120" height="30" as="geometry" />
        </mxCell>
        <mxCell id="3RQgu8nnzrXRBblZjSvK-14" value="aluguel" style="text;strokeColor=none;fillColor=none;spacingLeft=4;spacingRight=4;overflow=hidden;rotatable=0;points=[[0,0.5],[1,0.5]];portConstraint=eastwest;fontSize=12;whiteSpace=wrap;html=1;" parent="3RQgu8nnzrXRBblZjSvK-12" vertex="1">
          <mxGeometry y="56" width="120" height="26" as="geometry" />
        </mxCell>
        <mxCell id="3RQgu8nnzrXRBblZjSvK-15" value="aluguel" style="text;strokeColor=none;fillColor=none;spacingLeft=4;spacingRight=4;overflow=hidden;rotatable=0;points=[[0,0.5],[1,0.5]];portConstraint=eastwest;fontSize=12;whiteSpace=wrap;html=1;" parent="3RQgu8nnzrXRBblZjSvK-12" vertex="1">
          <mxGeometry y="82" width="120" height="30" as="geometry" />
        </mxCell>
        <mxCell id="3RQgu8nnzrXRBblZjSvK-16" value="aluguel" style="text;strokeColor=none;fillColor=none;spacingLeft=4;spacingRight=4;overflow=hidden;rotatable=0;points=[[0,0.5],[1,0.5]];portConstraint=eastwest;fontSize=12;whiteSpace=wrap;html=1;" parent="3RQgu8nnzrXRBblZjSvK-12" vertex="1">
          <mxGeometry y="112" width="120" height="30" as="geometry" />
        </mxCell>
        <mxCell id="3RQgu8nnzrXRBblZjSvK-17" value="aluguel" style="text;strokeColor=none;fillColor=none;spacingLeft=4;spacingRight=4;overflow=hidden;rotatable=0;points=[[0,0.5],[1,0.5]];portConstraint=eastwest;fontSize=12;whiteSpace=wrap;html=1;" parent="3RQgu8nnzrXRBblZjSvK-12" vertex="1">
          <mxGeometry y="142" width="120" height="30" as="geometry" />
        </mxCell>
        <mxCell id="3RQgu8nnzrXRBblZjSvK-18" value="aluguel" style="text;strokeColor=none;fillColor=none;spacingLeft=4;spacingRight=4;overflow=hidden;rotatable=0;points=[[0,0.5],[1,0.5]];portConstraint=eastwest;fontSize=12;whiteSpace=wrap;html=1;" parent="3RQgu8nnzrXRBblZjSvK-12" vertex="1">
          <mxGeometry y="172" width="120" height="30" as="geometry" />
        </mxCell>
        <mxCell id="3RQgu8nnzrXRBblZjSvK-19" value="aluguel" style="text;strokeColor=none;fillColor=none;spacingLeft=4;spacingRight=4;overflow=hidden;rotatable=0;points=[[0,0.5],[1,0.5]];portConstraint=eastwest;fontSize=12;whiteSpace=wrap;html=1;" parent="3RQgu8nnzrXRBblZjSvK-12" vertex="1">
          <mxGeometry y="202" width="120" height="30" as="geometry" />
        </mxCell>
        <mxCell id="3RQgu8nnzrXRBblZjSvK-20" value="aluguel" style="text;strokeColor=none;fillColor=none;spacingLeft=4;spacingRight=4;overflow=hidden;rotatable=0;points=[[0,0.5],[1,0.5]];portConstraint=eastwest;fontSize=12;whiteSpace=wrap;html=1;" parent="3RQgu8nnzrXRBblZjSvK-12" vertex="1">
          <mxGeometry y="232" width="120" height="30" as="geometry" />
        </mxCell>
        <mxCell id="3RQgu8nnzrXRBblZjSvK-21" value="aluguel" style="text;strokeColor=none;fillColor=none;spacingLeft=4;spacingRight=4;overflow=hidden;rotatable=0;points=[[0,0.5],[1,0.5]];portConstraint=eastwest;fontSize=12;whiteSpace=wrap;html=1;" parent="3RQgu8nnzrXRBblZjSvK-12" vertex="1">
          <mxGeometry y="262" width="120" height="30" as="geometry" />
        </mxCell>
        <mxCell id="3RQgu8nnzrXRBblZjSvK-22" value="aluguel" style="text;strokeColor=none;fillColor=none;spacingLeft=4;spacingRight=4;overflow=hidden;rotatable=0;points=[[0,0.5],[1,0.5]];portConstraint=eastwest;fontSize=12;whiteSpace=wrap;html=1;" parent="3RQgu8nnzrXRBblZjSvK-12" vertex="1">
          <mxGeometry y="292" width="120" height="30" as="geometry" />
        </mxCell>
        <mxCell id="3RQgu8nnzrXRBblZjSvK-23" value="Data inicio" style="swimlane;fontStyle=0;childLayout=stackLayout;horizontal=1;startSize=26;horizontalStack=0;resizeParent=1;resizeParentMax=0;resizeLast=0;collapsible=1;marginBottom=0;align=center;fontSize=14;" parent="1" vertex="1">
          <mxGeometry x="1090" y="1280" width="120" height="322" as="geometry" />
        </mxCell>
        <mxCell id="3RQgu8nnzrXRBblZjSvK-24" value="22-10-2020" style="text;strokeColor=none;fillColor=none;spacingLeft=4;spacingRight=4;overflow=hidden;rotatable=0;points=[[0,0.5],[1,0.5]];portConstraint=eastwest;fontSize=12;whiteSpace=wrap;html=1;" parent="3RQgu8nnzrXRBblZjSvK-23" vertex="1">
          <mxGeometry y="26" width="120" height="30" as="geometry" />
        </mxCell>
        <mxCell id="3RQgu8nnzrXRBblZjSvK-25" value="11-10-2007" style="text;strokeColor=none;fillColor=none;spacingLeft=4;spacingRight=4;overflow=hidden;rotatable=0;points=[[0,0.5],[1,0.5]];portConstraint=eastwest;fontSize=12;whiteSpace=wrap;html=1;" parent="3RQgu8nnzrXRBblZjSvK-23" vertex="1">
          <mxGeometry y="56" width="120" height="26" as="geometry" />
        </mxCell>
        <mxCell id="3RQgu8nnzrXRBblZjSvK-26" value="11-9-2001" style="text;strokeColor=none;fillColor=none;spacingLeft=4;spacingRight=4;overflow=hidden;rotatable=0;points=[[0,0.5],[1,0.5]];portConstraint=eastwest;fontSize=12;whiteSpace=wrap;html=1;" parent="3RQgu8nnzrXRBblZjSvK-23" vertex="1">
          <mxGeometry y="82" width="120" height="30" as="geometry" />
        </mxCell>
        <mxCell id="3RQgu8nnzrXRBblZjSvK-27" value="11-6-2006" style="text;strokeColor=none;fillColor=none;spacingLeft=4;spacingRight=4;overflow=hidden;rotatable=0;points=[[0,0.5],[1,0.5]];portConstraint=eastwest;fontSize=12;whiteSpace=wrap;html=1;" parent="3RQgu8nnzrXRBblZjSvK-23" vertex="1">
          <mxGeometry y="112" width="120" height="30" as="geometry" />
        </mxCell>
        <mxCell id="3RQgu8nnzrXRBblZjSvK-28" value="27-10-2006" style="text;strokeColor=none;fillColor=none;spacingLeft=4;spacingRight=4;overflow=hidden;rotatable=0;points=[[0,0.5],[1,0.5]];portConstraint=eastwest;fontSize=12;whiteSpace=wrap;html=1;" parent="3RQgu8nnzrXRBblZjSvK-23" vertex="1">
          <mxGeometry y="142" width="120" height="30" as="geometry" />
        </mxCell>
        <mxCell id="3RQgu8nnzrXRBblZjSvK-29" value="21-5-2023" style="text;strokeColor=none;fillColor=none;spacingLeft=4;spacingRight=4;overflow=hidden;rotatable=0;points=[[0,0.5],[1,0.5]];portConstraint=eastwest;fontSize=12;whiteSpace=wrap;html=1;" parent="3RQgu8nnzrXRBblZjSvK-23" vertex="1">
          <mxGeometry y="172" width="120" height="30" as="geometry" />
        </mxCell>
        <mxCell id="3RQgu8nnzrXRBblZjSvK-30" value="25-11-2022" style="text;strokeColor=none;fillColor=none;spacingLeft=4;spacingRight=4;overflow=hidden;rotatable=0;points=[[0,0.5],[1,0.5]];portConstraint=eastwest;fontSize=12;whiteSpace=wrap;html=1;" parent="3RQgu8nnzrXRBblZjSvK-23" vertex="1">
          <mxGeometry y="202" width="120" height="30" as="geometry" />
        </mxCell>
        <mxCell id="3RQgu8nnzrXRBblZjSvK-31" value="29-2-2000" style="text;strokeColor=none;fillColor=none;spacingLeft=4;spacingRight=4;overflow=hidden;rotatable=0;points=[[0,0.5],[1,0.5]];portConstraint=eastwest;fontSize=12;whiteSpace=wrap;html=1;" parent="3RQgu8nnzrXRBblZjSvK-23" vertex="1">
          <mxGeometry y="232" width="120" height="30" as="geometry" />
        </mxCell>
        <mxCell id="3RQgu8nnzrXRBblZjSvK-32" value="21-4-2015" style="text;strokeColor=none;fillColor=none;spacingLeft=4;spacingRight=4;overflow=hidden;rotatable=0;points=[[0,0.5],[1,0.5]];portConstraint=eastwest;fontSize=12;whiteSpace=wrap;html=1;" parent="3RQgu8nnzrXRBblZjSvK-23" vertex="1">
          <mxGeometry y="262" width="120" height="30" as="geometry" />
        </mxCell>
        <mxCell id="3RQgu8nnzrXRBblZjSvK-33" value="16-9-2019" style="text;strokeColor=none;fillColor=none;spacingLeft=4;spacingRight=4;overflow=hidden;rotatable=0;points=[[0,0.5],[1,0.5]];portConstraint=eastwest;fontSize=12;whiteSpace=wrap;html=1;" parent="3RQgu8nnzrXRBblZjSvK-23" vertex="1">
          <mxGeometry y="292" width="120" height="30" as="geometry" />
        </mxCell>
        <mxCell id="3RQgu8nnzrXRBblZjSvK-34" value="periodo" style="swimlane;fontStyle=0;childLayout=stackLayout;horizontal=1;startSize=26;horizontalStack=0;resizeParent=1;resizeParentMax=0;resizeLast=0;collapsible=1;marginBottom=0;align=center;fontSize=14;" parent="1" vertex="1">
          <mxGeometry x="1210" y="1280" width="120" height="322" as="geometry" />
        </mxCell>
        <mxCell id="3RQgu8nnzrXRBblZjSvK-35" value="mensal" style="text;strokeColor=none;fillColor=none;spacingLeft=4;spacingRight=4;overflow=hidden;rotatable=0;points=[[0,0.5],[1,0.5]];portConstraint=eastwest;fontSize=12;whiteSpace=wrap;html=1;" parent="3RQgu8nnzrXRBblZjSvK-34" vertex="1">
          <mxGeometry y="26" width="120" height="30" as="geometry" />
        </mxCell>
        <mxCell id="3RQgu8nnzrXRBblZjSvK-36" value="semanal" style="text;strokeColor=none;fillColor=none;spacingLeft=4;spacingRight=4;overflow=hidden;rotatable=0;points=[[0,0.5],[1,0.5]];portConstraint=eastwest;fontSize=12;whiteSpace=wrap;html=1;" parent="3RQgu8nnzrXRBblZjSvK-34" vertex="1">
          <mxGeometry y="56" width="120" height="26" as="geometry" />
        </mxCell>
        <mxCell id="3RQgu8nnzrXRBblZjSvK-37" value="anual" style="text;strokeColor=none;fillColor=none;spacingLeft=4;spacingRight=4;overflow=hidden;rotatable=0;points=[[0,0.5],[1,0.5]];portConstraint=eastwest;fontSize=12;whiteSpace=wrap;html=1;" parent="3RQgu8nnzrXRBblZjSvK-34" vertex="1">
          <mxGeometry y="82" width="120" height="30" as="geometry" />
        </mxCell>
        <mxCell id="3RQgu8nnzrXRBblZjSvK-38" value="mensal" style="text;strokeColor=none;fillColor=none;spacingLeft=4;spacingRight=4;overflow=hidden;rotatable=0;points=[[0,0.5],[1,0.5]];portConstraint=eastwest;fontSize=12;whiteSpace=wrap;html=1;" parent="3RQgu8nnzrXRBblZjSvK-34" vertex="1">
          <mxGeometry y="112" width="120" height="30" as="geometry" />
        </mxCell>
        <mxCell id="3RQgu8nnzrXRBblZjSvK-39" value="mensal" style="text;strokeColor=none;fillColor=none;spacingLeft=4;spacingRight=4;overflow=hidden;rotatable=0;points=[[0,0.5],[1,0.5]];portConstraint=eastwest;fontSize=12;whiteSpace=wrap;html=1;" parent="3RQgu8nnzrXRBblZjSvK-34" vertex="1">
          <mxGeometry y="142" width="120" height="30" as="geometry" />
        </mxCell>
        <mxCell id="3RQgu8nnzrXRBblZjSvK-40" value="mensal" style="text;strokeColor=none;fillColor=none;spacingLeft=4;spacingRight=4;overflow=hidden;rotatable=0;points=[[0,0.5],[1,0.5]];portConstraint=eastwest;fontSize=12;whiteSpace=wrap;html=1;" parent="3RQgu8nnzrXRBblZjSvK-34" vertex="1">
          <mxGeometry y="172" width="120" height="30" as="geometry" />
        </mxCell>
        <mxCell id="3RQgu8nnzrXRBblZjSvK-41" value="mensal" style="text;strokeColor=none;fillColor=none;spacingLeft=4;spacingRight=4;overflow=hidden;rotatable=0;points=[[0,0.5],[1,0.5]];portConstraint=eastwest;fontSize=12;whiteSpace=wrap;html=1;" parent="3RQgu8nnzrXRBblZjSvK-34" vertex="1">
          <mxGeometry y="202" width="120" height="30" as="geometry" />
        </mxCell>
        <mxCell id="3RQgu8nnzrXRBblZjSvK-42" value="mensal" style="text;strokeColor=none;fillColor=none;spacingLeft=4;spacingRight=4;overflow=hidden;rotatable=0;points=[[0,0.5],[1,0.5]];portConstraint=eastwest;fontSize=12;whiteSpace=wrap;html=1;" parent="3RQgu8nnzrXRBblZjSvK-34" vertex="1">
          <mxGeometry y="232" width="120" height="30" as="geometry" />
        </mxCell>
        <mxCell id="3RQgu8nnzrXRBblZjSvK-43" value="mensal" style="text;strokeColor=none;fillColor=none;spacingLeft=4;spacingRight=4;overflow=hidden;rotatable=0;points=[[0,0.5],[1,0.5]];portConstraint=eastwest;fontSize=12;whiteSpace=wrap;html=1;" parent="3RQgu8nnzrXRBblZjSvK-34" vertex="1">
          <mxGeometry y="262" width="120" height="30" as="geometry" />
        </mxCell>
        <mxCell id="3RQgu8nnzrXRBblZjSvK-44" value="mensal" style="text;strokeColor=none;fillColor=none;spacingLeft=4;spacingRight=4;overflow=hidden;rotatable=0;points=[[0,0.5],[1,0.5]];portConstraint=eastwest;fontSize=12;whiteSpace=wrap;html=1;" parent="3RQgu8nnzrXRBblZjSvK-34" vertex="1">
          <mxGeometry y="292" width="120" height="30" as="geometry" />
        </mxCell>
        <mxCell id="3RQgu8nnzrXRBblZjSvK-67" value="Imovél-id" style="swimlane;fontStyle=0;childLayout=stackLayout;horizontal=1;startSize=26;horizontalStack=0;resizeParent=1;resizeParentMax=0;resizeLast=0;collapsible=1;marginBottom=0;align=center;fontSize=14;" parent="1" vertex="1">
          <mxGeometry x="1330" y="1280" width="120" height="322" as="geometry" />
        </mxCell>
        <mxCell id="3RQgu8nnzrXRBblZjSvK-68" value="1" style="text;strokeColor=none;fillColor=none;spacingLeft=4;spacingRight=4;overflow=hidden;rotatable=0;points=[[0,0.5],[1,0.5]];portConstraint=eastwest;fontSize=12;whiteSpace=wrap;html=1;" parent="3RQgu8nnzrXRBblZjSvK-67" vertex="1">
          <mxGeometry y="26" width="120" height="30" as="geometry" />
        </mxCell>
        <mxCell id="3RQgu8nnzrXRBblZjSvK-69" value="2" style="text;strokeColor=none;fillColor=none;spacingLeft=4;spacingRight=4;overflow=hidden;rotatable=0;points=[[0,0.5],[1,0.5]];portConstraint=eastwest;fontSize=12;whiteSpace=wrap;html=1;" parent="3RQgu8nnzrXRBblZjSvK-67" vertex="1">
          <mxGeometry y="56" width="120" height="26" as="geometry" />
        </mxCell>
        <mxCell id="3RQgu8nnzrXRBblZjSvK-70" value="3" style="text;strokeColor=none;fillColor=none;spacingLeft=4;spacingRight=4;overflow=hidden;rotatable=0;points=[[0,0.5],[1,0.5]];portConstraint=eastwest;fontSize=12;whiteSpace=wrap;html=1;" parent="3RQgu8nnzrXRBblZjSvK-67" vertex="1">
          <mxGeometry y="82" width="120" height="30" as="geometry" />
        </mxCell>
        <mxCell id="3RQgu8nnzrXRBblZjSvK-71" value="4" style="text;strokeColor=none;fillColor=none;spacingLeft=4;spacingRight=4;overflow=hidden;rotatable=0;points=[[0,0.5],[1,0.5]];portConstraint=eastwest;fontSize=12;whiteSpace=wrap;html=1;" parent="3RQgu8nnzrXRBblZjSvK-67" vertex="1">
          <mxGeometry y="112" width="120" height="30" as="geometry" />
        </mxCell>
        <mxCell id="3RQgu8nnzrXRBblZjSvK-72" value="5" style="text;strokeColor=none;fillColor=none;spacingLeft=4;spacingRight=4;overflow=hidden;rotatable=0;points=[[0,0.5],[1,0.5]];portConstraint=eastwest;fontSize=12;whiteSpace=wrap;html=1;" parent="3RQgu8nnzrXRBblZjSvK-67" vertex="1">
          <mxGeometry y="142" width="120" height="30" as="geometry" />
        </mxCell>
        <mxCell id="3RQgu8nnzrXRBblZjSvK-73" value="6" style="text;strokeColor=none;fillColor=none;spacingLeft=4;spacingRight=4;overflow=hidden;rotatable=0;points=[[0,0.5],[1,0.5]];portConstraint=eastwest;fontSize=12;whiteSpace=wrap;html=1;" parent="3RQgu8nnzrXRBblZjSvK-67" vertex="1">
          <mxGeometry y="172" width="120" height="30" as="geometry" />
        </mxCell>
        <mxCell id="3RQgu8nnzrXRBblZjSvK-74" value="7" style="text;strokeColor=none;fillColor=none;spacingLeft=4;spacingRight=4;overflow=hidden;rotatable=0;points=[[0,0.5],[1,0.5]];portConstraint=eastwest;fontSize=12;whiteSpace=wrap;html=1;" parent="3RQgu8nnzrXRBblZjSvK-67" vertex="1">
          <mxGeometry y="202" width="120" height="30" as="geometry" />
        </mxCell>
        <mxCell id="3RQgu8nnzrXRBblZjSvK-75" value="10" style="text;strokeColor=none;fillColor=none;spacingLeft=4;spacingRight=4;overflow=hidden;rotatable=0;points=[[0,0.5],[1,0.5]];portConstraint=eastwest;fontSize=12;whiteSpace=wrap;html=1;" parent="3RQgu8nnzrXRBblZjSvK-67" vertex="1">
          <mxGeometry y="232" width="120" height="30" as="geometry" />
        </mxCell>
        <mxCell id="3RQgu8nnzrXRBblZjSvK-76" value="9" style="text;strokeColor=none;fillColor=none;spacingLeft=4;spacingRight=4;overflow=hidden;rotatable=0;points=[[0,0.5],[1,0.5]];portConstraint=eastwest;fontSize=12;whiteSpace=wrap;html=1;" parent="3RQgu8nnzrXRBblZjSvK-67" vertex="1">
          <mxGeometry y="262" width="120" height="30" as="geometry" />
        </mxCell>
        <mxCell id="3RQgu8nnzrXRBblZjSvK-77" value="8" style="text;strokeColor=none;fillColor=none;spacingLeft=4;spacingRight=4;overflow=hidden;rotatable=0;points=[[0,0.5],[1,0.5]];portConstraint=eastwest;fontSize=12;whiteSpace=wrap;html=1;" parent="3RQgu8nnzrXRBblZjSvK-67" vertex="1">
          <mxGeometry y="292" width="120" height="30" as="geometry" />
        </mxCell>
        <mxCell id="3RQgu8nnzrXRBblZjSvK-78" value="Cliente-id" style="swimlane;fontStyle=0;childLayout=stackLayout;horizontal=1;startSize=26;horizontalStack=0;resizeParent=1;resizeParentMax=0;resizeLast=0;collapsible=1;marginBottom=0;align=center;fontSize=14;" parent="1" vertex="1">
          <mxGeometry x="1450" y="1280" width="120" height="322" as="geometry" />
        </mxCell>
        <mxCell id="3RQgu8nnzrXRBblZjSvK-79" value="1" style="text;strokeColor=none;fillColor=none;spacingLeft=4;spacingRight=4;overflow=hidden;rotatable=0;points=[[0,0.5],[1,0.5]];portConstraint=eastwest;fontSize=12;whiteSpace=wrap;html=1;" parent="3RQgu8nnzrXRBblZjSvK-78" vertex="1">
          <mxGeometry y="26" width="120" height="30" as="geometry" />
        </mxCell>
        <mxCell id="3RQgu8nnzrXRBblZjSvK-80" value="2" style="text;strokeColor=none;fillColor=none;spacingLeft=4;spacingRight=4;overflow=hidden;rotatable=0;points=[[0,0.5],[1,0.5]];portConstraint=eastwest;fontSize=12;whiteSpace=wrap;html=1;" parent="3RQgu8nnzrXRBblZjSvK-78" vertex="1">
          <mxGeometry y="56" width="120" height="26" as="geometry" />
        </mxCell>
        <mxCell id="3RQgu8nnzrXRBblZjSvK-81" value="3" style="text;strokeColor=none;fillColor=none;spacingLeft=4;spacingRight=4;overflow=hidden;rotatable=0;points=[[0,0.5],[1,0.5]];portConstraint=eastwest;fontSize=12;whiteSpace=wrap;html=1;" parent="3RQgu8nnzrXRBblZjSvK-78" vertex="1">
          <mxGeometry y="82" width="120" height="30" as="geometry" />
        </mxCell>
        <mxCell id="3RQgu8nnzrXRBblZjSvK-82" value="4" style="text;strokeColor=none;fillColor=none;spacingLeft=4;spacingRight=4;overflow=hidden;rotatable=0;points=[[0,0.5],[1,0.5]];portConstraint=eastwest;fontSize=12;whiteSpace=wrap;html=1;" parent="3RQgu8nnzrXRBblZjSvK-78" vertex="1">
          <mxGeometry y="112" width="120" height="30" as="geometry" />
        </mxCell>
        <mxCell id="3RQgu8nnzrXRBblZjSvK-83" value="5" style="text;strokeColor=none;fillColor=none;spacingLeft=4;spacingRight=4;overflow=hidden;rotatable=0;points=[[0,0.5],[1,0.5]];portConstraint=eastwest;fontSize=12;whiteSpace=wrap;html=1;" parent="3RQgu8nnzrXRBblZjSvK-78" vertex="1">
          <mxGeometry y="142" width="120" height="30" as="geometry" />
        </mxCell>
        <mxCell id="3RQgu8nnzrXRBblZjSvK-84" value="6" style="text;strokeColor=none;fillColor=none;spacingLeft=4;spacingRight=4;overflow=hidden;rotatable=0;points=[[0,0.5],[1,0.5]];portConstraint=eastwest;fontSize=12;whiteSpace=wrap;html=1;" parent="3RQgu8nnzrXRBblZjSvK-78" vertex="1">
          <mxGeometry y="172" width="120" height="30" as="geometry" />
        </mxCell>
        <mxCell id="3RQgu8nnzrXRBblZjSvK-85" value="7" style="text;strokeColor=none;fillColor=none;spacingLeft=4;spacingRight=4;overflow=hidden;rotatable=0;points=[[0,0.5],[1,0.5]];portConstraint=eastwest;fontSize=12;whiteSpace=wrap;html=1;" parent="3RQgu8nnzrXRBblZjSvK-78" vertex="1">
          <mxGeometry y="202" width="120" height="30" as="geometry" />
        </mxCell>
        <mxCell id="3RQgu8nnzrXRBblZjSvK-86" value="8" style="text;strokeColor=none;fillColor=none;spacingLeft=4;spacingRight=4;overflow=hidden;rotatable=0;points=[[0,0.5],[1,0.5]];portConstraint=eastwest;fontSize=12;whiteSpace=wrap;html=1;" parent="3RQgu8nnzrXRBblZjSvK-78" vertex="1">
          <mxGeometry y="232" width="120" height="30" as="geometry" />
        </mxCell>
        <mxCell id="3RQgu8nnzrXRBblZjSvK-87" value="9" style="text;strokeColor=none;fillColor=none;spacingLeft=4;spacingRight=4;overflow=hidden;rotatable=0;points=[[0,0.5],[1,0.5]];portConstraint=eastwest;fontSize=12;whiteSpace=wrap;html=1;" parent="3RQgu8nnzrXRBblZjSvK-78" vertex="1">
          <mxGeometry y="262" width="120" height="30" as="geometry" />
        </mxCell>
        <mxCell id="3RQgu8nnzrXRBblZjSvK-88" value="10" style="text;strokeColor=none;fillColor=none;spacingLeft=4;spacingRight=4;overflow=hidden;rotatable=0;points=[[0,0.5],[1,0.5]];portConstraint=eastwest;fontSize=12;whiteSpace=wrap;html=1;" parent="3RQgu8nnzrXRBblZjSvK-78" vertex="1">
          <mxGeometry y="292" width="120" height="30" as="geometry" />
        </mxCell>
        <mxCell id="3RQgu8nnzrXRBblZjSvK-89" value="Agente-id" style="swimlane;fontStyle=0;childLayout=stackLayout;horizontal=1;startSize=26;horizontalStack=0;resizeParent=1;resizeParentMax=0;resizeLast=0;collapsible=1;marginBottom=0;align=center;fontSize=14;" parent="1" vertex="1">
          <mxGeometry x="1570" y="1280" width="120" height="322" as="geometry" />
        </mxCell>
        <mxCell id="3RQgu8nnzrXRBblZjSvK-90" value="1" style="text;strokeColor=none;fillColor=none;spacingLeft=4;spacingRight=4;overflow=hidden;rotatable=0;points=[[0,0.5],[1,0.5]];portConstraint=eastwest;fontSize=12;whiteSpace=wrap;html=1;" parent="3RQgu8nnzrXRBblZjSvK-89" vertex="1">
          <mxGeometry y="26" width="120" height="30" as="geometry" />
        </mxCell>
        <mxCell id="3RQgu8nnzrXRBblZjSvK-91" value="2" style="text;strokeColor=none;fillColor=none;spacingLeft=4;spacingRight=4;overflow=hidden;rotatable=0;points=[[0,0.5],[1,0.5]];portConstraint=eastwest;fontSize=12;whiteSpace=wrap;html=1;" parent="3RQgu8nnzrXRBblZjSvK-89" vertex="1">
          <mxGeometry y="56" width="120" height="26" as="geometry" />
        </mxCell>
        <mxCell id="3RQgu8nnzrXRBblZjSvK-92" value="3" style="text;strokeColor=none;fillColor=none;spacingLeft=4;spacingRight=4;overflow=hidden;rotatable=0;points=[[0,0.5],[1,0.5]];portConstraint=eastwest;fontSize=12;whiteSpace=wrap;html=1;" parent="3RQgu8nnzrXRBblZjSvK-89" vertex="1">
          <mxGeometry y="82" width="120" height="30" as="geometry" />
        </mxCell>
        <mxCell id="3RQgu8nnzrXRBblZjSvK-93" value="4" style="text;strokeColor=none;fillColor=none;spacingLeft=4;spacingRight=4;overflow=hidden;rotatable=0;points=[[0,0.5],[1,0.5]];portConstraint=eastwest;fontSize=12;whiteSpace=wrap;html=1;" parent="3RQgu8nnzrXRBblZjSvK-89" vertex="1">
          <mxGeometry y="112" width="120" height="30" as="geometry" />
        </mxCell>
        <mxCell id="3RQgu8nnzrXRBblZjSvK-94" value="5" style="text;strokeColor=none;fillColor=none;spacingLeft=4;spacingRight=4;overflow=hidden;rotatable=0;points=[[0,0.5],[1,0.5]];portConstraint=eastwest;fontSize=12;whiteSpace=wrap;html=1;" parent="3RQgu8nnzrXRBblZjSvK-89" vertex="1">
          <mxGeometry y="142" width="120" height="30" as="geometry" />
        </mxCell>
        <mxCell id="3RQgu8nnzrXRBblZjSvK-95" value="6" style="text;strokeColor=none;fillColor=none;spacingLeft=4;spacingRight=4;overflow=hidden;rotatable=0;points=[[0,0.5],[1,0.5]];portConstraint=eastwest;fontSize=12;whiteSpace=wrap;html=1;" parent="3RQgu8nnzrXRBblZjSvK-89" vertex="1">
          <mxGeometry y="172" width="120" height="30" as="geometry" />
        </mxCell>
        <mxCell id="3RQgu8nnzrXRBblZjSvK-96" value="7" style="text;strokeColor=none;fillColor=none;spacingLeft=4;spacingRight=4;overflow=hidden;rotatable=0;points=[[0,0.5],[1,0.5]];portConstraint=eastwest;fontSize=12;whiteSpace=wrap;html=1;" parent="3RQgu8nnzrXRBblZjSvK-89" vertex="1">
          <mxGeometry y="202" width="120" height="30" as="geometry" />
        </mxCell>
        <mxCell id="3RQgu8nnzrXRBblZjSvK-97" value="8" style="text;strokeColor=none;fillColor=none;spacingLeft=4;spacingRight=4;overflow=hidden;rotatable=0;points=[[0,0.5],[1,0.5]];portConstraint=eastwest;fontSize=12;whiteSpace=wrap;html=1;" parent="3RQgu8nnzrXRBblZjSvK-89" vertex="1">
          <mxGeometry y="232" width="120" height="30" as="geometry" />
        </mxCell>
        <mxCell id="3RQgu8nnzrXRBblZjSvK-98" value="9" style="text;strokeColor=none;fillColor=none;spacingLeft=4;spacingRight=4;overflow=hidden;rotatable=0;points=[[0,0.5],[1,0.5]];portConstraint=eastwest;fontSize=12;whiteSpace=wrap;html=1;" parent="3RQgu8nnzrXRBblZjSvK-89" vertex="1">
          <mxGeometry y="262" width="120" height="30" as="geometry" />
        </mxCell>
        <mxCell id="3RQgu8nnzrXRBblZjSvK-99" value="10" style="text;strokeColor=none;fillColor=none;spacingLeft=4;spacingRight=4;overflow=hidden;rotatable=0;points=[[0,0.5],[1,0.5]];portConstraint=eastwest;fontSize=12;whiteSpace=wrap;html=1;" parent="3RQgu8nnzrXRBblZjSvK-89" vertex="1">
          <mxGeometry y="292" width="120" height="30" as="geometry" />
        </mxCell>
        <mxCell id="3RQgu8nnzrXRBblZjSvK-100" value="Proprietário-id" style="swimlane;fontStyle=0;childLayout=stackLayout;horizontal=1;startSize=26;horizontalStack=0;resizeParent=1;resizeParentMax=0;resizeLast=0;collapsible=1;marginBottom=0;align=center;fontSize=14;" parent="1" vertex="1">
          <mxGeometry x="1690" y="1280" width="120" height="322" as="geometry" />
        </mxCell>
        <mxCell id="3RQgu8nnzrXRBblZjSvK-101" value="10" style="text;strokeColor=none;fillColor=none;spacingLeft=4;spacingRight=4;overflow=hidden;rotatable=0;points=[[0,0.5],[1,0.5]];portConstraint=eastwest;fontSize=12;whiteSpace=wrap;html=1;" parent="3RQgu8nnzrXRBblZjSvK-100" vertex="1">
          <mxGeometry y="26" width="120" height="30" as="geometry" />
        </mxCell>
        <mxCell id="3RQgu8nnzrXRBblZjSvK-102" value="9" style="text;strokeColor=none;fillColor=none;spacingLeft=4;spacingRight=4;overflow=hidden;rotatable=0;points=[[0,0.5],[1,0.5]];portConstraint=eastwest;fontSize=12;whiteSpace=wrap;html=1;" parent="3RQgu8nnzrXRBblZjSvK-100" vertex="1">
          <mxGeometry y="56" width="120" height="26" as="geometry" />
        </mxCell>
        <mxCell id="3RQgu8nnzrXRBblZjSvK-103" value="3" style="text;strokeColor=none;fillColor=none;spacingLeft=4;spacingRight=4;overflow=hidden;rotatable=0;points=[[0,0.5],[1,0.5]];portConstraint=eastwest;fontSize=12;whiteSpace=wrap;html=1;" parent="3RQgu8nnzrXRBblZjSvK-100" vertex="1">
          <mxGeometry y="82" width="120" height="30" as="geometry" />
        </mxCell>
        <mxCell id="3RQgu8nnzrXRBblZjSvK-104" value="4" style="text;strokeColor=none;fillColor=none;spacingLeft=4;spacingRight=4;overflow=hidden;rotatable=0;points=[[0,0.5],[1,0.5]];portConstraint=eastwest;fontSize=12;whiteSpace=wrap;html=1;" parent="3RQgu8nnzrXRBblZjSvK-100" vertex="1">
          <mxGeometry y="112" width="120" height="30" as="geometry" />
        </mxCell>
        <mxCell id="3RQgu8nnzrXRBblZjSvK-105" value="5" style="text;strokeColor=none;fillColor=none;spacingLeft=4;spacingRight=4;overflow=hidden;rotatable=0;points=[[0,0.5],[1,0.5]];portConstraint=eastwest;fontSize=12;whiteSpace=wrap;html=1;" parent="3RQgu8nnzrXRBblZjSvK-100" vertex="1">
          <mxGeometry y="142" width="120" height="30" as="geometry" />
        </mxCell>
        <mxCell id="3RQgu8nnzrXRBblZjSvK-106" value="6" style="text;strokeColor=none;fillColor=none;spacingLeft=4;spacingRight=4;overflow=hidden;rotatable=0;points=[[0,0.5],[1,0.5]];portConstraint=eastwest;fontSize=12;whiteSpace=wrap;html=1;" parent="3RQgu8nnzrXRBblZjSvK-100" vertex="1">
          <mxGeometry y="172" width="120" height="30" as="geometry" />
        </mxCell>
        <mxCell id="3RQgu8nnzrXRBblZjSvK-107" value="7" style="text;strokeColor=none;fillColor=none;spacingLeft=4;spacingRight=4;overflow=hidden;rotatable=0;points=[[0,0.5],[1,0.5]];portConstraint=eastwest;fontSize=12;whiteSpace=wrap;html=1;" parent="3RQgu8nnzrXRBblZjSvK-100" vertex="1">
          <mxGeometry y="202" width="120" height="30" as="geometry" />
        </mxCell>
        <mxCell id="3RQgu8nnzrXRBblZjSvK-108" value="8" style="text;strokeColor=none;fillColor=none;spacingLeft=4;spacingRight=4;overflow=hidden;rotatable=0;points=[[0,0.5],[1,0.5]];portConstraint=eastwest;fontSize=12;whiteSpace=wrap;html=1;" parent="3RQgu8nnzrXRBblZjSvK-100" vertex="1">
          <mxGeometry y="232" width="120" height="30" as="geometry" />
        </mxCell>
        <mxCell id="3RQgu8nnzrXRBblZjSvK-109" value="2" style="text;strokeColor=none;fillColor=none;spacingLeft=4;spacingRight=4;overflow=hidden;rotatable=0;points=[[0,0.5],[1,0.5]];portConstraint=eastwest;fontSize=12;whiteSpace=wrap;html=1;" parent="3RQgu8nnzrXRBblZjSvK-100" vertex="1">
          <mxGeometry y="262" width="120" height="30" as="geometry" />
        </mxCell>
        <mxCell id="3RQgu8nnzrXRBblZjSvK-110" value="1" style="text;strokeColor=none;fillColor=none;spacingLeft=4;spacingRight=4;overflow=hidden;rotatable=0;points=[[0,0.5],[1,0.5]];portConstraint=eastwest;fontSize=12;whiteSpace=wrap;html=1;" parent="3RQgu8nnzrXRBblZjSvK-100" vertex="1">
          <mxGeometry y="292" width="120" height="30" as="geometry" />
        </mxCell>
      </root>
    </mxGraphModel>
  </diagram>
</mxfile>
